<svg width="10" height="19" viewBox="0 0 10 19" fill="none" xmlns="http://www.w3.org/2000/svg">
<path d="M7.78332 18.6683C7.58412 18.669 7.38731 18.6251 7.20734 18.5397C7.02736 18.4543 6.86881 18.3297 6.74332 18.175L0.303317 10.175C0.107208 9.93643 0 9.63717 0 9.32834C0 9.0195 0.107208 8.72025 0.303317 8.48167L6.96998 0.48167C7.1963 0.209381 7.52152 0.0381483 7.87408 0.005642C8.22665 -0.0268643 8.57769 0.0820183 8.84998 0.308336C9.12227 0.534654 9.2935 0.85987 9.32601 1.21244C9.35852 1.56501 9.24963 1.91605 9.02332 2.18834L3.06332 9.335L8.82332 16.4817C8.98636 16.6774 9.08993 16.9157 9.12177 17.1684C9.15361 17.4212 9.11238 17.6777 9.00298 17.9078C8.89357 18.1378 8.72056 18.3317 8.50441 18.4665C8.28826 18.6013 8.03803 18.6713 7.78332 18.6683Z" fill="black"/>
</svg>
