<svg width="309" height="398" viewBox="0 0 309 398" fill="none" xmlns="http://www.w3.org/2000/svg">
<path d="M89.4 344.3H42.3C36.5 344.3 31.1 343.3 25.9 341.2C20.7 339.1 16.2 336.2 12.4 332.5C8.60001 328.8 5.5 324.4 3.3 319.3C1.1 314.2 0 308.6 0 302.5C0 296.5 1.10001 290.9 3.20001 285.8C5.40001 280.7 8.30001 276.2 12.2 272.5C16 268.7 20.5 265.8 25.6 263.7C30.7 261.6 36.3 260.5 42.3 260.5C48.1 260.5 53.5 261.6 58.5 263.6C63.5 265.7 67.9 268.6 71.7 272.2C75.5 275.9 78.4 280.2 80.6 285.1C82.8 290.1 83.9 295.5 83.9 301.3C83.9 304.8 83.5 308.2 82.7 311.5C81.9 314.8 80.7 318 79.1 320.9C77.5 323.8 75.6 326.4 73.2 328.7C70.8 331 68.2 332.9 65.2 334.2V334.4H89.4V344.3ZM41.8 333.9C46.3 333.9 50.4 333.1 54.1 331.4C57.8 329.8 61 327.5 63.7 324.6C66.4 321.7 68.4 318.3 69.9 314.4C71.4 310.5 72.1 306.3 72.1 301.8C72.1 297.5 71.4 293.4 69.9 289.7C68.4 285.9 66.3 282.7 63.6 279.9C60.9 277.1 57.7 274.9 54 273.3C50.3 271.7 46.3 270.9 41.9 270.9C37.6 270.9 33.6 271.7 29.9 273.3C26.2 274.9 23.1 277.1 20.4 279.9C17.7 282.7 15.6 285.9 14 289.6C12.5 293.3 11.7 297.3 11.7 301.5C11.7 306 12.4 310.2 13.9 314.1C15.4 318 17.4 321.5 20.1 324.4C22.8 327.3 25.9 329.6 29.6 331.3C33.3 333 37.3 333.9 41.8 333.9Z" fill="#212121"/>
<path d="M132.8 346.4C126.6 346.4 120.8 345.3 115.6 343.1C110.4 340.9 105.9 337.9 102.2 334C98.5 330.1 95.5 325.6 93.4 320.4C91.3 315.2 90.2 309.5 90.2 303.4C90.2 297.3 91.3 291.7 93.4 286.4C95.5 281.2 98.4 276.6 102.2 272.8C105.9 269 110.4 265.9 115.7 263.7C120.9 261.5 126.7 260.4 132.9 260.4C139.1 260.4 144.9 261.5 150.1 263.7C155.3 265.9 159.8 268.9 163.5 272.8C167.2 276.7 170.1 281.2 172.3 286.4C174.4 291.6 175.5 297.3 175.5 303.4C175.5 309.5 174.4 315.1 172.3 320.4C170.2 325.6 167.2 330.2 163.5 334C159.8 337.8 155.3 340.9 150 343C144.7 345.3 139 346.4 132.8 346.4ZM132.8 336C137.5 336 141.7 335.1 145.5 333.4C149.3 331.7 152.5 329.3 155.2 326.4C157.9 323.5 160 320 161.4 316.1C162.9 312.1 163.6 307.9 163.6 303.5C163.6 299 162.9 294.8 161.4 290.9C159.9 286.9 157.9 283.5 155.2 280.6C152.5 277.7 149.3 275.3 145.5 273.6C141.7 271.9 137.5 271 132.8 271C128.1 271 123.9 271.9 120.1 273.6C116.3 275.3 113.1 277.7 110.4 280.6C107.7 283.5 105.6 287 104.2 290.9C102.7 294.9 102 299.1 102 303.5C102 308 102.7 312.2 104.2 316.1C105.7 320.1 107.7 323.5 110.4 326.4C113.1 329.3 116.3 331.7 120.1 333.4C123.8 335.2 128.1 336 132.8 336Z" fill="#212121"/>
<path d="M185.6 262.7H214.3C219.5 262.7 223.8 263.4 227.2 264.8C230.6 266.2 233.3 268 235.2 270.2C237.2 272.4 238.5 274.9 239.3 277.6C240.1 280.3 240.4 283 240.4 285.5C240.4 288.1 239.9 290.6 239 293.1C238.1 295.5 236.7 297.7 235 299.7C233.3 301.7 231.1 303.3 228.6 304.7C226.1 306 223.3 306.9 220.2 307.2L243.4 344.5H229.5L208.8 308.5H196.4V344.5H185.3L185.6 262.7ZM196.6 298.7H211.1C213.3 298.7 215.4 298.5 217.5 298.2C219.6 297.9 221.5 297.2 223.2 296.3C224.9 295.4 226.2 294.1 227.2 292.3C228.2 290.6 228.7 288.3 228.7 285.5C228.7 282.7 228.2 280.5 227.2 278.7C226.2 277 224.9 275.6 223.2 274.7C221.5 273.8 219.7 273.1 217.5 272.8C215.4 272.5 213.2 272.3 211.1 272.3H196.6V298.7Z" fill="#212121"/>
<path d="M250.4 262.7H279.1C284.3 262.7 288.6 263.4 292 264.8C295.4 266.2 298.1 268 300 270.2C302 272.4 303.3 274.9 304.1 277.6C304.9 280.3 305.2 283 305.2 285.5C305.2 288.1 304.7 290.6 303.8 293.1C302.9 295.5 301.5 297.7 299.8 299.7C298.1 301.7 295.9 303.3 293.4 304.7C290.9 306 288.1 306.9 285 307.2L308.2 344.5H294.3L273.6 308.5H261.2V344.5H250.1L250.4 262.7ZM261.4 298.7H275.9C278.1 298.7 280.2 298.5 282.3 298.2C284.4 297.9 286.3 297.2 288 296.3C289.7 295.4 291 294.1 292 292.3C293 290.6 293.5 288.3 293.5 285.5C293.5 282.7 293 280.5 292 278.7C291 277 289.7 275.6 288 274.7C286.3 273.8 284.5 273.1 282.3 272.8C280.2 272.5 278 272.3 275.9 272.3H261.4V298.7Z" fill="#212121"/>
<path d="M70.2001 166.8C64.7001 166.3 59.4001 166.3 54.5001 166.5C53.4001 166.5 52.2001 166.6 51.2001 166.7C55.5001 175.3 60.8001 183.2 67.0001 190.4C77.9001 186.1 90.7001 181.6 104.4 178.1C94.5001 170.9 82.0001 167.8 70.2001 166.8Z" fill="#8DA69D"/>
<path d="M205.4 106.5C202.8 107.2 200.2 108 197.6 108.9C195.6 109.6 193.6 110.3 191.6 111C189.9 111.7 188.1 112.4 186.4 113.1C185.7 113.4 185.1 113.6 184.4 113.9C178.6 114.6 173 115.1 167.7 115.4C162.4 115.7 157.3 115.9 152.6 115.9C141.7 115.9 132.5 115 125.2 113.2C121.9 112.4 119 111.4 116.5 110.2C115.9 109.9 115.3 109.6 114.7 109.4C111.7 108.1 108.6 106.9 105.5 105.8C104.3 105.4 103 105 101.7 104.6C101.9 103 102.3 101.5 102.6 100C103 98.5 103.4 97 103.9 95.5C106.7 87.5 111.4 80.3 117.5 74.6C126.9 65.8 139.5 60.3 153.4 60.3C158.2 60.3 162.8 60.9 167.2 62.2C167.7 62.3 168.1 62.4 168.5 62.6C169 62.8 169.5 62.9 170.1 63.1C172.4 63.9 174.5 64.8 176.6 65.8C178 66.5 179.4 67.2 180.7 68.1C184 70.1 187.1 72.5 189.9 75.3C193.2 78.5 196.1 82.2 198.5 86.3C198.9 87 199.3 87.6 199.6 88.3C200.6 90.2 201.5 92.1 202.2 94.1C202.4 94.5 202.5 94.9 202.7 95.3C203.4 97.2 203.9 99.1 204.4 101.1C204.8 102.9 205.1 104.7 205.4 106.5Z" fill="#FCBA2D"/>
<path d="M241.7 134.8L252.1 168.2H239.2H252.1L241.7 134.8ZM226.9 151.4L225.7 155.3L226.9 151.4L231.6 136.4L236 122.2L231.6 136.4L226.9 151.4ZM234 175.2C234.5 175.1 235 175 235.4 174.9C235 175 234.5 175.1 234 175.2ZM234 168.2H221.6H234ZM205.4 106.5C202.8 107.2 200.2 108 197.6 108.9C200.2 108 202.8 107.2 205.4 106.5ZM202.7 95.4C203.4 97.3 203.9 99.2 204.4 101.2C204 99.2 203.4 97.2 202.7 95.4ZM199.7 88.4C200.7 90.3 201.6 92.2 202.3 94.2C201.6 92.2 200.7 90.2 199.7 88.4ZM189.9 75.4C193.2 78.6 196.1 82.3 198.5 86.4C196.2 82.3 193.2 78.6 189.9 75.4ZM167.7 115.5C173 115.2 178.6 114.6 184.4 114C185.1 113.7 185.7 113.4 186.4 113.2C185.7 113.5 185.1 113.7 184.4 114C178.6 114.6 173 115.1 167.7 115.5ZM186.4 113.1C188.1 112.4 189.9 111.7 191.6 111C189.9 111.7 188.1 112.4 186.4 113.1ZM140.6 205.5V221.8V205.5H153.6H140.6ZM123.1 205.5H135.4H123.1ZM116.5 110.2C115.9 109.9 115.3 109.7 114.7 109.4C115.3 109.7 115.9 110 116.5 110.2C119 111.4 121.9 112.4 125.2 113.2C121.9 112.4 119 111.4 116.5 110.2ZM102.7 100.1C103.1 98.6 103.5 97.1 104 95.6C103.5 97.1 103 98.6 102.7 100.1ZM101.7 104.7C102 103.1 102.3 101.6 102.6 100.1C102.3 101.6 102 103.2 101.7 104.7ZM72.2001 139.6L74.1001 145.7L75.7001 150.8L74.1001 145.7L72.2001 139.6ZM62.6001 108.8L54.8001 133.7L62.6001 108.8Z" fill="#8DA69D"/>
<path d="M240 111.9L238.4 106.8H240C249.7 106.8 259.5 108.1 269.2 111.1C268.6 94.3 264.4 78.3 257.4 64.1C256.8 62.9 256.2 61.7 255.5 60.5C246.4 43.8 233.5 29.6 217.7 19.2C216.7 18.5 215.7 18 214.7 17.3C199.8 8 182.5 2.1 164.1 0.5C162.4 0.3 160.7 0.199998 158.9 0.0999985C157.3 -1.52737e-06 155.7 0 154.2 0C137.1 0 120.9 3.7 106.4 10.3C104.6 11.1 102.8 11.9 101.2 12.8C80.5001 23.6 63.6001 40.3 52.6001 60.8C50.7001 64.2 49.1001 67.8 47.6001 71.4C43.4001 81.7 40.6001 92.8 39.6001 104.3C42.7001 104.1 49.7001 103.6 58.7001 103.9L57.1001 109.1C55.8001 109.1 54.6001 109 53.5001 109C46.5001 109 41.2001 109.3 39.2001 109.5C39.1001 111.4 39.1001 113.2 39.1001 115C39.1001 120.2 39.4001 125.3 40.1001 130.4C42.7001 130.7 46.1001 131.1 50.0001 131.6L48.4001 136.7C45.6001 136.4 43.1001 136.1 41.0001 135.8C42.6001 144.8 45.3001 153.3 48.9001 161.4C50.8001 161.2 52.6001 161.1 54.6001 161.1C59.5001 160.9 64.8001 160.9 70.3001 161.4C84.4001 162.6 99.5001 166.6 111 176.5C116.5 175.3 122.1 174.2 127.8 173.4L126.1 178.9C106.3 181.9 86.7001 188.4 70.9001 194.5C91.8001 216.5 121.5 230.3 154.3 230.3C192.6 230.3 226.7 211.5 247.6 182.5C237.7 186.3 213.9 191.7 173.4 180.2C166.1 178.2 158.3 177.2 150.3 177.1L148.7 171.9C157.8 171.9 166.6 172.9 174.8 175.2C188.4 179 200 180.8 209.7 181.5C193.8 170.1 168.8 161.2 143.2 154.4L140.5 145.7C150 138.7 160.7 131.7 172.3 125.6C106.3 130.5 121.2 113.3 68.5001 109.6L66.8001 104.2C126.5 107.8 105.6 128.6 185.9 119C201.6 112.2 218.4 107.5 235.6 106.9L234 112.2C200.8 114.1 168.9 131.5 144.4 149.3C154.6 152.1 164.5 155 173.8 158.3C179.1 153.9 200.9 137.3 225 140.4L223.5 145.5C204.7 143.6 186.9 154.9 179.6 160.3C195.4 166.4 209.1 173.5 218.4 181.7C222.1 181.7 225.6 181.5 228.9 181.2V181.1C230.1 181 231.3 180.9 232.3 180.7C232.5 180.5 238 179.8 243.3 178.2L244.2 178C244.3 177.9 244.4 177.9 244.5 177.8V177.9C246.6 177.2 248.7 176.4 250.2 175.4L251.2 177C262.5 159.5 269 138.8 269.3 116.5C259.5 113.4 249.7 112 240 111.9ZM138.3 156.9L153.5 205.5H140.6V221.7H135.3V205.5H123L138.3 156.9ZM76.8001 135.5C95.3001 138.4 116 142.2 135.9 147.1L134.3 152.2C114 147.3 93.9001 143.5 78.2001 141L76.7001 136.2L76.8001 135.5ZM71.3001 136.6L72.2001 139.6L74.1001 145.7L75.7001 150.8H64.9001V155.9C64.1001 155.8 63.3001 155.8 62.4001 155.8C61.6001 155.8 60.7001 155.8 59.9001 155.8H59.7001V150.8H49.4001L54.8001 133.7L62.6001 108.8L64.5001 114.6L71.3001 136.6ZM205.4 106.5C202.8 107.2 200.2 108 197.6 108.9C195.6 109.6 193.6 110.3 191.6 111C189.2 111.9 186.8 112.9 184.4 113.9C178.6 114.6 173 115.1 167.7 115.4C162.4 115.7 157.3 115.9 152.6 115.9C141.7 115.9 132.5 115 125.2 113.2C121.9 112.4 119 111.4 116.5 110.2C115.9 109.9 115.3 109.6 114.7 109.4C111.7 108.1 108.6 106.9 105.5 105.8C104.3 105.4 103 105 101.7 104.6C101.9 103 102.3 101.5 102.6 100C103 98.5 103.4 97 103.9 95.5C106.7 87.5 111.4 80.3 117.5 74.6C126.9 65.8 139.5 60.3 153.4 60.3C158.2 60.3 162.8 60.9 167.2 62.2C167.7 62.3 168.1 62.4 168.5 62.6C169 62.8 169.5 62.9 170.1 63.1C172.4 63.9 174.5 64.8 176.6 65.8C178 66.5 179.4 67.2 180.7 68.1C184 70.1 187.1 72.5 189.9 75.3C193.2 78.5 196.1 82.2 198.5 86.3C198.9 87 199.3 87.6 199.6 88.3C200.6 90.2 201.5 92.1 202.2 94.1C202.4 94.5 202.5 94.9 202.7 95.3C203.4 97.2 203.9 99.1 204.4 101.1C204.8 102.9 205.1 104.7 205.4 106.5ZM239.2 168.2V174.1C238.1 174.4 236.8 174.7 235.4 175C234.9 175.1 234.5 175.2 234 175.3V168.3H221.6L225.7 155.4L226.9 151.5L231.6 136.5L236 122.3L236.8 119.7L241.6 134.9L252.1 168.3H239.2V168.2Z" fill="#8DA69D"/>
<path d="M153.6 205.5H140.6V221.7H135.4V205.5H123.1L138.3 156.9L153.5 205.5H153.6Z" fill="#212121"/>
<path d="M75.8001 150.8H65.0001V155.9C64.2001 155.8 63.4001 155.8 62.5001 155.8C61.7001 155.8 60.8001 155.8 60.0001 155.8H59.8001V150.8H49.5001L54.9001 133.7L62.7001 108.8L64.5001 114.6L71.4001 136.6L72.3001 139.6L74.2001 145.7L75.8001 150.8Z" fill="#212121"/>
<path d="M252.2 168.2H239.3V174.1C238.2 174.4 236.9 174.7 235.5 175C235 175.1 234.6 175.2 234.1 175.3V168.3H221.6L225.7 155.4L226.9 151.5L231.6 136.5L236 122.3L236.8 119.7L241.6 134.9L252.2 168.2Z" fill="#212121"/>
<path d="M24.6 370.9C23.8 370 22.9 369.3 21.8 368.8C20.7 368.3 19.4 368.1 18 368.1C16.6 368.1 15.2 368.4 14 368.9C12.8 369.5 11.7 370.2 10.8 371.2C9.9 372.2 9.20001 373.4 8.70001 374.8C8.20001 376.2 7.90001 377.7 7.90001 379.3C7.90001 380.9 8.20001 382.4 8.70001 383.8C9.20001 385.2 9.9 386.3 10.8 387.3C11.7 388.3 12.7 389.1 13.9 389.6C15.1 390.2 16.4 390.4 17.8 390.4C19.4 390.4 20.8 390.1 22 389.4C23.2 388.7 24.2 387.8 25 386.6L31.4 391.4C29.9 393.5 28 395 25.8 396C23.5 397 21.2 397.5 18.8 397.5C16.1 397.5 13.6 397.1 11.3 396.2C9 395.3 7 394.1 5.3 392.5C3.6 390.9 2.30001 389 1.40001 386.7C0.500009 384.4 0 381.9 0 379.1C0 376.3 0.500009 373.8 1.40001 371.5C2.30001 369.2 3.6 367.3 5.3 365.7C7 364.1 9 362.9 11.3 362C13.6 361.1 16.1 360.7 18.8 360.7C19.8 360.7 20.8 360.8 21.9 361C23 361.2 24 361.5 25.1 361.9C26.1 362.3 27.1 362.8 28.1 363.5C29.1 364.2 29.9 365 30.7 365.9L24.6 370.9Z" fill="#8DA69D"/>
<path d="M66.8 361.8H73.2L88.4 396.7H79.6L76.6 389.3H63L60.1 396.7H51.6L66.8 361.8ZM69.7 372L65.5 382.8H74L69.7 372Z" fill="#8DA69D"/>
<path d="M111.5 361.8H125C126.8 361.8 128.5 362 130.1 362.3C131.7 362.6 133.1 363.2 134.3 364C135.5 364.8 136.5 365.9 137.2 367.3C137.9 368.7 138.3 370.4 138.3 372.4C138.3 374.9 137.7 377 136.4 378.7C135.1 380.4 133.2 381.5 130.8 382L139.7 396.7H130.5L123.2 382.8H119.4V396.7H111.7V361.8H111.5ZM119.2 376.3H123.7C124.4 376.3 125.1 376.3 125.9 376.2C126.7 376.2 127.4 376 128 375.8C128.6 375.6 129.1 375.2 129.6 374.6C130 374.1 130.2 373.3 130.2 372.4C130.2 371.5 130 370.8 129.7 370.3C129.4 369.8 128.9 369.4 128.3 369.1C127.7 368.8 127.1 368.6 126.4 368.5C125.7 368.4 125 368.4 124.3 368.4H119.3V376.3H119.2Z" fill="#8DA69D"/>
<path d="M163.2 361.8H176.2C177.7 361.8 179.2 361.9 180.8 362.1C182.3 362.3 183.7 362.7 184.9 363.4C186.1 364 187.1 364.9 187.9 366.1C188.7 367.2 189 368.8 189 370.7C189 372.7 188.4 374.3 187.3 375.6C186.2 376.9 184.7 377.8 182.9 378.4V378.5C184 378.7 185.1 379 186 379.5C186.9 380 187.7 380.6 188.4 381.3C189.1 382 189.6 382.9 190 383.9C190.4 384.9 190.5 385.9 190.5 387.1C190.5 388.9 190.1 390.5 189.3 391.7C188.5 392.9 187.5 393.9 186.2 394.7C185 395.5 183.5 396 182 396.3C180.4 396.6 178.9 396.8 177.3 396.8H163V361.8H163.2ZM170.8 375.8H176.4C177 375.8 177.6 375.7 178.1 375.6C178.7 375.5 179.2 375.3 179.7 375C180.2 374.7 180.5 374.3 180.8 373.8C181.1 373.3 181.2 372.7 181.2 372C181.2 371.3 181 370.7 180.7 370.2C180.4 369.7 180 369.4 179.5 369.1C179 368.8 178.4 368.6 177.8 368.5C177.2 368.4 176.6 368.3 176 368.3H170.8V375.8ZM170.8 390.2H177.7C178.3 390.2 178.9 390.1 179.5 390C180.1 389.9 180.7 389.6 181.2 389.3C181.7 389 182.1 388.5 182.4 388C182.7 387.5 182.9 386.8 182.9 386.1C182.9 385.3 182.7 384.6 182.3 384.1C181.9 383.6 181.4 383.2 180.7 382.9C180 382.6 179.4 382.5 178.7 382.4C178 382.3 177.3 382.3 176.7 382.3H170.9V390.2H170.8Z" fill="#8DA69D"/>
<path d="M212.9 379.3C212.9 376.5 213.4 374 214.3 371.7C215.2 369.4 216.5 367.5 218.2 365.9C219.9 364.3 221.9 363.1 224.2 362.2C226.5 361.3 229 360.9 231.7 360.9C234.4 360.9 236.9 361.3 239.2 362.2C241.5 363.1 243.5 364.3 245.2 365.9C246.9 367.5 248.2 369.4 249.1 371.7C250 374 250.5 376.5 250.5 379.3C250.5 382.1 250 384.6 249.1 386.9C248.2 389.2 246.9 391.1 245.2 392.7C243.5 394.3 241.5 395.5 239.2 396.4C236.9 397.3 234.4 397.7 231.7 397.7C229 397.7 226.5 397.3 224.2 396.4C221.9 395.5 219.9 394.3 218.2 392.7C216.5 391.1 215.2 389.2 214.3 386.9C213.4 384.6 212.9 382.1 212.9 379.3ZM220.9 379.3C220.9 380.9 221.2 382.4 221.7 383.8C222.2 385.2 222.9 386.3 223.9 387.3C224.9 388.3 226 389.1 227.3 389.6C228.6 390.1 230.1 390.4 231.8 390.4C233.4 390.4 234.9 390.1 236.3 389.6C237.7 389.1 238.8 388.3 239.7 387.3C240.7 386.3 241.4 385.1 241.9 383.8C242.4 382.5 242.7 380.9 242.7 379.3C242.7 377.7 242.4 376.2 241.9 374.8C241.4 373.4 240.7 372.2 239.7 371.2C238.7 370.2 237.6 369.4 236.3 368.9C235 368.3 233.5 368.1 231.8 368.1C230.2 368.1 228.7 368.4 227.3 368.9C226 369.5 224.8 370.2 223.9 371.2C222.9 372.2 222.2 373.4 221.7 374.8C221.2 376.2 220.9 377.7 220.9 379.3Z" fill="#8DA69D"/>
<path d="M275.5 361.8H285.9L300.7 386H300.8V361.8H308.5V396.7H298.4L283.2 371.9H283.1V396.7H275.4V361.8H275.5Z" fill="#8DA69D"/>
</svg>
