<svg width="43" height="39" viewBox="0 0 43 39" fill="none" xmlns="http://www.w3.org/2000/svg">
<g filter="url(#filter0_d_624_71064)">
<path d="M32.461 4.92672H30.3933L29.8764 3.28449C29.5413 2.32088 28.9197 1.48708 28.0977 0.898598C27.2758 0.310119 26.2941 -0.00390341 25.2888 3.66276e-05H17.0182C16.003 0.00196741 15.0141 0.327962 14.191 0.932009C13.3678 1.53606 12.7521 2.38765 12.4306 3.3666L11.9137 5.00883H9.84605C8.5608 5.00883 7.32819 5.52789 6.41938 6.45182C5.51057 7.37575 5 8.62887 5 9.93551V23.0733C5 24.38 5.51057 25.6331 6.41938 26.557C7.32819 27.4809 8.5608 28 9.84605 28H32.461C33.7462 28 34.9788 27.4809 35.8876 26.557C36.7965 25.6331 37.307 24.38 37.307 23.0733V9.93551C37.3177 9.28165 37.2003 8.63217 36.9616 8.02492C36.7228 7.41768 36.3676 6.86483 35.9165 6.39862C35.4655 5.9324 34.9276 5.56214 34.3343 5.30944C33.741 5.05673 33.1042 4.92663 32.461 4.92672ZM34.0763 22.9912C34.0763 23.4268 33.9061 23.8445 33.6032 24.1524C33.3003 24.4604 32.8894 24.6334 32.461 24.6334H9.84605C9.41764 24.6334 9.00676 24.4604 8.70383 24.1524C8.40089 23.8445 8.2307 23.4268 8.2307 22.9912V9.8534C8.2307 9.41785 8.40089 9.00014 8.70383 8.69217C9.00676 8.38419 9.41764 8.21117 9.84605 8.21117H13.0768C13.429 8.22986 13.7776 8.13082 14.0693 7.92918C14.361 7.72753 14.5797 7.43437 14.6921 7.09446L15.5644 4.4012C15.6728 4.07502 15.8792 3.79172 16.1546 3.59133C16.43 3.39094 16.7603 3.2836 17.099 3.28449H25.3696C25.7082 3.2836 26.0386 3.39094 26.314 3.59133C26.5893 3.79172 26.7958 4.07502 26.9042 4.4012L27.7765 7.09446C27.8801 7.4077 28.0743 7.68186 28.3337 7.8811C28.5931 8.08033 28.9055 8.19537 29.2303 8.21117H32.461C32.8894 8.21117 33.3003 8.38419 33.6032 8.69217C33.9061 9.00014 34.0763 9.41785 34.0763 9.8534V22.9912ZM21.1535 8.21117C19.8756 8.21117 18.6263 8.59643 17.5637 9.31823C16.5012 10.04 15.673 11.066 15.184 12.2663C14.6949 13.4666 14.5669 14.7874 14.8163 16.0616C15.0656 17.3358 15.681 18.5063 16.5846 19.425C17.4883 20.3437 18.6396 20.9693 19.893 21.2228C21.1463 21.4762 22.4455 21.3461 23.6262 20.849C24.8069 20.3518 25.816 19.5098 26.526 18.4296C27.236 17.3493 27.6149 16.0793 27.6149 14.7801C27.6149 13.0379 26.9342 11.3671 25.7224 10.1352C24.5107 8.90325 22.8672 8.21117 21.1535 8.21117ZM21.1535 18.0645C20.5145 18.0645 19.8899 17.8719 19.3586 17.511C18.8273 17.1501 18.4133 16.6371 18.1687 16.037C17.9242 15.4368 17.8602 14.7764 17.9849 14.1393C18.1095 13.5022 18.4172 12.917 18.8691 12.4576C19.3209 11.9983 19.8965 11.6855 20.5232 11.5587C21.1499 11.432 21.7995 11.497 22.3898 11.7456C22.9802 11.9942 23.4847 12.4152 23.8397 12.9553C24.1947 13.4955 24.3842 14.1305 24.3842 14.7801C24.3842 15.6512 24.0438 16.4866 23.438 17.1025C22.8321 17.7185 22.0103 18.0645 21.1535 18.0645Z" fill="white"/>
</g>
<defs>
<filter id="filter0_d_624_71064" x="0" y="0" width="42.3076" height="39" filterUnits="userSpaceOnUse" color-interpolation-filters="sRGB">
<feFlood flood-opacity="0" result="BackgroundImageFix"/>
<feColorMatrix in="SourceAlpha" type="matrix" values="0 0 0 0 0 0 0 0 0 0 0 0 0 0 0 0 0 0 127 0" result="hardAlpha"/>
<feOffset dy="6"/>
<feGaussianBlur stdDeviation="2.5"/>
<feComposite in2="hardAlpha" operator="out"/>
<feColorMatrix type="matrix" values="0 0 0 0 0.121569 0 0 0 0 0.278431 0 0 0 0 0.231373 0 0 0 0.15 0"/>
<feBlend mode="normal" in2="BackgroundImageFix" result="effect1_dropShadow_624_71064"/>
<feBlend mode="normal" in="SourceGraphic" in2="effect1_dropShadow_624_71064" result="shape"/>
</filter>
</defs>
</svg>
