<svg width="25" height="24" viewBox="0 0 25 24" fill="none" xmlns="http://www.w3.org/2000/svg">
<path d="M19.75 3.00391C20.4503 3.00387 21.1242 3.271 21.6343 3.7508C22.1444 4.2306 22.4522 4.88693 22.495 5.58591L22.5 5.75391L22.501 10.9999C22.0955 10.46 21.5853 10.0073 21.001 9.66891L21 5.75391C21.0001 5.44445 20.8855 5.14594 20.6782 4.91614C20.471 4.68634 20.1858 4.54159 19.878 4.50991L19.75 4.50391H5.25C4.94054 4.50377 4.64203 4.61842 4.41223 4.82568C4.18244 5.03294 4.03769 5.31807 4.006 5.62591L4 5.75391V15.2539C4 15.9009 4.492 16.4339 5.122 16.4969L5.25 16.5039H14.17C14.27 16.6759 14.38 16.8419 14.5 16.9999V18.0039H5.25C4.54955 18.0039 3.87549 17.7367 3.36538 17.2566C2.85526 16.7766 2.54754 16.1201 2.505 15.4209L2.5 15.2539V5.75391C2.49997 5.05362 2.76709 4.3797 3.24689 3.86961C3.72669 3.35952 4.38302 3.05169 5.082 3.00891L5.25 3.00391H19.75ZM11.75 12.4999C11.94 12.5 12.1229 12.5722 12.2618 12.7019C12.4006 12.8316 12.4851 13.0092 12.498 13.1988C12.511 13.3884 12.4515 13.5758 12.3316 13.7232C12.2117 13.8706 12.0402 13.967 11.852 13.9929L11.75 13.9999H7.25C7.05998 13.9998 6.87706 13.9277 6.73821 13.7979C6.59936 13.6682 6.51493 13.4906 6.50197 13.301C6.48902 13.1114 6.54852 12.924 6.66843 12.7766C6.78835 12.6292 6.95975 12.5328 7.148 12.5069L7.25 12.4999H11.75ZM17.75 6.99991C17.94 6.99996 18.1229 7.07215 18.2618 7.20188C18.4006 7.33161 18.4851 7.50921 18.498 7.69879C18.511 7.88837 18.4515 8.0758 18.3316 8.22321C18.2117 8.37061 18.0402 8.46701 17.852 8.49291L17.75 8.49991H7.25C7.05998 8.49985 6.87706 8.42766 6.73821 8.29793C6.59936 8.16821 6.51493 7.99061 6.50197 7.80103C6.48902 7.61144 6.54852 7.42401 6.66843 7.27661C6.78835 7.1292 6.95975 7.03281 7.148 7.00691L7.25 6.99991H17.75Z" fill="#212121"/>
<path d="M21.3284 11.1716C20.5783 10.4214 19.5609 10 18.5 10C17.4391 10 16.4217 10.4214 15.6716 11.1716C14.9214 11.9217 14.5 12.9391 14.5 14C14.5 15.0609 14.9214 16.0783 15.6716 16.8284C16.4217 17.5786 17.4391 18 18.5 18C19.5609 18 20.5783 17.5786 21.3284 16.8284C22.0786 16.0783 22.5 15.0609 22.5 14C22.5 12.9391 22.0786 11.9217 21.3284 11.1716Z" fill="#FF9D25"/>
<path d="M18.5 19.001C17.375 19.001 16.335 18.629 15.5 18L15.501 21.248L15.508 21.353C15.5259 21.4799 15.5761 21.6002 15.6537 21.7022C15.7313 21.8042 15.8338 21.8846 15.9514 21.9358C16.0689 21.9869 16.1976 22.0071 16.3252 21.9944C16.4527 21.9816 16.5749 21.9364 16.68 21.863L18.5 20.591L20.32 21.863L20.41 21.918C20.5245 21.9762 20.6519 22.0041 20.7802 21.9989C20.9085 21.9937 21.0334 21.9557 21.1427 21.8884C21.2521 21.8212 21.3424 21.727 21.405 21.6149C21.4675 21.5027 21.5003 21.3764 21.5 21.248V18.002C20.6351 18.6522 19.582 19.0029 18.5 19.001Z" fill="#212121"/>
</svg>
