<?xml version="1.0" encoding="UTF-8"?>
<svg width="20px" height="20px" viewBox="0 0 20 20" version="1.1" xmlns="http://www.w3.org/2000/svg" xmlns:xlink="http://www.w3.org/1999/xlink">
    <title>Icons 2</title>
    <g id="Page-1" stroke="none" stroke-width="1" fill="none" fill-rule="evenodd" stroke-linecap="round" stroke-linejoin="round">
        <g id="Icons-2" transform="translate(1.000000, 1.000000)" stroke="#ADADAD">
            <path d="M16,18 L16,2 C16,1.46957 15.7893,0.96086 15.4142,0.58579 C15.0391,0.21071 14.5304,0 14,0 L4,0 C3.46957,0 2.96086,0.21071 2.58579,0.58579 C2.21071,0.96086 2,1.46957 2,2 L2,18 M16,18 L2,18 M16,18 L18,18 M16,18 L11,18 M2,18 L0,18 M2,18 L7,18 M11,18 L11,13 C11,12.7348 10.8946,12.4804 10.7071,12.2929 C10.5196,12.1054 10.2652,12 10,12 L8,12 C7.7348,12 7.4804,12.1054 7.2929,12.2929 C7.1054,12.4804 7,12.7348 7,13 L7,18 M11,18 L7,18" id="Shape" stroke-width="1.5"></path>
            <path d="M6,4 L7,4 M6,8 L7,8 M11,4 L12,4 M11,8 L12,8" id="Shape" stroke-width="2"></path>
        </g>
    </g>
</svg>