<svg width="71" height="140" viewBox="0 0 71 140" fill="none" xmlns="http://www.w3.org/2000/svg">
<path d="M13.6445 71.0029H23.7706" stroke="#597265" stroke-width="3" stroke-miterlimit="10"/>
<path d="M13.6445 73.9219H23.7706" stroke="#597265" stroke-width="3" stroke-miterlimit="10"/>
<path d="M13.6445 76.8408H23.7706" stroke="#597265" stroke-width="3" stroke-miterlimit="10"/>
<path d="M18.1165 106.863C20.9606 106.863 23.2662 104.557 23.2662 101.713C23.2662 98.8691 20.9606 96.5635 18.1165 96.5635C15.2724 96.5635 12.9668 98.8691 12.9668 101.713C12.9668 104.557 15.2724 106.863 18.1165 106.863Z" fill="#597265"/>
<path d="M10.9158 96.7515C12.3972 96.7515 13.5982 95.5506 13.5982 94.0691C13.5982 92.5877 12.3972 91.3867 10.9158 91.3867C9.43434 91.3867 8.2334 92.5877 8.2334 94.0691C8.2334 95.5506 9.43434 96.7515 10.9158 96.7515Z" fill="#597265"/>
<path d="M17.1596 88.53C18.0141 88.53 18.7068 87.8373 18.7068 86.9828C18.7068 86.1283 18.0141 85.4355 17.1596 85.4355C16.305 85.4355 15.6123 86.1283 15.6123 86.9828C15.6123 87.8373 16.305 88.53 17.1596 88.53Z" fill="#597265"/>
<path d="M24.3558 95.4646C26.4044 95.4646 28.0651 93.8038 28.0651 91.7552C28.0651 89.7066 26.4044 88.0459 24.3558 88.0459C22.3072 88.0459 20.6465 89.7066 20.6465 91.7552C20.6465 93.8038 22.3072 95.4646 24.3558 95.4646Z" fill="#597265"/>
<path d="M30.8194 35.2068C41.3485 20.3696 47.8852 6.92314 45.4193 5.17324L42.5941 3.16832C40.1281 1.41835 29.5935 12.0277 19.0644 26.8649C8.53523 41.702 1.99863 55.1484 4.46462 56.8984L7.28984 58.9033C9.75571 60.6532 20.2902 50.0439 30.8194 35.2068Z" fill="#455B50"/>
<path d="M27.9944 33.2025C38.5234 18.3654 45.0598 4.91888 42.5939 3.16895C40.128 1.41903 29.5935 12.0283 19.0645 26.8655C8.53545 41.7026 1.99904 55.1491 4.46497 56.899C6.93091 58.6489 17.4654 48.0396 27.9944 33.2025Z" fill="#597265"/>
<path d="M25.6433 22.1265C28.5725 24.2052 19.9443 36.3637 17.0151 34.2849C14.0859 32.2062 13.6428 27.7993 16.0254 24.4419C18.408 21.0844 22.7141 20.0478 25.6433 22.1265Z" fill="#455B50"/>
<path d="M4.87988 68.1768L12.6128 135.824H12.6966C12.6966 138.131 23.9457 140 37.8221 140C51.6984 140 62.9476 138.131 62.9476 135.824H63.0315L70.7644 68.1768H4.87988Z" fill="#597265"/>
<path d="M37.822 73.6521C56.0154 73.6521 70.7641 71.2009 70.7641 68.1771C70.7641 65.1534 56.0154 62.7021 37.822 62.7021C19.6286 62.7021 4.87988 65.1534 4.87988 68.1771C4.87988 71.2009 19.6286 73.6521 37.822 73.6521Z" fill="#455B50"/>
<path d="M39.4944 83.3701H38.0156C37.6467 83.3701 37.3477 83.6692 37.3477 84.038V131.841C37.3477 132.209 37.6467 132.508 38.0156 132.508H39.4944C39.8632 132.508 40.1623 132.209 40.1623 131.841V84.038C40.1623 83.6692 39.8632 83.3701 39.4944 83.3701Z" fill="#455B50"/>
<path d="M53.7638 132.574L51.9842 132.328C51.7002 132.289 51.4857 131.793 51.5052 131.22L53.1026 84.271C53.1221 83.6983 53.3681 83.2659 53.6522 83.3052L55.4317 83.5513C55.7158 83.5906 55.9302 84.0866 55.9108 84.6593L54.3134 131.609C54.2939 132.181 54.0478 132.614 53.7638 132.574ZM22.7205 132.574L24.5 132.328C24.7841 132.289 24.9985 131.793 24.979 131.22L23.3817 84.271C23.3622 83.6983 23.1161 83.2659 22.8321 83.3052L21.0525 83.5513C20.7685 83.5906 20.554 84.0866 20.5735 84.6593L22.1709 131.609C22.1903 132.181 22.4364 132.614 22.7205 132.574Z" fill="#455B50"/>
<path d="M52.2871 59.5166L49.9694 67.3745L29.935 61.4654C29.8284 61.4339 29.7291 61.3818 29.6426 61.312C29.5562 61.2421 29.4843 61.1559 29.4312 61.0583C29.378 60.9607 29.3446 60.8536 29.3329 60.7431C29.3211 60.6325 29.3313 60.5208 29.3627 60.4142L38.7388 28.6255C38.7702 28.5189 38.8224 28.4195 38.8922 28.333C38.9621 28.2466 39.0482 28.1747 39.1459 28.1216C39.2435 28.0684 39.3506 28.035 39.4611 28.0233C39.5716 28.0115 39.6834 28.0217 39.79 28.0531L66.9029 36.0501C67.0095 36.0815 67.1089 36.1337 67.1954 36.2035C67.2818 36.2734 67.3537 36.3596 67.4068 36.4572C67.46 36.5548 67.4934 36.6619 67.5051 36.7724C67.5169 36.8829 67.5067 36.9947 67.4753 37.1013L60.1774 61.8439L52.2871 59.5166Z" fill="#BFCDC8"/>
<path d="M49.9688 67.3744L52.2864 59.5166L60.1767 61.8437L49.9688 67.3744Z" fill="#9AAAA2"/>
<path d="M51.5589 38.1109L41.5742 35.166L40.2298 39.7242L50.2145 42.6691L51.5589 38.1109Z" fill="#9AAAA2"/>
<path d="M53.3711 41.123L61.0178 43.3786" stroke="#9AAAA2" stroke-width="3" stroke-miterlimit="10"/>
<path d="M35.8164 55.0469L43.4635 57.3021" stroke="#9AAAA2" stroke-width="3" stroke-miterlimit="10"/>
<path d="M39.1816 43.2793L59.2972 49.2125" stroke="#9AAAA2" stroke-width="3" stroke-miterlimit="10"/>
<path d="M38.0264 47.1924L58.142 53.1256" stroke="#9AAAA2" stroke-width="3" stroke-miterlimit="10"/>
<path d="M36.873 51.1055L56.9886 57.0387" stroke="#9AAAA2" stroke-width="3" stroke-miterlimit="10"/>
</svg>
