<svg width="20" height="20" viewBox="0 0 20 20" fill="none" xmlns="http://www.w3.org/2000/svg">
<path d="M20 17.7778V2.22222C20 1 19 0 17.7778 0H2.22222C1 0 0 1 0 2.22222V17.7778C0 19 1 20 2.22222 20H17.7778C19 20 20 19 20 17.7778ZM6.55556 12.2L8.88889 15.0111L12.3333 10.5778C12.5556 10.2889 13 10.2889 13.2222 10.5889L17.1222 15.7889C17.4 16.1556 17.1333 16.6778 16.6778 16.6778H3.35556C2.88889 16.6778 2.63333 16.1444 2.92222 15.7778L5.68889 12.2222C5.9 11.9333 6.32222 11.9222 6.55556 12.2Z" fill="#616161"/>
</svg>
