<svg width="158" height="154" viewBox="0 0 158 154" fill="none" xmlns="http://www.w3.org/2000/svg">
<g filter="url(#filter0_d_571_43979)">
<path d="M16 0H142V71C142 105.794 113.794 134 79 134V134C44.2061 134 16 105.794 16 71V0Z" fill="white"/>
<path d="M64.0968 92.2032H53.5174C52.2566 92.209 51.0066 91.9738 49.8367 91.5105C48.7102 91.0692 47.6808 90.4176 46.805 89.5916C45.9327 88.759 45.2372 87.7636 44.7592 86.6634C44.251 85.4885 43.9963 84.2222 44.0114 82.9451C44.0007 81.6787 44.249 80.4232 44.7412 79.2533C45.2094 78.1473 45.8965 77.1444 46.7623 76.303C47.6262 75.4646 48.6486 74.8014 49.7716 74.3509C50.9612 73.8768 52.2342 73.6391 53.5174 73.6515C54.7628 73.6445 55.9974 73.8791 57.1509 74.3421C58.2506 74.7845 59.2544 75.4298 60.1085 76.2433C60.9651 77.0591 61.6516 78.032 62.1296 79.1073C62.6285 80.2395 62.8787 81.4629 62.8639 82.6972C62.8609 83.4619 62.7652 84.2235 62.5787 84.9658C62.4025 85.6904 62.1323 86.3897 61.7748 87.0463C61.4235 87.6873 60.9769 88.273 60.4498 88.7837C59.9276 89.2914 59.3197 89.7055 58.6533 90.0077V90.0564H64.0991L64.0968 92.2032ZM53.4163 89.8948C54.3658 89.9056 55.3069 89.7193 56.1785 89.3481C56.9941 88.9983 57.7273 88.4858 58.3321 87.8431C58.9407 87.186 59.4122 86.4174 59.72 85.5811C60.0537 84.6899 60.2218 83.7467 60.2163 82.7968C60.2239 81.8792 60.0531 80.9686 59.7132 80.1143C59.3936 79.3045 58.9134 78.5656 58.3007 77.9409C57.6675 77.3016 56.9095 76.7955 56.0723 76.4532C55.2351 76.1108 54.3361 75.9393 53.4298 75.9489C52.507 75.939 51.5924 76.1215 50.7462 76.4845C49.9436 76.8274 49.2167 77.3214 48.6061 77.9387C47.9937 78.5608 47.5087 79.2935 47.1778 80.0966C46.8274 80.9353 46.6503 81.8345 46.6568 82.7415C46.6484 83.6911 46.8142 84.6343 47.1464 85.5258C47.4547 86.3653 47.9253 87.138 48.5319 87.801C49.1477 88.4733 49.9019 89.0085 50.7442 89.3707C51.5865 89.7329 52.4974 89.9138 53.4163 89.9014V89.8948Z" fill="#212121"/>
<path d="M73.843 92.6724C72.5189 92.6856 71.2055 92.4372 69.9804 91.942C68.8461 91.4816 67.819 90.7977 66.9622 89.9324C66.113 89.063 65.4447 88.0381 64.995 86.9157C64.0443 84.4994 64.0443 81.8201 64.995 79.4038C65.4471 78.2817 66.1177 77.2576 66.9689 76.3893C67.8267 75.5257 68.8546 74.8441 69.9894 74.3863C72.4705 73.4169 75.2334 73.4169 77.7146 74.3863C78.8489 74.8468 79.8759 75.5306 80.7328 76.396C81.5818 77.266 82.2507 78.2906 82.7022 79.4127C83.6516 81.8292 83.6516 84.508 82.7022 86.9245C82.2495 88.0459 81.5799 89.0697 80.7305 89.939C79.8713 90.8019 78.8429 91.4834 77.7078 91.942C76.482 92.4375 75.1678 92.6859 73.843 92.6724ZM73.843 90.3728C74.7861 90.3917 75.7225 90.2129 76.5901 89.8481C77.4577 89.4833 78.2368 88.9409 78.8756 88.2569C79.4923 87.5942 79.9686 86.817 80.2769 85.9706C80.9342 84.1618 80.9342 82.1843 80.2769 80.3754C79.9681 79.5292 79.4926 78.7515 78.8778 78.0869C78.2348 77.4063 77.4564 76.8634 76.5911 76.4922C75.7258 76.1211 74.7923 75.9295 73.8486 75.9295C72.9049 75.9295 71.9714 76.1211 71.1061 76.4922C70.2409 76.8634 69.4625 77.4063 68.8194 78.0869C68.2028 78.7501 67.7257 79.5272 67.4158 80.3732C66.76 82.1823 66.76 84.1593 67.4158 85.9684C67.7238 86.8145 68.1985 87.5923 68.8126 88.2569C69.4513 88.9405 70.2295 89.4832 71.0961 89.8494C71.9627 90.2156 72.898 90.397 73.8408 90.3817L73.843 90.3728Z" fill="#212121"/>
<path d="M85.7093 74.1318H92.1657C93.1552 74.1002 94.1413 74.2619 95.0671 74.6077C95.7497 74.8707 96.3636 75.2814 96.8637 75.8095C97.2939 76.2778 97.609 76.8374 97.7844 77.4451C97.9509 78.0143 98.0371 78.6034 98.0404 79.1958C98.0423 79.7678 97.9364 80.3351 97.7283 80.869C97.5213 81.4043 97.2169 81.8979 96.83 82.3254C96.4258 82.7755 95.9428 83.1504 95.404 83.432C94.8204 83.7352 94.1814 83.921 93.5243 83.9787L98.7343 92.2364H95.6218L90.962 84.2686H88.1796V92.2364H85.6936L85.7093 74.1318ZM88.1908 82.0996H91.4583C91.9405 82.1001 92.4219 82.0616 92.8978 81.9845C93.3427 81.9195 93.7723 81.7772 94.1666 81.564C94.5439 81.3572 94.8551 81.0506 95.0649 80.6787C95.2875 80.2112 95.4028 79.7011 95.4028 79.1847C95.4028 78.6683 95.2875 78.1583 95.0649 77.6908C94.8551 77.3189 94.5439 77.0122 94.1666 76.8055C93.7701 76.5984 93.3399 76.4613 92.8955 76.4004C92.4196 76.3237 91.9383 76.2845 91.456 76.2831H88.1953L88.1908 82.0996Z" fill="#212121"/>
<path d="M100.255 74.1451H106.711C107.7 74.1135 108.687 74.2752 109.612 74.6209C110.294 74.8847 110.908 75.2953 111.409 75.8227C111.84 76.2903 112.154 76.8502 112.327 77.4583C112.496 78.028 112.585 78.6178 112.59 79.2113C112.591 79.7831 112.485 80.3503 112.278 80.8845C112.07 81.4194 111.766 81.9128 111.38 82.3408C110.975 82.7915 110.491 83.1664 109.951 83.4475C109.368 83.7512 108.729 83.9371 108.072 83.9941L113.275 92.2541H110.165L105.505 84.2863H102.734V92.2541H100.237L100.255 74.1451ZM102.736 82.1129H106.001C106.483 82.1134 106.965 82.0749 107.441 81.9978C107.886 81.9318 108.316 81.7895 108.712 81.5772C109.089 81.3705 109.4 81.0638 109.61 80.6919C109.831 80.224 109.945 79.7141 109.945 79.198C109.945 78.6818 109.831 78.172 109.61 77.704C109.4 77.3321 109.089 77.0255 108.712 76.8187C108.317 76.6057 107.888 76.4627 107.443 76.396C106.967 76.3193 106.486 76.2801 106.004 76.2787H102.741L102.736 82.1129Z" fill="#212121"/>
<path d="M59.7874 52.9153C58.6182 52.8118 57.4431 52.7888 56.2706 52.8467C56.0146 52.8467 55.7631 52.8688 55.5183 52.8843C56.4796 54.7728 57.6752 56.5363 59.0777 58.1342C61.8131 57.054 64.6154 56.1462 67.4676 55.4163C65.2511 53.8227 62.4508 53.141 59.7874 52.9153Z" fill="#8DA69D"/>
<path d="M90.1468 39.5648C89.5629 39.7241 88.9813 39.9034 88.3929 40.0959C87.9438 40.242 87.4946 40.3992 87.0455 40.5652C86.657 40.7112 86.2685 40.8706 85.88 41.0277L85.4309 41.2092C84.1239 41.3619 82.873 41.4792 81.6783 41.5523C80.4836 41.6253 79.3518 41.6652 78.2828 41.6652C75.826 41.6652 73.7622 41.4638 72.1296 41.0654C71.4569 40.911 70.8022 40.6885 70.1759 40.4014L69.7806 40.2199C69.1052 39.9235 68.4149 39.6613 67.7123 39.4342C67.4339 39.3434 67.1487 39.2593 66.8657 39.1774C66.9193 38.8325 66.9905 38.4905 67.0791 38.1527C67.1622 37.8163 67.2632 37.4887 67.3777 37.1656C68.3549 34.3911 70.3649 32.0861 73.0011 30.717C75.6373 29.3478 78.7028 29.0168 81.5772 29.7909C81.6805 29.8175 81.7771 29.844 81.8759 29.8772C81.9747 29.9104 82.1005 29.9481 82.2285 29.9879C82.7302 30.1557 83.2201 30.3561 83.6949 30.5877C84.0071 30.7404 84.3147 30.9086 84.6089 31.0901C85.3523 31.5423 86.0429 32.0737 86.6682 32.6748C87.4206 33.3972 88.071 34.2161 88.6018 35.1094C88.6894 35.2577 88.7769 35.406 88.86 35.5521C89.0866 35.9688 89.2832 36.4008 89.4484 36.8446C89.4866 36.931 89.5203 37.0195 89.5517 37.1058C89.7034 37.5217 89.8279 37.9468 89.9245 38.3784C90.0204 38.7696 90.0946 39.1656 90.1468 39.5648Z" fill="#FCBA2D"/>
<path d="M98.3053 45.8395L100.652 53.2208H97.7484H100.654L98.3053 45.8395ZM94.9907 49.5002L94.7145 50.3656L94.9952 49.5002L96.0551 46.1803L97.0455 43.0441L96.0394 46.1892L94.9907 49.5002ZM96.5739 54.7811L96.895 54.7236L96.5739 54.7789V54.7811ZM96.5739 53.2208H93.7937H96.5649H96.5739ZM90.1467 39.5692C89.5673 39.7286 88.9812 39.9079 88.3928 40.1049C88.9812 39.9079 89.5628 39.7286 90.1467 39.5692ZM89.5606 37.1103C89.7102 37.5269 89.8347 37.9518 89.9334 38.3829C89.8368 37.9513 89.7123 37.5262 89.5606 37.1103V37.1103ZM88.8689 35.561C89.0928 35.979 89.2894 36.4108 89.4573 36.8535C89.2923 36.4081 89.0957 35.9747 88.8689 35.5566V35.561ZM86.6771 32.6837C87.4282 33.4073 88.0784 34.226 88.6107 35.1183C88.0802 34.2234 87.4299 33.403 86.6771 32.6793V32.6837ZM81.6917 41.5612C82.8864 41.4882 84.1373 41.3708 85.4442 41.2181L85.8934 41.0366C85.7452 41.0964 85.5969 41.1495 85.4442 41.2115C84.1373 41.3664 82.8864 41.4815 81.6917 41.5568V41.5612ZM85.8889 41.0366C86.2774 40.8795 86.6659 40.7201 87.0544 40.5741C86.6666 40.7172 86.2781 40.8699 85.8889 41.0322V41.0366ZM75.6036 61.4741V65.0729V61.4829H78.523L75.6036 61.4741ZM71.6647 61.4741H74.4269H71.6714H71.6647ZM70.1848 40.3904C70.0545 40.3306 69.922 40.2708 69.7918 40.2155L70.187 40.397C70.8133 40.6841 71.468 40.9066 72.1408 41.061C71.4691 40.9039 70.8147 40.6822 70.187 40.3992L70.1848 40.3904ZM67.0857 38.1483C67.1711 37.8119 67.2699 37.4843 67.3844 37.1612C67.2721 37.4932 67.1711 37.823 67.088 38.1572L67.0857 38.1483ZM66.8724 39.1731C66.9263 38.8256 66.9981 38.4825 67.0812 38.1483C66.9946 38.4892 66.9257 38.8342 66.8746 39.1819L66.8724 39.1731ZM60.2521 46.8974L60.6743 48.2542L61.0403 49.3829L60.681 48.2564L60.2521 46.8974ZM58.0872 40.0739L56.3289 45.5916L58.0872 40.0827V40.0739Z" fill="#8DA69D"/>
<path d="M97.9258 40.771L97.5598 39.64H97.9123C100.137 39.6311 102.35 39.9497 104.479 40.5851C104.351 36.9717 103.448 33.4261 101.827 30.1827C101.69 29.9237 101.55 29.6626 101.411 29.3859C99.3821 25.6986 96.4676 22.5572 92.9224 20.2362C92.6978 20.0879 92.4733 19.964 92.2487 19.8157C88.8094 17.7087 84.9119 16.4359 80.8765 16.1018C80.488 16.0642 80.1107 16.042 79.7065 16.0155C79.3494 16.0044 78.9946 16.0044 78.6443 16.0044C74.9393 15.9923 71.2759 16.7739 67.9077 18.2952C67.5034 18.47 67.1104 18.6559 66.7332 18.8551C62.0995 21.2237 58.3023 24.9198 55.8416 29.4567C55.4254 30.2151 55.0473 30.9994 54.7075 31.8094C53.7417 34.1342 53.1361 36.5889 52.9109 39.0911C54.3397 38.99 55.7729 38.9619 57.2047 39.007L56.8364 40.1646C56.5467 40.1646 56.2817 40.1491 56.0279 40.1491C54.456 40.1491 53.277 40.2243 52.8211 40.262C52.8211 40.6736 52.7986 41.072 52.7986 41.4837C52.7962 42.6242 52.8712 43.7637 53.0232 44.8943C53.6161 44.9541 54.3706 45.0537 55.2442 45.1555L54.8782 46.2754C54.2471 46.2024 53.679 46.1382 53.2118 46.074C53.5696 48.0254 54.163 49.9276 54.9792 51.74C55.3947 51.7024 55.8101 51.6758 56.2682 51.6648C57.4422 51.612 58.6183 51.6334 59.7895 51.729C62.9492 51.9879 66.3469 52.8732 68.9227 55.0865C70.1623 54.8121 71.4244 54.5774 72.6865 54.4026L72.3092 55.6088C67.8627 56.2839 63.4567 57.7026 59.9197 59.0571C62.5356 61.7716 65.7269 63.884 69.2661 65.2436C72.8053 66.6032 76.6052 67.1767 80.395 66.923C84.1848 66.6694 87.8712 65.5949 91.1914 63.7762C94.5116 61.9575 97.3838 59.4393 99.6033 56.4012C97.3824 57.2356 92.0286 58.4308 82.9313 55.9032C81.2363 55.4626 79.4922 55.2321 77.7393 55.2171L77.3732 54.0617C79.3524 54.0378 81.3257 54.2791 83.239 54.7789C85.8031 55.5093 88.4372 55.9758 91.0989 56.171C87.5058 53.6567 81.8916 51.6758 76.1493 50.1819L75.5452 48.2541C77.8059 46.5968 80.1909 45.1112 82.6798 43.8098C67.8583 44.8943 71.1976 41.0964 59.374 40.2686L58.9968 39.0712C72.4125 39.8702 67.71 44.465 85.7474 42.3491C89.2732 40.8418 93.0482 39.8104 96.9018 39.6599L96.5357 40.8308C89.0845 41.2402 81.923 45.098 76.4256 49.0465C78.7251 49.6573 80.9484 50.3014 83.0346 51.0384C84.2316 50.0557 89.1227 46.3905 94.5258 47.0789L94.1845 48.2121C89.9536 47.7871 85.9742 50.2903 84.3349 51.4966C87.8831 52.8555 90.9507 54.4247 93.0482 56.2418C93.8723 56.2418 94.6651 56.1887 95.4106 56.129V56.1157C95.6779 56.0913 95.9429 56.067 96.1809 56.0294C96.2191 55.9807 97.4699 55.8324 98.6512 55.4805L98.8555 55.434C98.8783 55.4167 98.9042 55.404 98.9319 55.3964C99.3813 55.2696 99.81 55.0803 100.205 54.8342L100.43 55.195C103.034 51.1973 104.443 46.5573 104.494 41.8068C102.373 41.1252 100.157 40.7757 97.9258 40.771V40.771ZM75.0916 50.7308L78.523 61.474H75.6036V65.064H74.4202V61.4829H71.658L75.0826 50.7286L75.0916 50.7308ZM61.2671 45.9943C65.4239 46.6406 70.0613 47.4861 74.5437 48.5706L74.1911 49.6927C69.6301 48.5861 65.123 47.7738 61.586 47.2116L61.2447 46.1537L61.2671 45.9943ZM60.0432 46.2334L60.2521 46.8974L60.6855 48.2563L61.0448 49.3829H58.615V50.5161C58.4331 50.505 58.2444 50.5006 58.0603 50.4962H57.4427V49.3895H55.1207L56.3244 45.607L58.0872 40.0738L58.5049 41.362L60.0432 46.2334ZM90.1355 39.578C89.5516 39.7374 88.97 39.9167 88.3816 40.1092C87.9325 40.2553 87.4833 40.4125 87.0342 40.5785C86.4975 40.7799 85.9608 40.9968 85.4241 41.2225C84.1171 41.3752 82.8662 41.4925 81.6715 41.5656C80.4768 41.6386 79.345 41.6785 78.276 41.6785C75.8192 41.6785 73.7554 41.477 72.1228 41.0787C71.4501 40.9243 70.7953 40.7018 70.1691 40.4147L69.7738 40.2332C69.0984 39.9368 68.4081 39.6746 67.7055 39.4475C67.4271 39.3567 67.1419 39.2726 66.8589 39.1907C66.9125 38.8458 66.9837 38.5038 67.0723 38.166C67.1553 37.8296 67.2564 37.502 67.3709 37.1789C68.1735 34.907 69.6727 32.9372 71.6609 31.5418C73.6492 30.1465 76.0283 29.3947 78.4691 29.3903C79.5172 29.3885 80.5606 29.5278 81.5704 29.8042C81.6737 29.8308 81.7703 29.8573 81.8691 29.8905C81.9679 29.9237 82.0937 29.9614 82.2217 30.0012C82.7234 30.169 83.2133 30.3694 83.6881 30.601C84.0003 30.7537 84.3079 30.9219 84.6021 31.1034C85.3455 31.5556 86.0361 32.087 86.6614 32.6881C87.4138 33.4105 88.0642 34.2294 88.595 35.1227C88.6825 35.271 88.7701 35.4193 88.8532 35.5654C89.0798 35.9821 89.2764 36.414 89.4416 36.8579C89.4798 36.9442 89.5134 37.0328 89.5449 37.1191C89.6966 37.535 89.8211 37.9601 89.9177 38.3917C90.0104 38.7816 90.0816 39.1762 90.131 39.5736L90.1355 39.578ZM97.7372 53.234V54.5376C97.4564 54.6172 97.1715 54.6823 96.8838 54.7324L96.5627 54.7899V53.2406H93.7937L94.7167 50.3855L94.9929 49.5201L96.0507 46.2002L97.0477 43.0618L97.2341 42.4797L98.3076 45.8505L100.657 53.2362L97.7372 53.234Z" fill="#8DA69D"/>
<path d="M78.5141 61.4807H75.6127V65.0728H74.4404V61.4807H71.667L71.6715 61.474L75.0917 50.7263L78.5096 61.474L78.5141 61.4807Z" fill="#212121"/>
<path d="M61.0449 49.3718H58.6151V50.5072C58.4332 50.4962 58.2446 50.4918 58.0604 50.4873C57.8763 50.4829 57.6854 50.4873 57.4967 50.4873H57.4428V49.3807H55.123L56.3245 45.6004L58.0874 40.0738L58.4961 41.3553L60.0411 46.2246L60.2544 46.8885L60.6879 48.2475L61.0449 49.3718Z" fill="#212121"/>
<path d="M100.654 53.2252H97.7484V54.5244C97.4924 54.5952 97.2094 54.6594 96.895 54.7236L96.5739 54.7811V53.2318H93.7937L94.7055 50.3767L94.9817 49.5113L96.0394 46.1914L97.0365 43.0529L97.2229 42.4708L98.2963 45.8417L100.654 53.2252Z" fill="#212121"/>
<path d="M49.5537 98.0884C49.3862 97.8855 49.1722 97.7246 48.9293 97.6192C48.6583 97.5058 48.3659 97.45 48.0715 97.4554C47.766 97.4522 47.4633 97.5134 47.1837 97.6348C46.9041 97.7562 46.654 97.9349 46.4501 98.1592C46.241 98.3897 46.0793 98.6581 45.974 98.9494C45.7434 99.5939 45.7434 100.297 45.974 100.941C46.0806 101.229 46.2397 101.494 46.4434 101.725C46.6383 101.945 46.8777 102.122 47.1463 102.245C47.419 102.368 47.7156 102.43 48.0154 102.429C48.3428 102.433 48.6663 102.357 48.9563 102.207C49.2285 102.061 49.4599 101.852 49.63 101.596L51.0695 102.654C50.7517 103.101 50.3149 103.451 49.8074 103.668C49.3122 103.884 48.7768 103.995 48.2354 103.996C47.6584 104.001 47.085 103.905 46.5422 103.712C46.0414 103.535 45.5828 103.259 45.1948 102.9C44.8139 102.539 44.5147 102.102 44.3167 101.619C43.8944 100.537 43.8944 99.3401 44.3167 98.2588C44.5141 97.7746 44.8134 97.3371 45.1948 96.9751C45.5834 96.6171 46.0418 96.3408 46.5422 96.1628C47.085 95.9698 47.6584 95.8739 48.2354 95.8795C48.4673 95.8805 48.6986 95.9005 48.9271 95.9393C49.1686 95.9798 49.4056 96.0436 49.6345 96.1296C49.8722 96.2198 50.0983 96.3371 50.3082 96.4793C50.5269 96.6282 50.7214 96.8088 50.8853 97.0149L49.5537 98.0884Z" fill="#8DA69D"/>
<path d="M59.0193 96.0808H60.4476L63.8565 103.803H61.905L61.2313 102.167H58.1907L57.5372 103.803H55.6328L59.0193 96.0808ZM59.693 98.3273L58.7408 100.727H60.6564L59.693 98.3273Z" fill="#8DA69D"/>
<path d="M69.071 96.0809H72.1027C72.4801 96.0796 72.8565 96.1181 73.2256 96.196C73.5609 96.2628 73.8802 96.392 74.1665 96.5767C74.4388 96.7591 74.6598 97.0066 74.8088 97.296C74.9787 97.648 75.0603 98.0351 75.0468 98.4247C75.0618 98.9228 74.9103 99.412 74.6157 99.8169C74.3062 100.211 73.8538 100.471 73.3536 100.543L75.3455 103.803H73.275L71.6379 100.718H70.7845V103.803H69.0598L69.071 96.0809ZM70.7957 99.2769H71.8153C71.9702 99.2769 72.1342 99.2769 72.3071 99.2614C72.4686 99.2527 72.6278 99.2191 72.7787 99.1618C72.918 99.111 73.0407 99.0238 73.1335 98.9095C73.2336 98.7662 73.2818 98.5939 73.2705 98.4203C73.2793 98.2554 73.237 98.0918 73.1492 97.9511C73.0714 97.8367 72.9645 97.7444 72.8393 97.6833C72.7035 97.6183 72.5579 97.5757 72.4081 97.5571C72.2504 97.5353 72.0913 97.5242 71.9321 97.5239H70.8092L70.7957 99.2769Z" fill="#8DA69D"/>
<path d="M80.6699 96.0808H83.5893C83.9319 96.0815 84.274 96.1051 84.6134 96.1517C84.9355 96.1919 85.248 96.2878 85.5363 96.435C85.8094 96.5726 86.0415 96.7778 86.21 97.0303C86.3938 97.3364 86.482 97.6889 86.4638 98.044C86.4787 98.438 86.3469 98.8237 86.0933 99.1285C85.8348 99.4238 85.4945 99.6384 85.1141 99.746V99.7682C85.3594 99.8024 85.5971 99.8772 85.817 99.9895C86.0218 100.09 86.206 100.226 86.3605 100.392C86.5134 100.559 86.6317 100.754 86.7086 100.966C86.7904 101.189 86.8315 101.425 86.8298 101.663C86.8434 102.021 86.7514 102.375 86.5649 102.683C86.3916 102.954 86.1562 103.182 85.8777 103.347C85.5856 103.519 85.2659 103.641 84.9322 103.708C84.5882 103.78 84.2375 103.816 83.8858 103.816H80.6699V96.0808ZM82.3969 99.1684H83.6455C83.7777 99.1682 83.9096 99.1534 84.0385 99.1241C84.1626 99.0971 84.2811 99.0492 84.3888 98.9825C84.492 98.9165 84.5775 98.8269 84.6381 98.7213C84.7036 98.6002 84.7361 98.4645 84.7324 98.3273C84.7372 98.1872 84.7005 98.0488 84.6268 97.9289C84.5574 97.8269 84.4643 97.7426 84.3551 97.6833C84.2368 97.6226 84.1094 97.5808 83.9778 97.5593C83.8432 97.5332 83.7063 97.5199 83.5691 97.5195H82.3969V99.1684ZM82.3969 102.364H83.9464C84.0816 102.364 84.2163 102.349 84.3484 102.32C84.4813 102.293 84.6078 102.241 84.7211 102.167C84.8317 102.094 84.9239 101.998 84.9906 101.884C85.0638 101.754 85.1003 101.608 85.0962 101.459C85.1039 101.3 85.0555 101.144 84.9592 101.016C84.8656 100.904 84.7453 100.816 84.6089 100.76C84.465 100.701 84.314 100.661 84.1597 100.64C84.011 100.619 83.8609 100.608 83.7106 100.607H82.4058L82.3969 102.364Z" fill="#8DA69D"/>
<path d="M91.8489 99.9431C91.8397 99.3681 91.9465 98.7971 92.1633 98.2632C92.3615 97.7788 92.6615 97.3413 93.0437 96.9795C93.4317 96.6208 93.8903 96.3444 94.3911 96.1672C95.4874 95.7895 96.6813 95.7895 97.7776 96.1672C98.2779 96.3451 98.7364 96.6215 99.125 96.9795C99.5064 97.3419 99.8063 97.7793 100.005 98.2632C100.425 99.345 100.425 100.541 100.005 101.623C99.8057 102.106 99.5059 102.542 99.125 102.904C98.737 103.263 98.2784 103.54 97.7776 103.717C96.6813 104.094 95.4874 104.094 94.3911 103.717C93.8899 103.54 93.4311 103.264 93.0437 102.904C92.6621 102.543 92.3621 102.106 92.1633 101.623C91.947 101.089 91.8401 100.518 91.8489 99.9431V99.9431ZM93.6455 99.9431C93.6412 100.283 93.699 100.621 93.8162 100.941C93.9246 101.233 94.0927 101.5 94.3102 101.725C94.5261 101.95 94.7878 102.127 95.0782 102.245C95.7229 102.49 96.4368 102.49 97.0814 102.245C97.3725 102.127 97.635 101.95 97.8517 101.725C98.0678 101.499 98.2351 101.233 98.3435 100.941C98.5741 100.297 98.5741 99.5938 98.3435 98.9493C98.2362 98.6555 98.0688 98.3866 97.8517 98.1592C97.6343 97.9356 97.3719 97.7592 97.0814 97.6413C96.4374 97.3934 95.7223 97.3934 95.0782 97.6413C94.7884 97.7592 94.5267 97.9356 94.3102 98.1592C94.0916 98.3859 93.9234 98.655 93.8162 98.9493C93.6983 99.2677 93.6389 99.6042 93.641 99.9431H93.6455Z" fill="#8DA69D"/>
<path d="M105.905 96.0808H108.252L111.582 101.448H111.604V96.0808H113.331V103.803H111.086L107.665 98.3052H107.643V103.803H105.916L105.905 96.0808Z" fill="#8DA69D"/>
</g>
<defs>
<filter id="filter0_d_571_43979" x="0" y="-12" width="158" height="166" filterUnits="userSpaceOnUse" color-interpolation-filters="sRGB">
<feFlood flood-opacity="0" result="BackgroundImageFix"/>
<feColorMatrix in="SourceAlpha" type="matrix" values="0 0 0 0 0 0 0 0 0 0 0 0 0 0 0 0 0 0 127 0" result="hardAlpha"/>
<feOffset dy="4"/>
<feGaussianBlur stdDeviation="8"/>
<feComposite in2="hardAlpha" operator="out"/>
<feColorMatrix type="matrix" values="0 0 0 0 0.0745098 0 0 0 0 0.168627 0 0 0 0 0.137255 0 0 0 0.1 0"/>
<feBlend mode="normal" in2="BackgroundImageFix" result="effect1_dropShadow_571_43979"/>
<feBlend mode="normal" in="SourceGraphic" in2="effect1_dropShadow_571_43979" result="shape"/>
</filter>
</defs>
</svg>
