<?xml version="1.0" encoding="UTF-8"?>
<svg width="22px" height="22px" viewBox="0 0 22 22" version="1.1" xmlns="http://www.w3.org/2000/svg" xmlns:xlink="http://www.w3.org/1999/xlink">
    <title>Artboard</title>
    <g id="Artboard" stroke="none" stroke-width="1" fill="none" fill-rule="evenodd">
        <g id="icons(1)" transform="translate(0.000000, 4.000000)" fill-rule="nonzero">
            <path d="M20.9,0 L1.1,0 C0.49259375,0 0,0.547323333 0,1.22221917 L0,13.444475 C0,14.119325 0.49259375,14.6666667 1.1,14.6666667 L20.9,14.6666667 C21.5073833,14.6666667 22,14.119325 22,13.444475 L22,1.22221917 C22,0.547323333 21.5073833,0 20.9,0 Z M20.35,10.3888583 C19.1348667,10.3888583 18.15,11.483175 18.15,12.8333333 L3.85,12.8333333 C3.85,11.483175 2.86516083,10.3888583 1.65,10.3888583 L1.65,4.27778083 C2.86516083,4.27778083 3.85,3.18351 3.85,1.83333333 L18.15,1.83333333 C18.15,3.18351 19.1348667,4.27778083 20.35,4.27778083 L20.35,10.3888583 Z" id="Shape" fill="#FFFFFF"></path>
            <circle id="Oval" fill="#71C705" cx="11" cy="7.33333333" r="3.66666667"></circle>
            <path d="M10.5651333,8.56615833 L10.5651333,6.18025833 C10.5651333,6.025525 10.5501,5.92643333 10.5199417,5.88289167 C10.4958333,5.83458333 10.4476167,5.81038333 10.3752917,5.81038333 C10.333125,5.81038333 10.2397167,5.82734167 10.0950667,5.86116667 C9.95646667,5.89013333 9.83895,5.92643333 9.74251667,5.969975 C9.66414167,5.93605833 9.625,5.89013333 9.625,5.83210833 C9.625,5.83210833 9.625,5.829725 9.625,5.82486667 C9.625,5.81038333 9.625,5.7959 9.625,5.78141667 C9.625,5.76684167 9.63105,5.75721667 9.64305833,5.75235833 C9.980575,5.63630833 10.3000333,5.52511667 10.6013417,5.41877417 C10.9087,5.30757333 11.1617917,5.21813417 11.3607083,5.1504475 C11.559625,5.07793 11.6620167,5.04166667 11.6680667,5.04166667 L11.686125,5.04166667 C11.7162833,5.04166667 11.7403917,5.06100833 11.75845,5.0996825 C11.7765083,5.13352583 11.7886083,5.16011833 11.7946583,5.17946 C11.7946583,5.17946 11.7795333,5.23263583 11.7494667,5.33900583 C11.7253583,5.44536667 11.7132583,5.6122 11.7132583,5.83944167 L11.7132583,8.56615833 C11.7132583,8.71603333 11.7162833,8.84656667 11.7223333,8.95785 C11.7282917,9.06904167 11.7494667,9.16089167 11.7855833,9.2334 C11.8036417,9.26236667 11.8488333,9.28656667 11.9211583,9.30590833 C11.9995333,9.32525 12.0809333,9.33973333 12.1652667,9.34945 C12.2496,9.35421667 12.3099167,9.359075 12.3460333,9.36393333 C12.3701417,9.38813333 12.3792167,9.43158333 12.3731667,9.49446667 C12.3731667,9.55735 12.3641833,9.6008 12.3460333,9.625 C12.1773667,9.61051667 11.97845,9.59841667 11.7494667,9.5887 C11.5264417,9.579075 11.3215667,9.57421667 11.1346583,9.57421667 C10.9478417,9.57421667 10.7429667,9.579075 10.5199417,9.5887 C10.2970083,9.59841667 10.0980917,9.61051667 9.92328333,9.625 C9.905225,9.6008 9.89321667,9.55735 9.88716667,9.49446667 C9.88716667,9.43158333 9.899175,9.38813333 9.92328333,9.36393333 C9.96554167,9.359075 10.0287917,9.35421667 10.113125,9.34945 C10.19755,9.33973333 10.2788583,9.32525 10.3572333,9.30590833 C10.4356083,9.28656667 10.4808,9.26236667 10.4928083,9.2334 C10.5290167,9.16089167 10.5501,9.06904167 10.55615,8.95785 C10.5622,8.84656667 10.5651333,8.71603333 10.5651333,8.56615833 Z" id="Path" fill="#FFFFFF"></path>
        </g>
    </g>
</svg>