<?xml version="1.0" encoding="UTF-8"?>
<svg width="22px" height="22px" viewBox="0 0 22 22" version="1.1" xmlns="http://www.w3.org/2000/svg" xmlns:xlink="http://www.w3.org/1999/xlink">
    <title>Artboard</title>
    <g id="Artboard" stroke="none" stroke-width="1" fill="none" fill-rule="evenodd" stroke-linecap="round" stroke-linejoin="round">
        <g id="Group(2)" transform="translate(1.000000, 3.000000)" stroke-width="2">
            <line x1="6" y1="16" x2="14" y2="16" id="Path" stroke="#71C705"></line>
            <path d="M0,2 C0,1.46957 0.21071,0.96086 0.58579,0.58579 C0.96086,0.21071 1.46957,0 2,0 L18,0 C18.5304,0 19.0391,0.21071 19.4142,0.58579 C19.7893,0.96086 20,1.46957 20,2 L20,11 C20,11.5304 19.7893,12.0391 19.4142,12.4142 C19.0391,12.7893 18.5304,13 18,13 L2,13 C1.46957,13 0.96086,12.7893 0.58579,12.4142 C0.21071,12.0391 0,11.5304 0,11 L0,2 Z" id="Path" stroke="#FFFFFF"></path>
        </g>
    </g>
</svg>