<svg width="167" height="186" viewBox="0 0 167 186" fill="none" xmlns="http://www.w3.org/2000/svg">
<ellipse cx="155.391" cy="90.9656" rx="4.64408" ry="4.66485" fill="#255ABB"/>
<g filter="url(#filter0_d_331_8666)">
<path d="M99.4662 58.1591C81.4681 40.0828 61.733 30.5968 55.3846 36.9713C54.6879 37.7043 54.1367 38.5535 53.8505 39.5252L53.8121 39.6719L47.7241 64.4193L41.6868 89.3016L34.5303 118.765L30 137.424L56.8219 127.229L90.9373 114.263L118.154 103.919C118.154 103.919 119.866 103.099 120.56 102.438C126.908 96.061 117.464 76.2377 99.4662 58.1591Z" fill="url(#paint0_linear_331_8666)"/>
<ellipse rx="46.1886" ry="16.2905" transform="matrix(-0.705527 -0.708683 0.705527 -0.708683 88.9706 68.6948)" fill="#EAFAE6"/>
<path fill-rule="evenodd" clip-rule="evenodd" d="M115.683 104.726C112.434 104.784 109.209 104.141 106.228 102.842L83.9828 111.297L49.8558 124.251L31.5558 131.206L30 137.614L56.8219 127.419L90.9373 114.453L116.268 104.609L115.683 104.726Z" fill="#42992D"/>
<path d="M48.4333 67.6413C48.1732 66.643 47.9076 65.581 47.6916 64.5547L41.6494 89.4676L42.1522 95.1802C43.1643 107.309 48.3511 118.704 56.8205 127.407L90.9383 114.453C90.7525 114.395 90.5598 114.353 90.374 114.29C69.686 106.498 54.0491 89.1057 48.4333 67.6413Z" fill="white"/>
</g>
<path d="M90.9375 114.453C90.7518 114.395 90.5591 114.353 90.3733 114.29C88.1383 113.44 85.9492 112.472 83.8158 111.391L53.0859 123.069C54.251 124.587 55.4982 126.039 56.8221 127.419L90.9375 114.453Z" fill="#F6F6E7"/>
<path fill-rule="evenodd" clip-rule="evenodd" d="M166.267 126.338C165.162 122.406 162.619 119.039 159.147 116.912L158.191 115.471C152.826 107.413 144.391 101.934 134.875 100.326C133.605 100.144 132.429 101.031 132.248 102.306C132.073 103.538 132.892 104.691 134.109 104.926C140.973 106.096 147.228 109.599 151.828 114.848C147.961 115.547 144.578 117.88 142.54 121.255C140.039 125.754 141.643 131.437 146.122 133.949C150.601 136.462 156.259 134.851 158.759 130.352C159.715 128.499 160.23 126.45 160.266 124.364C162.737 127.969 162.935 132.676 160.775 136.477C160.121 137.585 160.484 139.016 161.587 139.673C162.69 140.33 164.115 139.965 164.769 138.857C164.79 138.821 164.81 138.785 164.829 138.748C166.939 134.97 167.456 130.501 166.267 126.338ZM154.71 128.075C153.47 130.331 150.645 131.15 148.4 129.905C146.154 128.66 145.339 125.823 146.578 123.567C146.585 123.555 146.592 123.542 146.599 123.529C147.969 121.276 150.28 119.765 152.887 119.42C153.291 119.409 153.69 119.502 154.048 119.69C156.008 120.789 156.112 125.552 154.71 128.075Z" fill="#4CB034"/>
<path d="M143.78 86.3012C143.502 86.3004 143.227 86.2505 142.965 86.1543C131.177 81.7183 118.435 80.4746 106.017 82.5484L97.7226 83.9362C96.453 84.1181 95.2769 83.2318 95.0958 81.9565C94.9208 80.7244 95.7396 79.5713 96.9563 79.3366L105.253 77.9372C118.475 75.7304 132.043 77.0538 144.595 81.774C145.802 82.2096 146.429 83.5455 145.995 84.7578C145.66 85.6942 144.771 86.3141 143.78 86.3012Z" fill="#F4C96D"/>
<path d="M101.985 72.3053C100.703 72.2977 99.6693 71.2473 99.6768 69.9592C99.682 69.07 100.19 68.2612 100.987 67.8737L149.75 44.5494C150.908 43.9955 152.293 44.4894 152.845 45.6527C153.396 46.816 152.905 48.2079 151.747 48.7618V48.7618L102.984 72.0861C102.671 72.2327 102.33 72.3077 101.985 72.3053Z" fill="#F4C96D"/>
<path d="M74.8293 67.6411C74.5231 67.6417 74.2197 67.5808 73.9376 67.4615C72.754 66.9656 72.1946 65.5999 72.6884 64.411V64.4107L76.0646 56.2729C81.2593 43.8046 82.4705 30.0235 79.5314 16.8339C79.2301 15.5817 79.9967 14.3216 81.2431 14.0189C82.4897 13.7163 83.7442 14.4863 84.0455 15.7382C84.0521 15.7659 84.0582 15.7936 84.064 15.8216C87.2127 29.9506 85.9144 44.7131 80.3488 58.0688L76.9702 66.2067C76.6097 67.0746 75.7656 67.6402 74.8293 67.6411V67.6411Z" fill="#F4C96D"/>
<path d="M85.7287 69.9736C84.4463 69.9733 83.4069 68.9286 83.4072 67.6406C83.4075 66.9799 83.6865 66.3504 84.1752 65.9081L107.396 44.9163C108.365 44.0734 109.832 44.1798 110.671 45.1539C111.487 46.1009 111.413 47.526 110.503 48.3823L87.2821 69.3741C86.856 69.7599 86.3025 69.9733 85.7287 69.9736V69.9736Z" fill="#FFCC33"/>
<path d="M153.07 60.6438C151.788 60.6438 150.748 59.5994 150.748 58.3113V55.9789C150.748 54.6908 151.788 53.6465 153.07 53.6465C154.352 53.6465 155.392 54.6908 155.392 55.9789V58.3113C155.392 59.5994 154.353 60.6438 153.07 60.6438Z" fill="#F4C96D"/>
<path d="M161.28 57.2266C160.664 57.2283 160.072 56.9822 159.638 56.5432L157.997 54.8941C157.106 53.9676 157.131 52.4909 158.053 51.5961C158.953 50.7232 160.38 50.7232 161.28 51.5961L162.922 53.2451C163.828 54.1562 163.828 55.6329 162.921 56.5437C162.486 56.9808 161.896 57.2266 161.28 57.2266V57.2266Z" fill="#F4C96D"/>
<path d="M164.678 48.9813H162.356C161.074 48.9813 160.034 47.9369 160.034 46.6488C160.034 45.3608 161.074 44.3164 162.356 44.3164H164.678C165.961 44.3164 167 45.3608 167 46.6488C167 47.9369 165.961 48.9813 164.678 48.9813Z" fill="#F4C96D"/>
<path d="M159.637 42.385C158.355 42.3847 157.315 41.3403 157.315 40.052C157.315 39.4336 157.56 38.8406 157.995 38.4035L159.637 36.7545C160.559 35.8594 162.029 35.8851 162.92 36.8116C163.789 37.7155 163.789 39.1484 162.92 40.0525L161.279 41.7016C160.843 42.1389 160.253 42.385 159.637 42.385V42.385Z" fill="#F4C96D"/>
<path d="M146.501 42.3848C145.885 42.3848 145.294 42.1387 144.859 41.7014L143.217 40.0523C142.326 39.1258 142.352 37.6491 143.274 36.7543C144.174 35.8814 145.601 35.8814 146.501 36.7543L148.142 38.4033C149.049 39.3144 149.049 40.7911 148.142 41.702C147.707 42.139 147.116 42.3848 146.501 42.3848V42.3848Z" fill="#F4C96D"/>
<path d="M153.07 39.6516C151.788 39.6516 150.748 38.6072 150.748 37.3191V34.9867C150.748 33.6986 151.788 32.6543 153.07 32.6543C154.352 32.6543 155.392 33.6986 155.392 34.9867V37.3191C155.392 38.6072 154.353 39.6516 153.07 39.6516Z" fill="#F4C96D"/>
<path d="M121.698 27.9395C124.917 27.9395 127.527 30.5755 127.527 33.795V33.795C127.527 37.0145 124.917 39.6506 121.698 39.6506V39.6506C118.478 39.6506 115.868 37.0145 115.868 33.795V33.795C115.868 30.5755 118.478 27.9395 121.698 27.9395V27.9395Z" fill="#5988DE"/>
<ellipse cx="99.6617" cy="25.657" rx="4.64408" ry="4.66485" fill="#71C705"/>
<path fill-rule="evenodd" clip-rule="evenodd" d="M41.6102 2.33203L45.1978 9.63486L53.2204 10.8057L47.4153 16.4899L48.7853 24.5157L41.6102 20.7255L34.4351 24.5157L35.8051 16.4899L30 10.8057L38.0227 9.63486L41.6102 2.33203Z" fill="#71C705"/>
<path fill-rule="evenodd" clip-rule="evenodd" d="M143.78 18.6594C142.498 18.6594 141.458 17.615 141.458 16.327V13.9945C141.458 12.7065 142.498 11.6621 143.78 11.6621C145.062 11.6621 146.102 12.7065 146.102 13.9945V16.327C146.102 17.615 145.063 18.6594 143.78 18.6594Z" fill="#212121"/>
<path fill-rule="evenodd" clip-rule="evenodd" d="M143.78 6.99728C142.498 6.99728 141.458 5.95293 141.458 4.66485V2.33243C141.458 1.04434 142.498 0 143.78 0C145.062 0 146.102 1.04434 146.102 2.33243V4.66485C146.102 5.95293 145.063 6.99728 143.78 6.99728Z" fill="#212121"/>
<path fill-rule="evenodd" clip-rule="evenodd" d="M150.746 11.6609H148.424C147.141 11.6609 146.102 10.6166 146.102 9.32852C146.102 8.04044 147.141 6.99609 148.424 6.99609H150.746C152.028 6.99609 153.068 8.04044 153.068 9.32852C153.068 10.6166 152.028 11.6609 150.746 11.6609Z" fill="#212121"/>
<path fill-rule="evenodd" clip-rule="evenodd" d="M139.135 11.6609H136.813C135.531 11.6609 134.491 10.6166 134.491 9.32852C134.491 8.04044 135.531 6.99609 136.813 6.99609H139.135C140.418 6.99609 141.457 8.04044 141.457 9.32852C141.457 10.6166 140.418 11.6609 139.135 11.6609Z" fill="#212121"/>
<path d="M78.7613 9.3297C76.1963 9.3297 74.1172 7.24131 74.1172 4.66485C74.1172 2.0884 76.1963 0 78.7613 0C81.3263 0 83.4054 2.0884 83.4054 4.66485C83.4054 7.24131 81.3263 9.3297 78.7613 9.3297Z" fill="#255ABB"/>
<defs>
<filter id="filter0_d_331_8666" x="0" y="17.9766" width="157.535" height="167.637" filterUnits="userSpaceOnUse" color-interpolation-filters="sRGB">
<feFlood flood-opacity="0" result="BackgroundImageFix"/>
<feColorMatrix in="SourceAlpha" type="matrix" values="0 0 0 0 0 0 0 0 0 0 0 0 0 0 0 0 0 0 127 0" result="hardAlpha"/>
<feOffset dx="2" dy="16"/>
<feGaussianBlur stdDeviation="16"/>
<feColorMatrix type="matrix" values="0 0 0 0 0.262745 0 0 0 0 0.403922 0 0 0 0 0.360686 0 0 0 0.16 0"/>
<feBlend mode="normal" in2="BackgroundImageFix" result="effect1_dropShadow_331_8666"/>
<feBlend mode="normal" in="SourceGraphic" in2="effect1_dropShadow_331_8666" result="shape"/>
</filter>
<linearGradient id="paint0_linear_331_8666" x1="122.537" y1="137.424" x2="122.537" y2="34.9863" gradientUnits="userSpaceOnUse">
<stop stop-color="#4CB034"/>
<stop offset="1" stop-color="#A2FF8C"/>
</linearGradient>
</defs>
</svg>
