<?xml version="1.0" encoding="UTF-8"?>
<svg width="19px" height="21px" viewBox="0 0 19 21" version="1.1" xmlns="http://www.w3.org/2000/svg" xmlns:xlink="http://www.w3.org/1999/xlink">
    <title>Icons 1</title>
    <g id="Page-1" stroke="none" stroke-width="1" fill="none" fill-rule="evenodd">
        <g id="Icons-1" transform="translate(1.000000, 1.000000)">
            <path d="M15.75,6.75 L0.75,6.75 C0.33579,6.75 0,7.08579 0,7.5 L0,18 C0,18.4142 0.33579,18.75 0.75,18.75 L15.75,18.75 C16.1642,18.75 16.5,18.4142 16.5,18 L16.5,7.5 C16.5,7.08579 16.1642,6.75 15.75,6.75 Z" id="Path" stroke="#ADADAD" stroke-width="1.5" stroke-linecap="round" stroke-linejoin="round"></path>
            <path d="M4.875,6.75 L4.875,3.375 C4.875,2.47989 5.23058,1.62145 5.86351,0.98851 C6.4965,0.35558 7.3549,0 8.25,0 C9.1451,0 10.0035,0.35558 10.6365,0.98851 C11.2694,1.62145 11.625,2.47989 11.625,3.375 L11.625,6.75" id="Path" stroke="#ADADAD" stroke-width="1.5" stroke-linecap="round" stroke-linejoin="round"></path>
            <path d="M8.25,13.875 C8.8713,13.875 9.375,13.3713 9.375,12.75 C9.375,12.1287 8.8713,11.625 8.25,11.625 C7.6287,11.625 7.125,12.1287 7.125,12.75 C7.125,13.3713 7.6287,13.875 8.25,13.875 Z" id="Path" fill="#ADADAD" fill-rule="nonzero"></path>
        </g>
    </g>
</svg>