<?xml version="1.0" encoding="UTF-8"?>
<svg width="22px" height="22px" viewBox="0 0 22 22" version="1.1" xmlns="http://www.w3.org/2000/svg" xmlns:xlink="http://www.w3.org/1999/xlink">
    <title>Artboard</title>
    <g id="Artboard" stroke="none" stroke-width="1" fill="none" fill-rule="evenodd" stroke-linecap="round" stroke-linejoin="round">
        <g id="Group" transform="translate(4.000000, 2.000000)" stroke-width="2">
            <path d="M12,18 L2,18 C1.46957,18 0.96086,17.7893 0.58579,17.4142 C0.21071,17.0391 0,16.5304 0,16 L0,2 C0,1.46957 0.21071,0.96086 0.58579,0.58579 C0.96086,0.21071 1.46957,0 2,0 L7.586,0 C7.8512,0 8.10551,0.10545 8.293,0.293 L13.707,5.707 C13.8946,5.89449 14,6.1488 14,6.414 L14,16 C14,16.5304 13.7893,17.0391 13.4142,17.4142 C13.0391,17.7893 12.5304,18 12,18 Z" id="Path" stroke="#FFFFFF"></path>
            <path d="M4,14 L4,12 M7,14 L7,10 M10,14 L10,8" id="Shape" stroke="#71C705"></path>
        </g>
    </g>
</svg>