<?xml version="1.0" encoding="UTF-8"?>
<svg width="21px" height="24px" viewBox="0 0 21 24" version="1.1" xmlns="http://www.w3.org/2000/svg" xmlns:xlink="http://www.w3.org/1999/xlink">
    <title>Icons 1</title>
    <g id="Page-1" stroke="none" stroke-width="1" fill="none" fill-rule="evenodd">
        <g id="Icons-1" transform="translate(1.000000, 1.000000)" stroke="#ADADAD" stroke-width="1.5">
            <path d="M18.7483083,0.609590643 C18.6540083,0.515610643 18.5365083,0.448350643 18.4076083,0.414740643 C18.2785083,0.381060643 18.1428083,0.382360643 18.0143083,0.418550643 M18.7483083,0.609590643 L18.0143083,0.418550643 M18.7488083,0.610140643 C18.8429083,0.704490643 18.9101083,0.822120643 18.9437083,0.950950643 C18.9774083,1.08006064 18.9761083,1.21585064 18.9400083,1.34434064 L14.0131083,18.8121406 L14.0119083,18.8162406 M18.7488083,0.610140643 L14.0119083,18.8162406 M18.0143083,0.418550643 L0.546398341,5.34539064 L0.546388341,5.34539064 C0.399428341,5.38684064 0.268628341,5.47215064 0.171478341,5.58991064 L0.171468341,5.58993064 C0.0742983409,5.70769064 0.0153983409,5.85231064 0.00262834092,6.00446064 C-0.0101416591,6.15661064 0.0238283409,6.30904064 0.100018341,6.44137064 L0.100028341,6.44140064 C0.176178341,6.57368064 0.290888341,6.67955064 0.428888341,6.74491064 L0.428958341,6.74494064 L7.25755834,9.97954064 L11.8790083,5.35811064 L11.8791083,5.35805064 C12.1604083,5.07679064 12.5419083,4.91875064 12.9397083,4.91875064 C13.3376083,4.91875064 13.7191083,5.07679064 14.0004083,5.35805064 L14.0006083,5.35822064 C14.2818083,5.63954064 14.4397083,6.02103064 14.4397083,6.41880064 C14.4397083,6.81658064 14.2818083,7.19804064 14.0006083,7.47934064 L14.0005083,7.47954064 L9.37890834,12.1009406 L12.6135083,18.9295406 L12.6155083,18.9336406 C12.6749083,19.0611406 12.7694083,19.1687406 12.8879083,19.2439406 L12.8880083,19.2439406 C13.0067083,19.3193406 13.1444083,19.3591406 13.2847083,19.3586453 L13.2870083,19.3586453 C13.3090083,19.3586453 13.3316083,19.3577406 13.3551083,19.3557406 L13.3585083,19.3555406 C13.5094083,19.3437406 13.6532083,19.2856406 13.7703083,19.1891406 L18.0143083,0.418550643 Z M14.0119083,18.8162406 C13.9717083,18.9623406 13.8873083,19.0925406 13.7704083,19.1890406 L14.0119083,18.8162406 Z" id="Shape"></path>
        </g>
    </g>
</svg>