<svg width="140" height="140" viewBox="0 0 140 140" fill="none" xmlns="http://www.w3.org/2000/svg">
<rect width="140" height="140" rx="70" fill="#F4F6F4"/>
<g clip-path="url(#clip0_625_4754)">
<g clip-path="url(#clip1_625_4754)">
<path d="M55.7906 102.204H45.1091C43.8361 102.209 42.5741 101.974 41.3929 101.511C40.2555 101.069 39.2162 100.418 38.332 99.5919C37.4512 98.7593 36.7491 97.7639 36.2664 96.6637C35.7533 95.4888 35.4962 94.2225 35.5114 92.9454C35.5006 91.679 35.7513 90.4235 36.2483 89.2536C36.7209 88.1476 37.4146 87.1447 38.2889 86.3033C39.1611 85.4649 40.1933 84.8017 41.3271 84.3512C42.5282 83.8771 43.8135 83.6394 45.1091 83.6518C46.3665 83.6448 47.6131 83.8794 48.7776 84.3424C49.8879 84.7848 50.9014 85.4301 51.7638 86.2436C52.6286 87.0594 53.3218 88.0323 53.8044 89.1076C54.308 90.2398 54.5607 91.4632 54.5458 92.6975C54.5427 93.4622 54.4461 94.2238 54.2578 94.9661C54.0799 95.6907 53.8071 96.39 53.4461 97.0466C53.0915 97.6876 52.6406 98.2732 52.1084 98.784C51.5811 99.2917 50.9673 99.7058 50.2945 100.008V100.057H55.7928L55.7906 102.204ZM45.007 99.8951C45.9657 99.9059 46.9159 99.7196 47.7959 99.3484C48.6193 98.9986 49.3596 98.4861 49.9703 97.8434C50.5847 97.1863 51.0608 96.4177 51.3715 95.5814C51.7084 94.6902 51.8781 93.747 51.8726 92.7971C51.8802 91.8795 51.7078 90.9689 51.3647 90.1146C51.042 89.3048 50.5572 88.5659 49.9385 87.9412C49.2993 87.3019 48.5339 86.7958 47.6886 86.4535C46.8433 86.1111 45.9357 85.9396 45.0206 85.9492C44.0889 85.9393 43.1655 86.1218 42.3112 86.4848C41.5009 86.8277 40.7669 87.3217 40.1504 87.939C39.5321 88.5611 39.0425 89.2938 38.7083 90.0969C38.3545 90.9356 38.1757 91.8348 38.1823 92.7418C38.1738 93.6914 38.3412 94.6346 38.6766 95.5261C38.988 96.3656 39.463 97.1383 40.0756 97.8013C40.6972 98.4736 41.4587 99.0088 42.3091 99.371C43.1595 99.7332 44.0793 99.9141 45.007 99.9017V99.8951Z" fill="#212121"/>
<path d="M65.6308 102.672C64.2939 102.686 62.9679 102.437 61.7309 101.942C60.5856 101.482 59.5487 100.798 58.6836 99.9323C57.8262 99.0629 57.1515 98.0381 56.6974 96.9156C55.7376 94.4993 55.7376 91.8201 56.6974 89.4038C57.1539 88.2816 57.831 87.2576 58.6904 86.3893C59.5564 85.5257 60.5942 84.844 61.74 84.3863C64.245 83.4168 67.0346 83.4168 69.5397 84.3863C70.685 84.8468 71.7219 85.5306 72.587 86.3959C73.4442 87.2659 74.1196 88.2906 74.5755 89.4126C75.534 91.8292 75.534 94.5079 74.5755 96.9245C74.1184 98.0458 73.4423 99.0696 72.5847 99.939C71.7172 100.802 70.6789 101.483 69.5329 101.942C68.2952 102.437 66.9684 102.686 65.6308 102.672ZM65.6308 100.373C66.5829 100.392 67.5284 100.213 68.4044 99.848C69.2803 99.4832 70.0669 98.9409 70.7119 98.2569C71.3345 97.5942 71.8155 96.8169 72.1267 95.9706C72.7903 94.1618 72.7903 92.1842 72.1267 90.3754C71.8149 89.5292 71.3349 88.7514 70.7142 88.0869C70.0649 87.4062 69.279 86.8634 68.4054 86.4922C67.5318 86.121 66.5892 85.9295 65.6364 85.9295C64.6837 85.9295 63.7411 86.121 62.8675 86.4922C61.9939 86.8634 61.208 87.4062 60.5587 88.0869C59.9362 88.75 59.4545 89.5271 59.1416 90.3732C58.4795 92.1822 58.4795 94.1593 59.1416 95.9684C59.4526 96.8145 59.9319 97.5922 60.5519 98.2569C61.1968 98.9405 61.9824 99.4832 62.8574 99.8494C63.7323 100.216 64.6767 100.397 65.6285 100.382L65.6308 100.373Z" fill="#212121"/>
<path d="M77.6116 84.1318H84.1302C85.1293 84.1002 86.1249 84.2619 87.0596 84.6077C87.7488 84.8707 88.3687 85.2814 88.8735 85.8095C89.3079 86.2778 89.626 86.8374 89.8031 87.4451C89.9713 88.0143 90.0582 88.6034 90.0616 89.1958C90.0635 89.7678 89.9566 90.3351 89.7464 90.869C89.5375 91.4043 89.2301 91.8979 88.8395 92.3254C88.4314 92.7755 87.9437 93.1504 87.3997 93.432C86.8105 93.7352 86.1654 93.921 85.502 93.9787L90.7622 102.236H87.6197L82.9149 94.2686H80.1057V102.236H77.5957L77.6116 84.1318ZM80.117 92.0996H83.416C83.9029 92.1001 84.3889 92.0616 84.8694 91.9845C85.3185 91.9196 85.7523 91.7772 86.1504 91.564C86.5314 91.3572 86.8455 91.0506 87.0574 90.6787C87.2821 90.2112 87.3986 89.7011 87.3986 89.1847C87.3986 88.6683 87.2821 88.1583 87.0574 87.6908C86.8455 87.3189 86.5314 87.0122 86.1504 86.8055C85.7501 86.5984 85.3158 86.4613 84.8671 86.4004C84.3866 86.3237 83.9006 86.2845 83.4137 86.2831H80.1215L80.117 92.0996Z" fill="#212121"/>
<path d="M92.2972 84.1455H98.8158C99.8149 84.1139 100.811 84.2756 101.745 84.6213C102.434 84.8852 103.054 85.2957 103.559 85.8232C103.994 86.2907 104.312 86.8507 104.486 87.4588C104.657 88.0284 104.746 88.6182 104.752 89.2117C104.753 89.7836 104.646 90.3507 104.437 90.8849C104.227 91.4198 103.919 91.9132 103.53 92.3413C103.121 92.7919 102.633 93.1669 102.088 93.4479C101.499 93.7517 100.853 93.9375 100.19 93.9946L105.443 102.255H102.303L97.5983 94.2867H94.8003V102.255H92.2791L92.2972 84.1455ZM94.8026 92.1133H98.0993C98.5862 92.1138 99.0723 92.0753 99.5527 91.9982C100.002 91.9322 100.437 91.7899 100.836 91.5777C101.217 91.3709 101.531 91.0642 101.743 90.6924C101.966 90.2244 102.082 89.7145 102.082 89.1984C102.082 88.6823 101.966 88.1724 101.743 87.7044C101.531 87.3326 101.217 87.0259 100.836 86.8191C100.438 86.6062 100.004 86.4631 99.555 86.3964C99.0745 86.3197 98.5885 86.2805 98.1016 86.2791H94.8072L94.8026 92.1133Z" fill="#212121"/>
<path d="M51.4396 62.9151C50.2592 62.8116 49.0727 62.7887 47.889 62.8465C47.6305 62.8465 47.3765 62.8686 47.1294 62.8841C48.0999 64.7726 49.3071 66.5361 50.7231 68.134C53.4849 67.0538 56.3142 66.146 59.194 65.4161C56.9561 63.8226 54.1287 63.1409 51.4396 62.9151Z" fill="#8DA69D"/>
<path d="M82.0918 49.5643C81.5023 49.7237 80.9151 49.9029 80.321 50.0955C79.8675 50.2416 79.4141 50.3987 78.9606 50.5647C78.5684 50.7108 78.1761 50.8701 77.7838 51.0273L77.3304 51.2088C76.0108 51.3615 74.7479 51.4788 73.5416 51.5518C72.3354 51.6249 71.1927 51.6647 70.1134 51.6647C67.6329 51.6647 65.5492 51.4633 63.9009 51.0649C63.2216 50.9106 62.5606 50.688 61.9283 50.4009L61.5292 50.2194C60.8473 49.9231 60.1503 49.6608 59.441 49.4337C59.1598 49.343 58.8719 49.2589 58.5862 49.177C58.6403 48.8321 58.7122 48.4901 58.8016 48.1522C58.8855 47.8158 58.9875 47.4882 59.1031 47.1651C60.0897 44.3907 62.1191 42.0856 64.7807 40.7165C67.4424 39.3474 70.5374 39.0164 73.4396 39.7905C73.5439 39.817 73.6414 39.8436 73.7412 39.8768C73.8409 39.91 73.9679 39.9476 74.0971 39.9874C74.6037 40.1552 75.0983 40.3556 75.5777 40.5872C75.8929 40.74 76.2035 40.9082 76.5005 41.0897C77.2511 41.5418 77.9483 42.0733 78.5797 42.6744C79.3394 43.3967 79.996 44.2156 80.5319 45.109C80.6203 45.2573 80.7087 45.4056 80.7926 45.5516C81.0214 45.9684 81.2199 46.4003 81.3867 46.8442C81.4252 46.9305 81.4592 47.019 81.491 47.1054C81.6441 47.5213 81.7698 47.9464 81.8673 48.378C81.9642 48.7692 82.0391 49.1652 82.0918 49.5643Z" fill="#FCBA2D"/>
<path d="M90.3291 55.8399L92.6985 63.2211H89.7668H92.7007L90.3291 55.8399ZM86.9825 59.5006L86.7036 60.366L86.987 59.5006L88.0572 56.1807L89.0571 53.0445L88.0413 56.1895L86.9825 59.5006ZM88.581 64.7815L88.9052 64.724L88.581 64.7793V64.7815ZM88.581 63.2211H85.774H88.5719H88.581ZM82.0918 49.5696C81.5068 49.729 80.915 49.9083 80.321 50.1052C80.915 49.9083 81.5023 49.729 82.0918 49.5696ZM81.5 47.1107C81.6511 47.5273 81.7768 47.9522 81.8764 48.3833C81.7789 47.9517 81.6532 47.5266 81.5 47.1107ZM80.8017 45.5614C81.0277 45.9794 81.2262 46.4112 81.3957 46.8539C81.2291 46.4085 81.0306 45.9751 80.8017 45.557V45.5614ZM78.5887 42.6841C79.3471 43.4077 80.0036 44.2264 80.5409 45.1187C80.0054 44.2238 79.3487 43.4034 78.5887 42.6797V42.6841ZM73.5552 51.5616C74.7614 51.4885 76.0244 51.3712 77.344 51.2185L77.7974 51.037C77.6478 51.0968 77.4981 51.1499 77.344 51.2119C76.0244 51.3668 74.7614 51.4819 73.5552 51.5572V51.5616ZM77.7929 51.037C78.1851 50.8799 78.5774 50.7205 78.9696 50.5745C78.5781 50.7176 78.1859 50.8703 77.7929 51.0326V51.037ZM67.4084 71.4745V75.0732V71.4833H70.356L67.4084 71.4745ZM63.4315 71.4745H66.2203H63.4383H63.4315ZM61.9373 50.3908C61.8058 50.331 61.672 50.2712 61.5405 50.2159L61.9396 50.3974C62.5719 50.6845 63.2329 50.907 63.9122 51.0614C63.234 50.9043 62.5734 50.6826 61.9396 50.3996L61.9373 50.3908ZM58.8084 48.1487C58.8945 47.8123 58.9943 47.4847 59.1099 47.1616C58.9966 47.4936 58.8945 47.8233 58.8106 48.1576L58.8084 48.1487ZM58.593 49.1735C58.6474 48.826 58.7199 48.4829 58.8038 48.1487C58.7164 48.4896 58.6468 48.8345 58.5952 49.1823L58.593 49.1735ZM51.9088 56.8978L52.3351 58.2545L52.7047 59.3833L52.3419 58.2568L51.9088 56.8978ZM49.7231 50.0743L47.9478 55.592L49.7231 50.0831V50.0743Z" fill="#8DA69D"/>
<path d="M89.946 50.7707L89.5764 49.6397H89.9324C92.1782 49.6308 94.4128 49.9493 96.5622 50.5847C96.4337 46.9714 95.521 43.4258 93.8844 40.1823C93.7461 39.9234 93.6055 39.6622 93.465 39.3855C91.4163 35.6982 88.4737 32.5568 84.8944 30.2358C84.6676 30.0875 84.4409 29.9636 84.2142 29.8153C80.7417 27.7083 76.8066 26.4355 72.7323 26.1014C72.34 26.0638 71.9591 26.0417 71.551 26.0151C71.1905 26.004 70.8323 26.004 70.4785 26.004C66.7378 25.9919 63.039 26.7735 59.6383 28.2948C59.2302 28.4696 58.8334 28.6556 58.4525 28.8548C53.7742 31.2234 49.9404 34.9194 47.4559 39.4564C47.0356 40.2148 46.654 40.999 46.3109 41.8091C45.3357 44.1338 44.7243 46.5885 44.497 49.0908C45.9396 48.9896 47.3866 48.9615 48.8321 49.0067L48.4603 50.1642C48.1678 50.1642 47.9003 50.1487 47.6441 50.1487C46.0569 50.1487 44.8665 50.224 44.4063 50.2616C44.4063 50.6733 44.3836 51.0717 44.3836 51.4833C44.3812 52.6239 44.4569 53.7633 44.6103 54.894C45.2089 54.9537 45.9707 55.0533 46.8527 55.1552L46.4832 56.2751C45.846 56.202 45.2724 56.1379 44.8008 56.0737C45.162 58.025 45.7611 59.9272 46.5852 61.7397C47.0047 61.702 47.4241 61.6755 47.8867 61.6644C49.0719 61.6116 50.2594 61.6331 51.4419 61.7286C54.632 61.9876 58.0625 62.8729 60.6632 65.0861C61.9148 64.8117 63.189 64.5771 64.4633 64.4022L64.0823 65.6085C59.593 66.2835 55.1445 67.7022 51.5734 69.0568C54.2145 71.7713 57.4366 73.8836 61.0099 75.2432C64.5832 76.6029 68.4198 77.1763 72.2461 76.9227C76.0725 76.669 79.7944 75.5945 83.1467 73.7758C86.4989 71.9571 89.3988 69.439 91.6397 66.4008C89.3973 67.2352 83.992 68.4304 74.8069 65.9028C73.0956 65.4622 71.3346 65.2317 69.5648 65.2167L69.1952 64.0614C71.1935 64.0375 73.1858 64.2787 75.1176 64.7785C77.7064 65.5089 80.3659 65.9755 83.0533 66.1707C79.4255 63.6564 73.7571 61.6755 67.9595 60.1815L67.3496 58.2537C69.632 56.5965 72.0401 55.1108 74.553 53.8095C59.5885 54.894 62.96 51.096 51.0224 50.2682L50.6415 49.0709C64.1867 49.8698 59.4388 54.4646 77.6502 52.3487C81.2099 50.8415 85.0213 49.8101 88.9121 49.6596L88.5425 50.8304C81.0195 51.2399 73.7889 55.0976 68.2384 59.0461C70.5602 59.657 72.8049 60.301 74.9112 61.0381C76.1197 60.0554 81.058 56.3902 86.5133 57.0785L86.1686 58.2117C81.8969 57.7867 77.8792 60.29 76.224 61.4962C79.8064 62.8552 82.9036 64.4244 85.0213 66.2415C85.8535 66.2415 86.6538 66.1884 87.4066 66.1286V66.1153C87.6764 66.091 87.944 66.0666 88.1843 66.029C88.2228 65.9803 89.4858 65.832 90.6784 65.4801L90.8847 65.4336C90.9077 65.4164 90.9339 65.4036 90.9618 65.396C91.4155 65.2693 91.8484 65.08 92.2474 64.8338L92.4741 65.1946C95.1035 61.1969 96.5258 56.5569 96.578 51.8065C94.4364 51.1248 92.1986 50.7753 89.946 50.7707ZM66.8916 60.7304L70.3561 71.4737H67.4086V75.0636H66.2137V71.4825H63.4248L66.8825 60.7282L66.8916 60.7304ZM52.9338 55.994C57.1307 56.6403 61.8127 57.4857 66.3384 58.5702L65.9824 59.6924C61.3774 58.5857 56.8268 57.7735 53.2557 57.2113L52.9111 56.1533L52.9338 55.994ZM51.6981 56.233L51.9089 56.897L52.3465 58.256L52.7093 59.3825H50.256V60.5157C50.0724 60.5047 49.8819 60.5002 49.696 60.4958H49.0725V59.3892H46.728L47.9433 55.6067L49.7232 50.0735L50.1449 51.3616L51.6981 56.233ZM82.0806 49.5777C81.4911 49.737 80.9038 49.9163 80.3098 50.1089C79.8563 50.255 79.4028 50.4121 78.9494 50.5781C78.4075 50.7795 77.8656 50.9964 77.3237 51.2222C76.0041 51.3749 74.7412 51.4922 73.5349 51.5652C72.3287 51.6383 71.186 51.6781 70.1067 51.6781C67.6262 51.6781 65.5425 51.4767 63.8942 51.0783C63.2149 50.9239 62.5539 50.7014 61.9216 50.4143L61.5225 50.2328C60.8406 49.9365 60.1436 49.6742 59.4343 49.4471C59.1531 49.3564 58.8652 49.2723 58.5795 49.1904C58.6336 48.8455 58.7055 48.5034 58.7949 48.1656C58.8788 47.8292 58.9808 47.5016 59.0964 47.1785C59.9068 44.9067 61.4204 42.9368 63.4278 41.5415C65.4353 40.1461 67.8373 39.3943 70.3017 39.39C71.3599 39.3882 72.4133 39.5274 73.4329 39.8038C73.5372 39.8304 73.6347 39.857 73.7345 39.8902C73.8342 39.9234 73.9612 39.961 74.0904 40.0008C74.597 40.1686 75.0916 40.369 75.571 40.6006C75.8862 40.7533 76.1968 40.9216 76.4938 41.103C77.2444 41.5552 77.9416 42.0866 78.573 42.6878C79.3327 43.4101 79.9893 44.229 80.5252 45.1224C80.6136 45.2707 80.702 45.4189 80.7859 45.565C81.0147 45.9818 81.2132 46.4137 81.38 46.8576C81.4185 46.9439 81.4525 47.0324 81.4843 47.1187C81.6374 47.5347 81.7632 47.9598 81.8607 48.3914C81.9543 48.7813 82.0262 49.1758 82.0761 49.5733L82.0806 49.5777ZM89.7556 63.2336V64.5373C89.4721 64.6169 89.1845 64.6819 88.894 64.732L88.5697 64.7896V63.2403H85.7741L86.706 60.3851L86.9849 59.5197L88.0528 56.1998L89.0595 53.0614L89.2477 52.4793L90.3315 55.8501L92.7031 63.2358L89.7556 63.2336Z" fill="#8DA69D"/>
<path d="M70.347 71.4809H67.4176V75.0731H66.234V71.4809H63.4338L63.4384 71.4743L66.8915 60.7266L70.3425 71.4743L70.347 71.4809Z" fill="#212121"/>
<path d="M52.7092 59.3722H50.256V60.5076C50.0723 60.4966 49.8818 60.4921 49.6959 60.4877C49.51 60.4833 49.3173 60.4877 49.1268 60.4877H49.0724V59.3811H46.7302L47.9433 55.6008L49.7231 50.0742L50.1358 51.3557L51.6957 56.2249L51.9111 56.8889L52.3487 58.2479L52.7092 59.3722Z" fill="#212121"/>
<path d="M92.7007 63.225H89.7667V64.5242C89.5082 64.5951 89.2226 64.6592 88.9051 64.7234L88.5809 64.781V63.2317H85.7739L86.6945 60.3765L86.9734 59.5111L88.0413 56.1912L89.048 53.0528L89.2362 52.4707L90.32 55.8415L92.7007 63.225Z" fill="#212121"/>
<path d="M41.1072 108.088C40.9381 107.885 40.7221 107.724 40.4769 107.619C40.2032 107.505 39.9081 107.45 39.6108 107.455C39.3023 107.452 38.9967 107.513 38.7144 107.634C38.4321 107.756 38.1796 107.935 37.9737 108.159C37.7626 108.389 37.5993 108.658 37.4931 108.949C37.2602 109.593 37.2602 110.296 37.4931 110.941C37.6007 111.228 37.7613 111.494 37.9669 111.724C38.1637 111.944 38.4055 112.121 38.6766 112.245C38.9519 112.367 39.2514 112.43 39.5541 112.428C39.8847 112.433 40.2113 112.357 40.5041 112.207C40.7789 112.061 41.0125 111.851 41.1843 111.596L42.6377 112.654C42.3168 113.1 41.8758 113.451 41.3634 113.668C40.8635 113.883 40.3229 113.995 39.7763 113.995C39.1937 114.001 38.6147 113.905 38.0667 113.712C37.5611 113.535 37.098 113.258 36.7063 112.9C36.3217 112.538 36.0196 112.101 35.8198 111.618C35.3934 110.537 35.3934 109.34 35.8198 108.258C36.0191 107.774 36.3212 107.337 36.7063 106.975C37.0987 106.617 37.5615 106.34 38.0667 106.162C38.6147 105.969 39.1937 105.873 39.7763 105.879C40.0104 105.88 40.2439 105.9 40.4746 105.939C40.7185 105.979 40.9577 106.043 41.1888 106.129C41.4288 106.219 41.6571 106.337 41.869 106.479C42.0898 106.628 42.2863 106.808 42.4518 107.015L41.1072 108.088Z" fill="#8DA69D"/>
<path d="M50.664 106.081H52.1061L55.5479 113.803H53.5776L52.8974 112.168H49.8274L49.1676 113.803H47.2449L50.664 106.081ZM51.3442 108.328L50.3829 110.727H52.3169L51.3442 108.328Z" fill="#8DA69D"/>
<path d="M60.8129 106.081H63.8738C64.2548 106.08 64.6349 106.118 65.0075 106.196C65.346 106.263 65.6684 106.392 65.9575 106.577C66.2324 106.759 66.4555 107.007 66.6059 107.296C66.7775 107.648 66.8599 108.035 66.8463 108.425C66.8614 108.923 66.7085 109.412 66.4109 109.817C66.0985 110.211 65.6417 110.471 65.1367 110.543L67.1478 113.803H65.0573L63.4044 110.718H62.5428V113.803H60.8015L60.8129 106.081ZM62.5542 109.277H63.5836C63.74 109.277 63.9055 109.277 64.0801 109.262C64.2432 109.253 64.4039 109.219 64.5563 109.162C64.6969 109.111 64.8208 109.024 64.9145 108.91C65.0155 108.766 65.0643 108.594 65.0528 108.421C65.0617 108.256 65.019 108.092 64.9304 107.951C64.8518 107.837 64.7439 107.745 64.6175 107.684C64.4804 107.619 64.3333 107.576 64.1821 107.557C64.0229 107.536 63.8623 107.524 63.7015 107.524H62.5678L62.5542 109.277Z" fill="#8DA69D"/>
<path d="M72.5237 106.081H75.4712C75.8171 106.082 76.1626 106.105 76.5051 106.152C76.8304 106.192 77.1459 106.288 77.437 106.435C77.7127 106.573 77.9471 106.778 78.1172 107.031C78.3028 107.337 78.3919 107.689 78.3734 108.044C78.3885 108.438 78.2554 108.824 77.9993 109.129C77.7383 109.424 77.3948 109.639 77.0108 109.746V109.768C77.2584 109.803 77.4984 109.877 77.7205 109.99C77.9272 110.09 78.1132 110.226 78.2691 110.393C78.4236 110.559 78.543 110.754 78.6206 110.966C78.7032 111.189 78.7447 111.425 78.743 111.663C78.7567 112.021 78.6638 112.376 78.4755 112.683C78.3005 112.954 78.0629 113.182 77.7817 113.347C77.4868 113.52 77.164 113.642 76.8271 113.708C76.4797 113.78 76.1256 113.816 75.7705 113.816H72.5237V106.081ZM74.2673 109.169H75.5279C75.6615 109.168 75.7946 109.154 75.9247 109.124C76.0501 109.097 76.1697 109.049 76.2784 108.983C76.3826 108.917 76.469 108.827 76.5301 108.721C76.5962 108.6 76.6291 108.465 76.6253 108.328C76.6302 108.187 76.5932 108.049 76.5188 107.929C76.4487 107.827 76.3546 107.743 76.2444 107.683C76.1249 107.623 75.9964 107.581 75.8635 107.56C75.7276 107.533 75.5894 107.52 75.4508 107.52H74.2673V109.169ZM74.2673 112.365H75.8317C75.9683 112.364 76.1043 112.349 76.2376 112.32C76.3718 112.293 76.4995 112.241 76.614 112.168C76.7256 112.095 76.8187 111.998 76.8861 111.884C76.96 111.755 76.9968 111.608 76.9926 111.459C77.0004 111.301 76.9515 111.144 76.8543 111.017C76.7598 110.904 76.6384 110.816 76.5006 110.76C76.3553 110.701 76.2029 110.661 76.0471 110.64C75.8969 110.619 75.7454 110.608 75.5937 110.607H74.2763L74.2673 112.365Z" fill="#8DA69D"/>
<path d="M83.8106 109.943C83.8013 109.368 83.9092 108.797 84.128 108.263C84.3281 107.779 84.6311 107.341 85.0169 106.979C85.4087 106.621 85.8717 106.344 86.3773 106.167C87.4841 105.789 88.6895 105.789 89.7964 106.167C90.3016 106.345 90.7645 106.621 91.1568 106.979C91.5419 107.342 91.8447 107.779 92.0456 108.263C92.469 109.345 92.469 110.541 92.0456 111.623C91.8441 112.106 91.5414 112.542 91.1568 112.904C90.7651 113.263 90.3021 113.54 89.7964 113.717C88.6895 114.094 87.4841 114.094 86.3773 113.717C85.8713 113.54 85.4081 113.264 85.0169 112.904C84.6316 112.543 84.3287 112.106 84.128 111.623C83.9096 111.089 83.8017 110.518 83.8106 109.943ZM85.6245 109.943C85.6202 110.283 85.6786 110.621 85.7968 110.941C85.9063 111.233 86.076 111.5 86.2956 111.725C86.5136 111.95 86.7779 112.127 87.0711 112.245C87.7219 112.49 88.4427 112.49 89.0936 112.245C89.3874 112.127 89.6525 111.95 89.8713 111.725C90.0894 111.499 90.2583 111.232 90.3678 110.941C90.6007 110.297 90.6007 109.594 90.3678 108.949C90.2595 108.655 90.0905 108.386 89.8713 108.159C89.6517 107.935 89.3869 107.759 89.0936 107.641C88.4433 107.393 87.7213 107.393 87.0711 107.641C86.7784 107.759 86.5142 107.935 86.2956 108.159C86.0749 108.386 85.9051 108.655 85.7968 108.949C85.6778 109.267 85.6179 109.604 85.62 109.943H85.6245Z" fill="#8DA69D"/>
<path d="M98.002 106.081H100.371L103.734 111.448H103.756V106.081H105.5V113.803H103.233L99.7796 108.305H99.7569V113.803H98.0133L98.002 106.081Z" fill="#8DA69D"/>
</g>
</g>
<defs>
<clipPath id="clip0_625_4754">
<rect width="70" height="90" fill="white" transform="translate(35 25)"/>
</clipPath>
<clipPath id="clip1_625_4754">
<rect width="70" height="88" fill="white" transform="translate(35.5 26)"/>
</clipPath>
</defs>
</svg>
