<?xml version="1.0" encoding="UTF-8"?>
<svg width="22px" height="22px" viewBox="0 0 22 22" version="1.1" xmlns="http://www.w3.org/2000/svg" xmlns:xlink="http://www.w3.org/1999/xlink">
    <title>Artboard</title>
    <g id="Artboard" stroke="none" stroke-width="1" fill="none" fill-rule="evenodd">
        <g id="icons" fill-rule="nonzero">
            <path d="M8,3 C3.58,3 0,6.58 0,11 C0,15.42 3.58,19 8,19 C12.42,19 16,15.42 16,11 C16,6.58 12.42,3 8,3 Z M8,17 C4.69,17 2,14.31 2,11 C2,7.69 4.69,5 8,5 C11.31,5 14,7.69 14,11 C14,14.31 11.31,17 8,17 Z" id="Shape" fill="#FFFFFF"></path>
            <polygon id="Path" fill="#71C705" points="22 4 19.25 2.75 18 0 16.75 2.75 14 4 16.75 5.25 18 8 19.25 5.25"></polygon>
            <polygon id="Path" fill="#71C705" points="22 18 19.25 16.75 18 14 16.75 16.75 14 18 16.75 19.25 18 22 19.25 19.25"></polygon>
            <polygon id="Path" fill="#71C705" points="9 9.5 11 9.5 11 8 5 8 5 9.5 7 9.5 7 14.5 9 14.5"></polygon>
        </g>
    </g>
</svg>