<svg width="24" height="20" viewBox="0 0 24 20" fill="none" xmlns="http://www.w3.org/2000/svg">
<path d="M20.3996 3.51908H18.8636L18.4796 2.34606C18.2307 1.65777 17.7689 1.0622 17.1583 0.641856C16.5477 0.221513 15.8185 -0.00278815 15.0717 2.61626e-05H8.92781C8.17369 0.00140529 7.43905 0.234258 6.82758 0.665721C6.21611 1.09718 5.75869 1.70547 5.51988 2.40472L5.13589 3.57773H3.59992C2.64517 3.57773 1.72951 3.94849 1.05439 4.60844C0.379277 5.26839 0 6.16348 0 7.09679V16.4809C0 17.4143 0.379277 18.3093 1.05439 18.9693C1.72951 19.6292 2.64517 20 3.59992 20H20.3996C21.3543 20 22.27 19.6292 22.9451 18.9693C23.6202 18.3093 23.9995 17.4143 23.9995 16.4809V7.09679C24.0075 6.62975 23.9202 6.16583 23.7429 5.73209C23.5655 5.29834 23.3016 4.90345 22.9666 4.57044C22.6315 4.23743 22.2319 3.97296 21.7912 3.79245C21.3505 3.61195 20.8774 3.51902 20.3996 3.51908ZM21.5996 16.4223C21.5996 16.7334 21.4731 17.0318 21.2481 17.2517C21.023 17.4717 20.7178 17.5953 20.3996 17.5953H3.59992C3.28167 17.5953 2.97645 17.4717 2.75141 17.2517C2.52638 17.0318 2.39995 16.7334 2.39995 16.4223V7.03814C2.39995 6.72704 2.52638 6.42867 2.75141 6.20869C2.97645 5.98871 3.28167 5.86512 3.59992 5.86512H5.99988C6.26155 5.87847 6.5205 5.80773 6.73718 5.6637C6.95386 5.51967 7.11636 5.31026 7.19985 5.06747L7.84784 3.14372C7.92834 2.91073 8.08171 2.70837 8.28627 2.56523C8.49084 2.4221 8.73625 2.34543 8.98781 2.34606H15.1317C15.3833 2.34543 15.6287 2.4221 15.8332 2.56523C16.0378 2.70837 16.1912 2.91073 16.2717 3.14372L16.9196 5.06747C16.9966 5.29122 17.1409 5.48705 17.3336 5.62936C17.5263 5.77167 17.7584 5.85384 17.9996 5.86512H20.3996C20.7178 5.86512 21.023 5.98871 21.2481 6.20869C21.4731 6.42867 21.5996 6.72704 21.5996 7.03814V16.4223ZM11.9998 5.86512C11.0504 5.86512 10.1224 6.14031 9.33307 6.65588C8.54373 7.17145 7.92851 7.90425 7.56522 8.76162C7.20193 9.61898 7.10687 10.5624 7.29208 11.4726C7.47728 12.3827 7.93443 13.2188 8.60571 13.875C9.27699 14.5312 10.1322 14.9781 11.0633 15.1591C11.9944 15.3402 12.9595 15.2472 13.8366 14.8921C14.7137 14.537 15.4633 13.9356 15.9907 13.164C16.5181 12.3924 16.7997 11.4852 16.7997 10.5572C16.7997 9.31278 16.2939 8.11933 15.3938 7.2394C14.4936 6.35946 13.2728 5.86512 11.9998 5.86512ZM11.9998 12.9032C11.5251 12.9032 11.0611 12.7656 10.6664 12.5079C10.2717 12.2501 9.96413 11.8837 9.78249 11.455C9.60084 11.0263 9.55331 10.5546 9.64591 10.0995C9.73852 9.64442 9.96709 9.2264 10.3027 8.8983C10.6384 8.5702 11.066 8.34676 11.5315 8.25624C11.9971 8.16572 12.4796 8.21217 12.9182 8.38974C13.3567 8.56731 13.7315 8.868 13.9952 9.25381C14.2589 9.63961 14.3997 10.0932 14.3997 10.5572C14.3997 11.1794 14.1468 11.7761 13.6968 12.2161C13.2467 12.6561 12.6363 12.9032 11.9998 12.9032Z" fill="#212121"/>
</svg>
