<svg width="20" height="20" viewBox="0 0 20 20" fill="none" xmlns="http://www.w3.org/2000/svg">
<path d="M10.0248 1.66664C11.9082 1.67499 13.7082 2.42499 15.0248 3.74166C16.3498 5.06666 17.0915 6.85833 17.0832 8.71666V8.75833C17.0332 11.2833 15.6165 13.6083 13.8498 15.425C12.8498 16.45 11.7415 17.3583 10.5332 18.125C10.2082 18.4 9.73317 18.4 9.40817 18.125C7.6165 16.9583 6.03317 15.4917 4.74984 13.7833C3.62484 12.3 2.98317 10.5167 2.9165 8.65833C2.93317 4.78333 6.1165 1.65833 10.0248 1.66664ZM10.0248 6.60833C8.78317 6.60833 7.78317 7.59999 7.78317 8.83333C7.78317 10.0508 8.7665 11.0333 9.99984 11.05H10.0248C10.6165 11.05 11.1832 10.825 11.5998 10.4167C12.0332 9.99166 12.2757 9.42583 12.2757 8.83333C12.2757 7.59999 11.2665 6.60833 10.0248 6.60833Z" fill="#616161"/>
</svg>
