<svg width="28" height="33" viewBox="0 0 28 33" fill="none" xmlns="http://www.w3.org/2000/svg">
<path d="M7.12243 3.60747L6.08171 3.3286C4.36742 2.86926 2.60535 3.88659 2.14601 5.60088L1.59154 7.6702C0.897404 10.2607 2.23122 12.9152 4.61171 13.9601C4.55095 17.454 6.64776 20.6987 9.94641 22.0388L9.37481 24.172L6.27082 23.3403C3.98511 22.7279 1.6357 24.0843 1.02322 26.37L0.744048 27.4119C0.590957 27.9833 0.930049 28.5707 1.50147 28.7238L15.9867 32.6051C16.5581 32.7582 17.1455 32.4191 17.2986 31.8477L17.5778 30.8058C18.1903 28.52 16.8339 26.1707 14.5481 25.5582L11.4441 24.7265L12.0157 22.5932C15.5425 23.082 18.981 21.3204 20.6751 18.264C23.2588 18.5484 25.7358 16.9142 26.4295 14.3255L26.984 12.2562C27.4433 10.5419 26.4259 8.77982 24.7117 8.32049L23.677 8.04326C24.2895 5.75754 22.9331 3.40813 20.6473 2.79566L12.37 0.577765C10.0843 -0.0346895 7.73489 1.32175 7.12243 3.60747ZM23.1226 10.1126L24.1572 10.3898C24.7286 10.5429 25.0678 11.1303 24.9146 11.7017L24.3602 13.771C23.9983 15.1216 22.8265 16.0399 21.5066 16.1434L23.1226 10.1126ZM6.56796 5.67679L4.95178 11.7085C3.85757 10.9585 3.299 9.57516 3.66086 8.22468L4.21534 6.15535C4.36845 5.58393 4.95581 5.24482 5.52724 5.39793L6.56796 5.67679Z" fill="#1F3602"/>
</svg>
