<svg width="102" height="16" viewBox="0 0 102 16" fill="none" xmlns="http://www.w3.org/2000/svg">
<path d="M28.7074 12.0786L28.9059 11.88L39.5615 1.2244V0.0992737H20.7322L20.7984 3.88831H31.9007L26.8377 8.95139L20.9307 14.8583V15.1727V15.1892C20.9307 15.2058 20.9307 15.2389 20.9307 15.2554V15.8511H39.8263V12.0786H28.7074Z" fill="#8BF406"/>
<path d="M41.6299 0.148895L41.481 15.9007H45.634L45.7498 10.788H56.3889V16H60.36V6.88312C60.36 6.43638 60.3269 4.41777 58.755 2.71353C56.9846 0.810736 54.6681 0.761098 54.2876 0.761098C54.4034 0.893466 55.148 1.82004 54.9163 2.99481C54.8005 3.52428 54.5358 3.90484 54.3538 4.10339C54.5689 4.18612 55.6774 4.66596 56.0911 5.84073C56.2731 6.35365 56.2565 6.8004 56.2235 7.09822C52.6826 7.09822 49.1252 7.09822 45.5844 7.09822V0.148895H41.6299Z" fill="#8BF406"/>
<path d="M48.0165 4.0703C48.9943 4.0703 49.7869 3.19616 49.7869 2.11787C49.7869 1.03957 48.9943 0.165436 48.0165 0.165436C47.0387 0.165436 46.2461 1.03957 46.2461 2.11787C46.2461 3.19616 47.0387 4.0703 48.0165 4.0703Z" fill="#8BF406"/>
<path d="M52.2192 4.10341C53.1969 4.10341 53.9896 3.22927 53.9896 2.15098C53.9896 1.07268 53.1969 0.198547 52.2192 0.198547C51.2414 0.198547 50.4487 1.07268 50.4487 2.15098C50.4487 3.22927 51.2414 4.10341 52.2192 4.10341Z" fill="#8BF406"/>
<path d="M62.3123 0.0661981V15.9669H66.2502V3.92142H77.0382C77.4022 5.0631 77.1706 6.18822 76.4591 6.75079C76.1282 7.01553 75.7476 7.09826 75.4332 7.1148C72.5873 7.1148 69.7414 7.1148 66.8955 7.1148V10.5398H70.5356L73.911 15.8842H78.5108L75.2347 10.6887C75.7311 10.7715 77.0217 10.9204 78.3784 10.242C80.546 9.14996 81.0754 6.85007 81.1416 6.51915C81.1416 4.36816 81.1416 2.21718 81.1416 0.0496521H62.3123V0.0661981Z" fill="#8BF406"/>
<path d="M100.583 2.36608C98.7632 0.033092 96.0165 0 95.6691 0C91.5491 0.033092 87.4292 0.0496381 83.3092 0.0827301V15.9669H87.2802V10.7218H97.6877V15.9669H101.874V6.8666C101.923 6.40331 102.072 4.26887 100.583 2.36608ZM97.6381 7.06515H87.0321V3.90486H94.8418C95.0403 3.92141 96.0993 4.02068 96.8935 4.96381C97.6381 5.84074 97.6381 6.83351 97.6381 7.06515Z" fill="#8BF406"/>
<path d="M6.45295 0.297815C6.15512 0.314361 2.44881 0.678374 0.810755 3.80557C-0.033092 5.39399 0.0661841 6.94931 0.148914 7.64425C0.0827301 10.3247 0.0496381 13.2864 0 15.9669H4.15305L4.30197 11.0031H15.09V15.8511H19.243V0.132355L6.45295 0.297815ZM14.8087 7.2306H3.75595C3.7394 6.89968 3.78904 6.30402 4.10341 5.70836C4.1696 5.59254 4.23578 5.49326 4.30197 5.39399C4.36815 5.29471 4.45088 5.21198 4.51706 5.12925C4.53361 5.11271 4.5667 5.07961 4.58325 5.06307C4.64943 4.99688 4.69907 4.94725 4.76525 4.89761C4.86453 4.81488 4.94726 4.74869 5.04654 4.68251C5.11272 4.63287 5.1789 4.59978 5.24509 4.56669C5.31127 4.5336 5.37746 4.5005 5.42709 4.46741C5.47673 4.43432 5.52637 4.41777 5.55946 4.40123C5.59255 4.38468 5.62565 4.36814 5.65874 4.35159C5.75802 4.30195 5.85729 4.26886 5.94002 4.23577C6.23785 4.13649 6.46949 4.1034 6.53568 4.08685L14.7921 3.97103V7.2306H14.8087ZM4.30197 5.3609C4.23578 5.46017 4.1696 5.55945 4.10341 5.67527C3.77249 6.27093 3.7394 6.85004 3.75595 7.18096C3.7394 6.85004 3.78904 6.27093 4.10341 5.67527C4.1696 5.55945 4.23578 5.46017 4.30197 5.3609ZM4.76525 4.86452C4.86453 4.78179 4.94726 4.7156 5.04654 4.64942C4.94726 4.69906 4.86453 4.78179 4.76525 4.86452ZM4.30197 5.3609C4.23578 5.46017 4.1696 5.55945 4.10341 5.67527C3.77249 6.27093 3.7394 6.85004 3.75595 7.18096C3.7394 6.85004 3.78904 6.27093 4.10341 5.67527C4.1696 5.55945 4.23578 5.46017 4.30197 5.3609ZM4.76525 4.86452C4.86453 4.78179 4.94726 4.7156 5.04654 4.64942C4.94726 4.69906 4.86453 4.78179 4.76525 4.86452Z" fill="#8BF406"/>
</svg>
