<svg xmlns="http://www.w3.org/2000/svg" xmlns:xlink="http://www.w3.org/1999/xlink" preserveAspectRatio="xMidYMid meet" width="662" height="662" viewBox="0 0 662 662" style="width:100%;height:100%"><defs><animateTransform repeatCount="indefinite" dur="10s" begin="0s" xlink:href="#_R_G_L_3_G" fill="freeze" attributeName="transform" from="0" to="-360" type="rotate" additive="sum" keyTimes="0;1" values="0;-360" keySplines="0.167 0.167 0.833 0.833" calcMode="spline"/><animateTransform repeatCount="indefinite" dur="10s" begin="0s" xlink:href="#_R_G_L_3_G" fill="freeze" attributeName="transform" from="-17.729 -18.896" to="-17.729 -18.896" type="translate" additive="sum" keyTimes="0;1" values="-17.729 -18.896;-17.729 -18.896" keySplines="0 0 1 1" calcMode="spline"/><animateTransform repeatCount="indefinite" dur="10s" begin="0s" xlink:href="#_R_G_L_3_G_N_1_T_0" fill="freeze" attributeName="transform" from="0" to="360" type="rotate" additive="sum" keyTimes="0;1" values="0;360" keySplines="0.167 0.167 0.833 0.833" calcMode="spline"/><animateTransform repeatCount="indefinite" dur="10s" begin="0s" xlink:href="#_R_G_L_3_G_N_1_T_0" fill="freeze" attributeName="transform" from="-50 -50" to="-50 -50" type="translate" additive="sum" keyTimes="0;1" values="-50 -50;-50 -50" keySplines="0 0 1 1" calcMode="spline"/><animateTransform repeatCount="indefinite" dur="10s" begin="0s" xlink:href="#_R_G_L_2_G" fill="freeze" attributeName="transform" from="0" to="-360" type="rotate" additive="sum" keyTimes="0;1" values="0;-360" keySplines="0.167 0.167 0.833 0.833" calcMode="spline"/><animateTransform repeatCount="indefinite" dur="10s" begin="0s" xlink:href="#_R_G_L_2_G" fill="freeze" attributeName="transform" from="-13.677 -16.646" to="-13.677 -16.646" type="translate" additive="sum" keyTimes="0;1" values="-13.677 -16.646;-13.677 -16.646" keySplines="0 0 1 1" calcMode="spline"/><animateTransform repeatCount="indefinite" dur="10s" begin="0s" xlink:href="#_R_G_L_2_G_N_1_T_0" fill="freeze" attributeName="transform" from="0" to="360" type="rotate" additive="sum" keyTimes="0;1" values="0;360" keySplines="0.167 0.167 0.833 0.833" calcMode="spline"/><animateTransform repeatCount="indefinite" dur="10s" begin="0s" xlink:href="#_R_G_L_2_G_N_1_T_0" fill="freeze" attributeName="transform" from="-50 -50" to="-50 -50" type="translate" additive="sum" keyTimes="0;1" values="-50 -50;-50 -50" keySplines="0 0 1 1" calcMode="spline"/><animateTransform repeatCount="indefinite" dur="10s" begin="0s" xlink:href="#_R_G_L_1_G" fill="freeze" attributeName="transform" from="0" to="-360" type="rotate" additive="sum" keyTimes="0;1" values="0;-360" keySplines="0.167 0.167 0.833 0.833" calcMode="spline"/><animateTransform repeatCount="indefinite" dur="10s" begin="0s" xlink:href="#_R_G_L_1_G" fill="freeze" attributeName="transform" from="-17.382 -17.382" to="-17.382 -17.382" type="translate" additive="sum" keyTimes="0;1" values="-17.382 -17.382;-17.382 -17.382" keySplines="0 0 1 1" calcMode="spline"/><animateTransform repeatCount="indefinite" dur="10s" begin="0s" xlink:href="#_R_G_L_1_G_N_1_T_0" fill="freeze" attributeName="transform" from="0" to="360" type="rotate" additive="sum" keyTimes="0;1" values="0;360" keySplines="0.167 0.167 0.833 0.833" calcMode="spline"/><animateTransform repeatCount="indefinite" dur="10s" begin="0s" xlink:href="#_R_G_L_1_G_N_1_T_0" fill="freeze" attributeName="transform" from="-50 -50" to="-50 -50" type="translate" additive="sum" keyTimes="0;1" values="-50 -50;-50 -50" keySplines="0 0 1 1" calcMode="spline"/><animateTransform repeatCount="indefinite" dur="10s" begin="0s" xlink:href="#_R_G_L_0_G" fill="freeze" attributeName="transform" from="0" to="-360" type="rotate" additive="sum" keyTimes="0;1" values="0;-360" keySplines="0.167 0.167 0.833 0.833" calcMode="spline"/><animateTransform repeatCount="indefinite" dur="10s" begin="0s" xlink:href="#_R_G_L_0_G" fill="freeze" attributeName="transform" from="-14.723 -13.819" to="-14.723 -13.819" type="translate" additive="sum" keyTimes="0;1" values="-14.723 -13.819;-14.723 -13.819" keySplines="0 0 1 1" calcMode="spline"/><animateTransform repeatCount="indefinite" dur="10s" begin="0s" xlink:href="#_R_G_L_0_G_N_1_T_0" fill="freeze" attributeName="transform" from="0" to="360" type="rotate" additive="sum" keyTimes="0;1" values="0;360" keySplines="0.167 0.167 0.833 0.833" calcMode="spline"/><animateTransform repeatCount="indefinite" dur="10s" begin="0s" xlink:href="#_R_G_L_0_G_N_1_T_0" fill="freeze" attributeName="transform" from="-50 -50" to="-50 -50" type="translate" additive="sum" keyTimes="0;1" values="-50 -50;-50 -50" keySplines="0 0 1 1" calcMode="spline"/><animate attributeType="XML" attributeName="opacity" dur="10s" from="0" to="1" xlink:href="#time_group"/></defs><g id="_R_G"><g id="_R_G_L_4_G" transform=" translate(331, 331) translate(-330.5, -330.5)"><g id="_R_G_L_4_G_D_0_P_0_G_0_T_0" transform=" translate(330.5, 330.5) translate(0, 0)"><path id="_R_G_L_4_G_D_0_P_0" stroke="#8bf406" stroke-linecap="round" stroke-linejoin="round" fill="none" stroke-width="1" stroke-opacity="1" opacity="0.2" d=" M0 -105 C57.99,-105 105,-57.99 105,0 C105,57.99 57.99,105 0,105 C-57.99,105 -105,57.99 -105,0 C-105,-57.99 -57.99,-105 0,-105z "/></g><g id="_R_G_L_4_G_D_1_P_0_G_0_T_0" transform=" translate(330.5, 330.5) translate(0, 0)"><path id="_R_G_L_4_G_D_1_P_0" stroke="#8bf406" stroke-linecap="round" stroke-linejoin="round" fill="none" stroke-width="1" stroke-opacity="1" opacity="0.15" d=" M0 -180 C99.41,-180 180,-99.41 180,0 C180,99.41 99.41,180 0,180 C-99.41,180 -180,99.41 -180,0 C-180,-99.41 -99.41,-180 0,-180z "/></g><g id="_R_G_L_4_G_D_2_P_0_G_0_T_0" transform=" translate(330.5, 330.5) translate(0, 0)"><path id="_R_G_L_4_G_D_2_P_0" stroke="#8bf406" stroke-linecap="round" stroke-linejoin="round" fill="none" stroke-width="1" stroke-opacity="1" opacity="0.1" d=" M0 -255 C140.83,-255 255,-140.83 255,0 C255,140.83 140.83,255 0,255 C-140.83,255 -255,140.83 -255,0 C-255,-140.83 -140.83,-255 0,-255z "/></g><g id="_R_G_L_4_G_D_3_P_0_G_0_T_0" transform=" translate(330.5, 330.5) translate(0, 0)"><path id="_R_G_L_4_G_D_3_P_0" stroke="#8bf406" stroke-linecap="round" stroke-linejoin="round" fill="none" stroke-width="1" stroke-opacity="1" opacity="0.05" d=" M0 -330 C182.25,-330 330,-182.25 330,0 C330,182.25 182.25,330 0,330 C-182.25,330 -330,182.25 -330,0 C-330,-182.25 -182.25,-330 0,-330z "/></g></g><g id="_R_G_L_3_G_N_1_T_0" transform=" translate(331, 331)"><g id="_R_G_L_3_G" transform=" translate(-30.641, -116.161)"><path id="_R_G_L_3_G_D_0_P_0" fill="#223c02" fill-opacity="1" fill-rule="nonzero" d=" M3.97 25.36 C3.97,25.36 6.49,34.78 6.49,34.78 C6.95,36.51 8.74,37.54 10.47,37.08 C10.47,37.08 19.89,34.56 19.89,34.56 C19.89,34.56 16.52,22 16.52,22 C16.52,22 3.97,25.36 3.97,25.36z  M19.66 21.16 C19.66,21.16 23.03,33.71 23.03,33.71 C23.03,33.71 32.44,31.19 32.44,31.19 C34.18,30.73 35.21,28.94 34.74,27.21 C34.74,27.21 32.22,17.79 32.22,17.79 C32.22,17.79 19.66,21.16 19.66,21.16z  M28.13 8.8 C28.13,8.8 23.24,10.11 23.24,10.11 C23.86,9.56 24.38,8.92 24.81,8.21 C25.45,7.09 25.63,5.76 25.29,4.51 C24.96,3.26 24.14,2.2 23.02,1.55 C20.77,0.25 17.67,1.08 16.37,3.33 C14.49,6.59 15.43,11.52 15.55,12.07 C15.55,12.1 15.58,12.13 15.58,12.16 C15.58,12.16 15.55,12.17 15.55,12.17 C15.55,12.13 15.55,12.1 15.54,12.07 C15.37,11.54 13.73,6.79 10.47,4.91 C8.21,3.61 5.11,4.44 3.81,6.7 C3.16,7.82 2.99,9.15 3.32,10.4 C3.66,11.64 4.47,12.71 5.59,13.36 C6.3,13.77 7.09,14.04 7.9,14.21 C7.9,14.21 3.01,15.52 3.01,15.52 C1.28,15.99 0.25,17.77 0.71,19.5 C0.71,19.5 1.98,24.21 1.98,24.21 C1.98,24.21 16.1,20.43 16.1,20.43 C16.1,20.43 14.42,14.15 14.42,14.15 C14.42,14.15 17.56,13.31 17.56,13.31 C17.56,13.31 19.24,19.59 19.24,19.59 C19.24,19.59 33.37,15.8 33.37,15.8 C33.37,15.8 32.11,11.09 32.11,11.09 C31.88,10.26 31.34,9.55 30.59,9.12 C29.85,8.69 28.96,8.57 28.13,8.8z  M7.22 10.54 C6.94,10.38 6.72,10.14 6.58,9.85 C6.43,9.56 6.38,9.24 6.42,8.92 C6.47,8.61 6.6,8.31 6.81,8.07 C7.02,7.82 7.3,7.65 7.61,7.57 C8.03,7.45 8.47,7.51 8.84,7.73 C10.02,8.4 11,9.92 11.66,11.23 C10.2,11.31 8.38,11.22 7.22,10.54z  M18.49 9.4 C18.41,7.94 18.5,6.13 19.18,4.96 C19.4,4.58 19.75,4.31 20.17,4.2 C20.59,4.09 21.03,4.15 21.4,4.36 C22.17,4.81 22.44,5.81 21.99,6.58 C21.31,7.76 19.8,8.74 18.49,9.4z "/></g></g><g id="_R_G_L_2_G_N_1_T_0" transform=" translate(331, 331)"><g id="_R_G_L_2_G" transform=" translate(142.017, 202.361)"><path id="_R_G_L_2_G_D_0_P_0" fill="#1f3602" fill-opacity="1" fill-rule="nonzero" d=" M6.78 3.89 C6.78,3.89 5.74,3.61 5.74,3.61 C4.03,3.15 2.26,4.17 1.8,5.89 C1.8,5.89 1.25,7.96 1.25,7.96 C0.56,10.55 1.89,13.2 4.27,14.24 C4.21,17.74 6.31,20.98 9.61,22.32 C9.61,22.32 9.03,24.46 9.03,24.46 C9.03,24.46 5.93,23.63 5.93,23.63 C3.64,23.01 1.3,24.37 0.68,26.65 C0.68,26.65 0.4,27.7 0.4,27.7 C0.25,28.27 0.59,28.86 1.16,29.01 C1.16,29.01 15.65,32.89 15.65,32.89 C16.22,33.04 16.81,32.7 16.96,32.13 C16.96,32.13 17.24,31.09 17.24,31.09 C17.85,28.81 16.49,26.46 14.21,25.84 C14.21,25.84 11.1,25.01 11.1,25.01 C11.1,25.01 11.68,22.88 11.68,22.88 C15.2,23.37 18.64,21.61 20.33,18.55 C22.92,18.83 25.4,17.2 26.09,14.61 C26.09,14.61 26.64,12.54 26.64,12.54 C27.1,10.83 26.08,9.07 24.37,8.61 C24.37,8.61 23.34,8.33 23.34,8.33 C23.95,6.04 22.59,3.69 20.31,3.08 C20.31,3.08 12.03,0.86 12.03,0.86 C9.74,0.25 7.39,1.61 6.78,3.89z  M22.78 10.4 C22.78,10.4 23.82,10.68 23.82,10.68 C24.39,10.83 24.73,11.42 24.57,11.99 C24.57,11.99 24.02,14.06 24.02,14.06 C23.66,15.41 22.49,16.33 21.17,16.43 C21.17,16.43 22.78,10.4 22.78,10.4z  M6.23 5.96 C6.23,5.96 4.61,11.99 4.61,11.99 C3.52,11.24 2.96,9.86 3.32,8.51 C3.32,8.51 3.87,6.44 3.87,6.44 C4.03,5.87 4.62,5.53 5.19,5.68 C5.19,5.68 6.23,5.96 6.23,5.96z "/></g></g><g id="_R_G_L_1_G_N_1_T_0" transform=" translate(331, 331)"><g id="_R_G_L_1_G" transform=" translate(-157, 200)"><path id="_R_G_L_1_G_D_0_P_0" fill="#1c3102" fill-opacity="1" fill-rule="nonzero" d=" M30.37 9.88 C34.51,17.06 32.06,26.23 24.88,30.37 C17.71,34.52 8.53,32.06 4.39,24.88 C0.25,17.71 2.71,8.53 9.88,4.39 C17.06,0.25 26.23,2.71 30.37,9.88z  M14.02 13.55 C13.06,14.1 12.73,15.33 13.28,16.28 C13.84,17.24 15.06,17.57 16.02,17.02 C16.02,17.02 14.02,13.55 14.02,13.55z  M14.75 10.82 C14.75,10.82 14.25,9.95 14.25,9.95 C14.25,9.95 12.52,10.95 12.52,10.95 C12.52,10.95 13.02,11.82 13.02,11.82 C11.1,12.93 10.45,15.37 11.55,17.28 C12.66,19.2 15.1,19.85 17.02,18.75 C17.02,18.75 19.02,22.21 19.02,22.21 C18.26,22.65 17.34,22.54 16.72,22 C16.3,21.64 15.67,21.69 15.31,22.11 C14.95,22.53 15,23.16 15.42,23.52 C16.67,24.59 18.51,24.82 20.02,23.95 C20.02,23.95 20.52,24.81 20.52,24.81 C20.52,24.81 22.25,23.81 22.25,23.81 C22.25,23.81 21.75,22.95 21.75,22.95 C23.66,21.84 24.32,19.39 23.21,17.48 C22.11,15.57 19.66,14.91 17.75,16.02 C17.75,16.02 15.75,12.55 15.75,12.55 C16.5,12.12 17.42,12.23 18.05,12.76 C18.47,13.12 19.1,13.07 19.46,12.65 C19.82,12.23 19.77,11.6 19.35,11.24 C18.1,10.17 16.26,9.95 14.75,10.82z  M18.75 17.75 C18.75,17.75 20.75,21.21 20.75,21.21 C21.71,20.66 22.03,19.44 21.48,18.48 C20.93,17.52 19.71,17.2 18.75,17.75z "/></g></g><g id="_R_G_L_0_G_N_1_T_0" transform=" translate(331, 331)"><g id="_R_G_L_0_G" transform=" translate(208.984, -147.999)"><path id="_R_G_L_0_G_D_0_P_0" fill="#1c3102" fill-opacity="1" fill-rule="nonzero" d=" M23.44 19.41 C23.46,19.24 23.52,19.08 23.6,18.93 C23.68,18.79 23.8,18.66 23.93,18.56 C23.93,18.56 27.66,15.75 27.66,15.75 C28.16,15.38 28.55,14.9 28.82,14.34 C29.08,13.78 29.2,13.16 29.16,12.54 C29.13,11.93 28.95,11.33 28.63,10.8 C28.31,10.27 27.86,9.83 27.33,9.51 C27.33,9.51 12.14,0.74 12.14,0.74 C11.6,0.44 11,0.28 10.38,0.26 C9.76,0.25 9.15,0.39 8.6,0.67 C8.05,0.95 7.58,1.36 7.22,1.87 C6.87,2.38 6.64,2.96 6.57,3.57 C6.57,3.57 6.01,8.21 6.01,8.21 C5.99,8.38 5.93,8.54 5.85,8.68 C5.76,8.83 5.65,8.96 5.52,9.06 C5.52,9.06 1.78,11.86 1.78,11.86 C1.29,12.23 0.89,12.72 0.63,13.28 C0.37,13.84 0.25,14.46 0.28,15.07 C0.32,15.69 0.5,16.29 0.82,16.82 C1.14,17.35 1.59,17.79 2.12,18.1 C2.12,18.1 17.31,26.87 17.31,26.87 C17.85,27.18 18.45,27.35 19.07,27.37 C19.69,27.39 20.31,27.25 20.86,26.97 C21.42,26.69 21.9,26.28 22.25,25.77 C22.61,25.27 22.84,24.68 22.91,24.06 C22.91,24.06 23.44,19.41 23.44,19.41z  M13.97 7.59 C14.19,7.71 14.36,7.9 14.47,8.12 C14.58,8.34 14.62,8.59 14.59,8.84 C14.56,9.08 14.45,9.31 14.29,9.5 C14.13,9.69 13.91,9.82 13.67,9.88 C13.43,9.95 13.18,9.94 12.95,9.86 C12.71,9.78 12.5,9.63 12.35,9.44 C12.2,9.24 12.11,9 12.1,8.76 C12.08,8.51 12.14,8.26 12.26,8.05 C12.43,7.76 12.7,7.55 13.02,7.46 C13.35,7.38 13.69,7.42 13.97,7.59z  M15.47 20.03 C15.26,19.9 15.08,19.72 14.98,19.5 C14.87,19.27 14.83,19.02 14.86,18.78 C14.89,18.53 14.99,18.3 15.16,18.12 C15.32,17.93 15.54,17.8 15.78,17.73 C16.01,17.67 16.27,17.68 16.5,17.76 C16.74,17.84 16.94,17.98 17.09,18.18 C17.24,18.38 17.33,18.61 17.35,18.86 C17.37,19.11 17.31,19.35 17.18,19.57 C17.02,19.86 16.75,20.07 16.42,20.15 C16.1,20.24 15.76,20.19 15.47,20.03z  M20.18 13.65 C20.18,13.65 9.91,16.4 9.91,16.4 C9.75,16.44 9.59,16.45 9.42,16.43 C9.26,16.41 9.1,16.36 8.96,16.28 C8.82,16.19 8.69,16.08 8.59,15.95 C8.49,15.82 8.42,15.67 8.37,15.51 C8.33,15.35 8.32,15.18 8.34,15.02 C8.36,14.85 8.41,14.7 8.5,14.55 C8.58,14.41 8.69,14.29 8.82,14.19 C8.95,14.08 9.1,14.01 9.26,13.97 C9.26,13.97 19.53,11.22 19.53,11.22 C19.86,11.13 20.2,11.18 20.49,11.34 C20.78,11.51 20.99,11.78 21.07,12.11 C21.16,12.43 21.11,12.77 20.95,13.06 C20.78,13.35 20.51,13.56 20.18,13.65z "/></g></g></g><g id="time_group"/></svg>