<svg width="20" height="16" viewBox="0 0 20 16" fill="none" xmlns="http://www.w3.org/2000/svg">
<path d="M18.5709 6.57227H4.86604L8.15292 3.29967C8.42202 3.03057 8.5732 2.66559 8.5732 2.28502C8.5732 1.90446 8.42202 1.53948 8.15292 1.27038C7.88382 1.00128 7.51884 0.850098 7.13828 0.850098C6.75771 0.850098 6.39273 1.00128 6.12363 1.27038L0.407307 6.9867C0.277203 7.12261 0.175217 7.28287 0.1072 7.4583C-0.0357335 7.80622 -0.0357335 8.19647 0.1072 8.5444C0.175217 8.71982 0.277203 8.88008 0.407307 9.01599L6.12363 14.7323C6.25648 14.8663 6.41454 14.9726 6.58869 15.0451C6.76283 15.1177 6.94962 15.155 7.13828 15.155C7.32693 15.155 7.51372 15.1177 7.68787 15.0451C7.86201 14.9726 8.02007 14.8663 8.15292 14.7323C8.28687 14.5995 8.39318 14.4414 8.46574 14.2673C8.53829 14.0931 8.57564 13.9063 8.57564 13.7177C8.57564 13.529 8.53829 13.3422 8.46574 13.1681C8.39318 12.9939 8.28687 12.8359 8.15292 12.703L4.86604 9.43043H18.5709C18.9499 9.43043 19.3134 9.27987 19.5814 9.01186C19.8494 8.74386 20 8.38036 20 8.00135C20 7.62233 19.8494 7.25884 19.5814 6.99083C19.3134 6.72283 18.9499 6.57227 18.5709 6.57227Z" fill="#F5F5F5"/>
</svg>
