<svg width="14" height="14" viewBox="0 0 14 14" fill="none" xmlns="http://www.w3.org/2000/svg">
<path d="M12.3645 1.94857H11.0103V1.16732C11.0103 0.70638 10.6379 0.333984 10.177 0.333984C9.71606 0.333984 9.34367 0.70638 9.34367 1.16732V1.94857H4.91659V1.16732C4.91659 0.70638 4.54419 0.333984 4.08325 0.333984C3.62231 0.333984 3.24992 0.70638 3.24992 1.16732V1.94857H1.63534C0.916585 1.94857 0.333252 2.5319 0.333252 3.25065V4.06836H13.6666V3.25065C13.6666 2.5319 13.0833 1.94857 12.3645 1.94857Z" fill="#616161"/>
<path d="M0.333252 12.3659C0.333252 13.0846 0.916585 13.668 1.63534 13.668H12.3645C13.0833 13.668 13.6666 13.0846 13.6666 12.3659V4.90234H0.333252V12.3659ZM9.08325 7.33203C9.08325 7.14453 9.23429 6.99349 9.42179 6.99349H10.4114C10.5989 6.99349 10.7499 7.14453 10.7499 7.33203V8.32161C10.7499 8.50911 10.5989 8.66016 10.4114 8.66016H9.42179C9.23429 8.66016 9.08325 8.50911 9.08325 8.32161V7.33203ZM9.08325 10.2487C9.08325 10.0612 9.23429 9.91016 9.42179 9.91016H10.4114C10.5989 9.91016 10.7499 10.0612 10.7499 10.2487V11.2383C10.7499 11.4258 10.5989 11.5768 10.4114 11.5768H9.42179C9.23429 11.5768 9.08325 11.4258 9.08325 11.2383V10.2487ZM6.16659 7.33203C6.16659 7.14453 6.31763 6.99349 6.50513 6.99349H7.49471C7.68221 6.99349 7.83325 7.14453 7.83325 7.33203V8.32161C7.83325 8.50911 7.68221 8.66016 7.49471 8.66016H6.50513C6.31763 8.66016 6.16659 8.50911 6.16659 8.32161V7.33203ZM6.16659 10.2487C6.16659 10.0612 6.31763 9.91016 6.50513 9.91016H7.49471C7.68221 9.91016 7.83325 10.0612 7.83325 10.2487V11.2383C7.83325 11.4258 7.68221 11.5768 7.49471 11.5768H6.50513C6.31763 11.5768 6.16659 11.4258 6.16659 11.2383V10.2487ZM3.24992 7.33203C3.24992 7.14453 3.40096 6.99349 3.58846 6.99349H4.57804C4.76554 6.99349 4.91659 7.14453 4.91659 7.33203V8.32161C4.91659 8.50911 4.76554 8.66016 4.57804 8.66016H3.58846C3.40096 8.66016 3.24992 8.50911 3.24992 8.32161V7.33203ZM3.24992 10.2487C3.24992 10.0612 3.40096 9.91016 3.58846 9.91016H4.57804C4.76554 9.91016 4.91659 10.0612 4.91659 10.2487V11.2383C4.91659 11.4258 4.76554 11.5768 4.57804 11.5768H3.58846C3.40096 11.5768 3.24992 11.4258 3.24992 11.2383V10.2487Z" fill="#616161"/>
</svg>
