<svg width="14" height="14" viewBox="0 0 14 14" fill="none" xmlns="http://www.w3.org/2000/svg">
<path fill-rule="evenodd" clip-rule="evenodd" d="M13.4266 11.8848C13.0151 13.1354 11.4027 13.7592 10.2507 13.6552C8.67741 13.5129 6.96546 12.6785 5.66594 11.7594C3.75577 10.4083 1.96648 8.31839 0.923845 6.10067C0.186976 4.5336 0.0216453 2.6069 1.11762 1.1785C1.52294 0.65051 1.96204 0.368524 2.6198 0.335636C3.53355 0.291193 3.66155 0.813936 3.97532 1.62814C4.20909 2.23701 4.52108 2.8581 4.6953 3.4892C5.02151 4.66694 3.8811 4.71617 3.7371 5.67881C3.64821 6.2859 4.38331 7.10005 4.71574 7.53293C5.35651 8.37599 6.14131 9.09896 7.0339 9.66872C7.54055 9.98782 8.35653 10.5629 8.93607 10.2455C9.8285 9.75665 9.74494 8.25187 10.992 8.76119C11.6382 9.0243 12.264 9.40399 12.8809 9.73643C13.8346 10.2493 13.7902 10.7808 13.4266 11.8848C13.6986 11.0599 13.1546 12.7097 13.4266 11.8848Z" fill="#F5F5F5"/>
</svg>
