<svg width="18" height="18" viewBox="0 0 18 18" fill="none" xmlns="http://www.w3.org/2000/svg">
<path fill-rule="evenodd" clip-rule="evenodd" d="M17.0333 15.1065C16.5189 16.6698 14.5034 17.4494 13.0634 17.3194C11.0968 17.1417 8.95686 16.0986 7.33245 14.9497C4.94474 13.2609 2.70813 10.6485 1.40484 7.87633C0.48375 5.91749 0.277087 3.50912 1.64705 1.72361C2.1537 1.06363 2.70258 0.711144 3.52478 0.670034C4.66697 0.61448 4.82697 1.26791 5.21918 2.28566C5.51139 3.04675 5.90138 3.82312 6.11915 4.61199C6.52692 6.08417 5.1014 6.1457 4.92141 7.349C4.8103 8.10787 5.72916 9.12555 6.14471 9.66665C6.94567 10.7205 7.92667 11.6242 9.04241 12.3364C9.67572 12.7353 10.6957 13.4541 11.4201 13.0574C12.5356 12.4463 12.4312 10.5653 13.9901 11.202C14.7978 11.5309 15.58 12.0055 16.3511 12.421C17.5433 13.0621 17.4877 13.7265 17.0333 15.1065C16.6933 16.1376 17.3733 14.0754 17.0333 15.1065" fill="#616161"/>
</svg>
