<svg width="20" height="18" viewBox="0 0 20 18" fill="none" xmlns="http://www.w3.org/2000/svg">
<path d="M17.5947 3.57846H14.7032V3.28117C14.7032 1.95296 13.6261 0.875 12.299 0.875H7.70049C6.37282 0.875 5.29626 1.95296 5.29626 3.28117V3.57846H2.40423C1.07656 3.57846 0 4.65589 0 5.98463V14.7185C0 16.0467 1.07656 17.1246 2.40423 17.1246H17.5958C18.9234 17.1246 20 16.0467 20 14.7185V5.98463C19.9989 4.65535 18.9224 3.57846 17.5947 3.57846ZM9.99893 14.6286C7.49426 14.6286 5.45761 12.5904 5.45761 10.0837C5.45761 7.57751 7.49426 5.53868 9.99893 5.53868C12.5036 5.53868 14.5403 7.57697 14.5403 10.0837C14.5403 12.5904 12.5031 14.6286 9.99893 14.6286ZM12.4032 10.0837C12.4032 11.4092 11.3239 12.4898 9.99893 12.4898C8.67393 12.4898 7.5947 11.4092 7.5947 10.0837C7.5947 8.7576 8.67393 7.6775 9.99893 7.6775C11.3239 7.6775 12.4032 8.7576 12.4032 10.0837Z" fill="#F5F5F5"/>
</svg>
