<svg width="56" height="56" viewBox="0 0 56 56" fill="none" xmlns="http://www.w3.org/2000/svg">
<circle cx="28" cy="28" r="28" fill="#5FC7F1"/>
<path d="M33.0138 32.2107L25.0731 45.9643C24.4243 47.088 23.0064 47.4679 21.8827 46.8192L15.5228 43.1473C14.3991 42.4985 14.0192 41.0806 14.6679 39.9569L22.6086 26.2033C22.7513 25.9561 22.9165 25.7218 23.1267 25.5135C23.24 25.3692 23.3758 25.2378 23.534 25.1195C23.815 24.8922 24.1056 24.7003 24.4281 24.5569L33.5522 29.8248C33.6014 30.3625 33.5571 30.9063 33.3745 31.4301C33.2767 31.7033 33.1565 31.9635 33.0138 32.2107Z" fill="#3A138D"/>
<path d="M33.0136 32.2109L25.4751 45.2679L15.07 39.2605L22.6084 26.2035C22.7512 25.9563 22.9164 25.7221 23.1265 25.5138L33.3743 31.4304C33.2766 31.7036 33.1563 31.9637 33.0136 32.2109Z" fill="#5B2BC1"/>
<g opacity="0.9">
<g opacity="0.9">
<g opacity="0.9">
<path opacity="0.5" d="M33.3519 31.4173C33.5639 30.7906 33.6057 30.0955 33.4701 29.448C33.3726 28.9422 33.3779 28.4658 33.4542 27.9705C33.5304 27.4752 33.7095 27.0092 33.956 26.5822L34.8513 25.0316L32.9186 23.9157L32.0233 25.4664C31.7768 25.8934 31.5977 26.3593 31.5215 26.8547C31.4452 27.35 31.4399 27.8263 31.5374 28.3321C31.66 29.0022 31.6312 29.6747 31.4192 30.3015C31.3214 30.5746 31.2237 30.8478 31.0809 31.095L23.1403 44.8486C22.4915 45.9723 21.0736 46.3522 19.9499 45.7035L21.9051 46.8323C23.0288 47.481 24.4467 47.1011 25.0954 45.9774L33.0361 32.2238C33.1564 31.9636 33.2766 31.7034 33.3519 31.4173Z" fill="white"/>
</g>
</g>
</g>
<path d="M38.3321 11.01C37.8153 10.7115 37.1427 10.6828 36.5426 10.9956C36.3749 11.0785 36.2166 11.1969 36.0229 11.3248C35.4124 11.8113 34.8883 12.4076 34.4861 13.1043L34.2715 13.5797C33.6538 14.961 32.7145 16.2765 32.5139 16.5203L32.3971 16.7225L34.4431 17.694L36.3075 18.9802L36.4243 18.7779C36.5739 18.4149 37.2825 16.8762 38.2183 15.6187L38.4094 15.3395C38.7987 14.6653 39.0756 13.9262 39.1787 13.1767C39.2151 12.958 39.216 12.7488 39.2039 12.562C39.1972 11.899 38.8715 11.3214 38.3321 11.01Z" fill="#1A1A1A"/>
<path d="M35.7939 23.6578L28.625 19.5187L30.5063 16.2601C30.701 15.923 31.1393 15.7866 31.4989 15.9942L37.4318 19.4195C37.7689 19.6142 37.9054 20.0525 37.6978 20.4121L35.8164 23.6707L35.7939 23.6578Z" fill="#4D4D4D"/>
<path d="M36.1165 23.5149L28.5654 19.1553L27.5534 20.9082L35.1044 25.2678L36.1165 23.5149Z" fill="#1A1A1A"/>
<path d="M34.8709 25.6721L27.3198 21.3125L26.9565 21.9418L34.5076 26.3013L34.8709 25.6721Z" fill="#E6E6E6"/>
<path d="M29.1402 19.4571C29.0953 19.4311 29.0763 19.3602 29.1022 19.3153L30.9447 16.1241C30.9706 16.0791 31.0415 16.0601 31.0865 16.0861C31.1314 16.112 31.1504 16.1829 31.1245 16.2279L29.295 19.3966C29.2785 19.477 29.2077 19.496 29.1402 19.4571Z" fill="#1A1A1A"/>
<path d="M29.9493 19.9239C29.9044 19.8979 29.8854 19.827 29.9113 19.7821L31.7538 16.5909C31.7797 16.5459 31.8506 16.5269 31.8956 16.5529C31.9405 16.5788 31.9595 16.6497 31.9336 16.6947L30.1041 19.8634C30.0652 19.9308 29.9943 19.9498 29.9493 19.9239Z" fill="#1A1A1A"/>
<path d="M30.7359 20.378C30.691 20.352 30.672 20.2811 30.6979 20.2362L32.5404 17.045C32.5663 17 32.6372 16.981 32.6822 17.007C32.7271 17.0329 32.7461 17.1038 32.7202 17.1488L30.8907 20.3175C30.8742 20.3979 30.8034 20.4169 30.7359 20.378Z" fill="#1A1A1A"/>
<path d="M31.545 20.8457C31.5001 20.8198 31.4811 20.7489 31.507 20.704L33.3495 17.5127C33.3754 17.4678 33.4463 17.4488 33.4913 17.4748C33.5362 17.5007 33.5552 17.5716 33.5293 17.6165L31.6998 20.7853C31.6609 20.8527 31.59 20.8717 31.545 20.8457Z" fill="#1A1A1A"/>
<path d="M32.3316 21.2998C32.2867 21.2739 32.2677 21.203 32.2936 21.1581L34.1361 17.9668C34.162 17.9219 34.2329 17.9029 34.2779 17.9289C34.3228 17.9548 34.3418 18.0257 34.3159 18.0706L32.4864 21.2394C32.47 21.3198 32.3991 21.3388 32.3316 21.2998Z" fill="#1A1A1A"/>
<path d="M33.1407 21.7666C33.0958 21.7407 33.0768 21.6698 33.1027 21.6249L34.9452 18.4336C34.9711 18.3887 35.042 18.3697 35.087 18.3956C35.1319 18.4216 35.1509 18.4925 35.125 18.5374L33.2955 21.7062C33.2566 21.7736 33.1857 21.7926 33.1407 21.7666Z" fill="#1A1A1A"/>
<path d="M33.9269 22.2207C33.8819 22.1948 33.8629 22.1239 33.8889 22.079L35.7313 18.8877C35.7573 18.8428 35.8281 18.8238 35.8731 18.8498C35.918 18.8757 35.937 18.9466 35.9111 18.9915L34.0816 22.1603C34.0652 22.2407 33.9943 22.2597 33.9269 22.2207Z" fill="#1A1A1A"/>
<path d="M34.7359 22.6875C34.691 22.6616 34.672 22.5907 34.6979 22.5457L36.5404 19.3545C36.5663 19.3096 36.6372 19.2906 36.6822 19.3165C36.7271 19.3425 36.7461 19.4134 36.7202 19.4583L34.8907 22.6271C34.8518 22.6945 34.7809 22.7135 34.7359 22.6875Z" fill="#1A1A1A"/>
<path d="M35.5226 23.1416C35.4776 23.1157 35.4586 23.0448 35.4846 22.9999L37.327 19.8086C37.353 19.7637 37.4239 19.7447 37.4688 19.7707C37.5137 19.7966 37.5327 19.8675 37.5068 19.9124L35.6773 23.0812C35.6609 23.1616 35.59 23.1806 35.5226 23.1416Z" fill="#1A1A1A"/>
<g opacity="0.1">
<g opacity="0.1">
<g opacity="0.1">
<g opacity="0.1">
<path opacity="0.1" d="M29.5226 19.6778C29.4776 19.6518 29.4586 19.5809 29.4846 19.536L31.327 16.3448C31.353 16.2998 31.4239 16.2808 31.4688 16.3068C31.5137 16.3327 31.5327 16.4036 31.5068 16.4486L29.6773 19.6173C29.6384 19.6847 29.5675 19.7037 29.5226 19.6778Z" fill="white"/>
</g>
</g>
</g>
<g opacity="0.1">
<g opacity="0.1">
<g opacity="0.1">
<path opacity="0.1" d="M30.3316 20.1446C30.2867 20.1186 30.2677 20.0477 30.2936 20.0028L32.1361 16.8116C32.162 16.7666 32.2329 16.7476 32.2779 16.7736C32.3228 16.7995 32.3418 16.8704 32.3159 16.9154L30.4864 20.0841C30.4475 20.1515 30.3766 20.1705 30.3316 20.1446Z" fill="white"/>
</g>
</g>
</g>
<g opacity="0.1">
<g opacity="0.1">
<g opacity="0.1">
<path opacity="0.1" d="M31.1183 20.5987C31.0733 20.5727 31.0543 20.5018 31.0803 20.4569L32.9227 17.2657C32.9487 17.2207 33.0196 17.2017 33.0645 17.2277C33.1094 17.2536 33.1284 17.3245 33.1025 17.3695L31.273 20.5382C31.2341 20.6056 31.1632 20.6246 31.1183 20.5987Z" fill="white"/>
</g>
</g>
</g>
<g opacity="0.1">
<g opacity="0.1">
<g opacity="0.1">
<path opacity="0.1" d="M31.9273 21.0664C31.8824 21.0405 31.8634 20.9696 31.8893 20.9247L33.7318 17.7334C33.7577 17.6885 33.8286 17.6695 33.8736 17.6955C33.9185 17.7214 33.9375 17.7923 33.9116 17.8372L32.0821 21.006C32.0432 21.0734 31.9723 21.0924 31.9273 21.0664Z" fill="white"/>
</g>
</g>
</g>
<g opacity="0.1">
<g opacity="0.1">
<g opacity="0.1">
<path opacity="0.1" d="M32.714 21.5206C32.669 21.4946 32.65 21.4237 32.676 21.3788L34.5184 18.1875C34.5444 18.1426 34.6153 18.1236 34.6602 18.1496C34.7052 18.1755 34.7241 18.2464 34.6982 18.2913L32.8687 21.4601C32.8298 21.5275 32.7589 21.5465 32.714 21.5206Z" fill="white"/>
</g>
</g>
</g>
<g opacity="0.1">
<g opacity="0.1">
<g opacity="0.1">
<path opacity="0.1" d="M33.5226 21.9873C33.4776 21.9614 33.4586 21.8905 33.4846 21.8456L35.327 18.6543C35.353 18.6094 35.4239 18.5904 35.4688 18.6164C35.5137 18.6423 35.5327 18.7132 35.5068 18.7581L33.6773 21.9269C33.6384 21.9943 33.5675 22.0133 33.5226 21.9873Z" fill="white"/>
</g>
</g>
</g>
<g opacity="0.1">
<g opacity="0.1">
<g opacity="0.1">
<path opacity="0.1" d="M34.3092 22.4414C34.2642 22.4155 34.2452 22.3446 34.2712 22.2997L36.1136 19.1084C36.1396 19.0635 36.2105 19.0445 36.2554 19.0705C36.3004 19.0964 36.3194 19.1673 36.2934 19.2122L34.4639 22.381C34.425 22.4484 34.3541 22.4674 34.3092 22.4414Z" fill="white"/>
</g>
</g>
</g>
<g opacity="0.1">
<g opacity="0.1">
<g opacity="0.1">
<path opacity="0.1" d="M35.1183 22.9082C35.0733 22.8823 35.0543 22.8114 35.0803 22.7665L36.9227 19.5752C36.9487 19.5303 37.0196 19.5113 37.0645 19.5373C37.1094 19.5632 37.1284 19.6341 37.1025 19.679L35.273 22.8478C35.2341 22.9152 35.1632 22.9342 35.1183 22.9082Z" fill="white"/>
</g>
</g>
</g>
</g>
<g opacity="0.3">
<g opacity="0.3">
<g opacity="0.3">
<path opacity="0.3" d="M37.3966 19.4293L31.4861 16.0169C31.2839 15.9001 31.0746 15.8992 30.8619 15.9562L34.8622 18.2657C35.1993 18.4603 35.3357 18.8987 35.1281 19.2583L33.3895 22.2697L35.8166 23.671L37.698 20.4124C37.8701 20.0623 37.7562 19.6369 37.3966 19.4293Z" fill="#4D4D4D"/>
</g>
</g>
</g>
<g opacity="0.7">
<g opacity="0.7">
<g opacity="0.7">
<path opacity="0.7" d="M33.7249 25.0104C33.5018 25.2411 33.1378 25.3007 32.8457 25.132L27.0476 21.7845L26.9697 21.9193L34.5432 26.2919L34.9065 25.6626L33.7379 24.9879L33.7249 25.0104Z" fill="#E6E6E6"/>
</g>
</g>
</g>
<g opacity="0.6">
<g opacity="0.6">
<g opacity="0.6">
<path opacity="0.6" d="M33.0135 32.211L25.0728 45.9647C24.4241 47.0883 23.0061 47.4683 21.8825 46.8195L15.5225 43.1476C14.3989 42.4989 14.0189 41.0809 14.6677 39.9573L15.4592 38.5864L21.7067 42.1934C22.8304 42.8422 24.2483 42.4622 24.8971 41.3386L32.8378 27.5849C32.9805 27.3377 33.1007 27.0775 33.176 26.7914C33.388 26.1647 33.4298 25.4696 33.2942 24.8221C33.2502 24.5869 33.2192 24.3293 33.2236 24.0621L34.8641 25.0093L33.9689 26.56C33.7223 26.987 33.5432 27.4529 33.467 27.9482C33.3908 28.4436 33.3854 28.9199 33.483 29.4257C33.6055 30.0957 33.5768 30.7683 33.3648 31.395C33.2765 31.7036 33.1562 31.9638 33.0135 32.211Z" fill="#B3B3B3"/>
</g>
</g>
</g>
<g opacity="0.3">
<path d="M15.1849 40.2557L23.1255 26.502C23.2683 26.2548 23.4335 26.0206 23.6211 25.7993C23.7344 25.655 23.8702 25.5236 24.006 25.3923C24.3614 25.0881 24.7488 24.8323 25.1776 24.6604C26.0708 24.3071 26.8205 23.6313 27.3266 22.7548L28.2218 21.2042L27.8847 21.0095L26.9895 22.5602C26.4964 23.4142 25.6887 24.0865 24.7506 24.4139C24.2993 24.5728 23.867 24.8026 23.5116 25.1068C23.3533 25.2252 23.2175 25.3566 23.1042 25.5009C22.9166 25.7222 22.7514 25.9564 22.6086 26.2036L14.668 39.9572C14.0192 41.0809 14.3992 42.4988 15.5228 43.1476L15.8374 43.3292C14.8261 42.7454 14.5361 41.3793 15.1849 40.2557Z" fill="white"/>
<g opacity="0.3">
<g opacity="0.3">
<g opacity="0.3">
<path opacity="0.3" d="M33.352 31.4177C33.564 30.791 33.6057 30.0959 33.4702 29.4483C33.3727 28.9426 33.378 28.4662 33.4543 27.9709C33.5305 27.4755 33.7096 27.0096 33.9561 26.5826L34.8514 25.032L34.5143 24.8373L33.619 26.388C33.3725 26.815 33.1934 27.2809 33.0947 27.7633C32.996 28.2456 32.9906 28.722 33.0432 29.2018C33.1208 29.8459 33.0696 30.5055 32.8576 31.1322C32.7598 31.4054 32.6396 31.6656 32.4969 31.9128L24.5562 45.6664C23.9074 46.7901 22.5794 47.2219 21.5681 46.638L21.8827 46.8197C23.0064 47.4684 24.4243 47.0885 25.0731 45.9648L33.0137 32.2112C33.1565 31.964 33.2767 31.7038 33.352 31.4177Z" fill="#B3B3B3"/>
</g>
</g>
</g>
</g>
<g opacity="0.6">
<g opacity="0.6">
<g opacity="0.6">
<path opacity="0.6" d="M23.6072 26.0309C23.5683 26.0983 23.5389 26.2012 23.6028 26.298C23.6443 26.3819 23.7117 26.4208 23.7661 26.4822C24.0548 26.7088 24.3789 26.9259 24.716 27.1205C25.2329 27.4189 25.7144 27.7269 26.2312 28.0253C26.3886 28.1161 26.5683 28.2199 26.7516 28.2658C26.9349 28.3117 27.1346 28.2772 27.19 28.1293C27.2843 27.9141 27.0086 27.665 26.7873 27.4774C26.3897 27.128 26.2878 26.8893 26.2897 26.4709C26.288 26.1104 26.5077 25.9376 25.9873 25.6971C25.422 25.4306 23.8408 25.6264 23.6072 26.0309Z" fill="white"/>
</g>
</g>
</g>
<g opacity="0.7">
<g opacity="0.7">
<g opacity="0.7">
<path opacity="0.7" d="M27.3198 21.3125L26.9565 21.9418L34.53 26.3143L34.8933 25.6851L27.3198 21.3125ZM34.2388 25.9364L27.4294 22.005L27.624 21.6679L34.4334 25.5993L34.2388 25.9364Z" fill="#BABABA"/>
</g>
</g>
</g>
</svg>
