<svg width="56" height="56" viewBox="0 0 56 56" fill="none" xmlns="http://www.w3.org/2000/svg">
<circle cx="28" cy="28" r="28" fill="#DBFDAF"/>
<path d="M27.273 16.2949H26.2207V35.6445H27.273H28.3252V16.2949H27.273Z" fill="#1A8856"/>
<path opacity="0.34" d="M26.6857 16.2949H26.5078V35.6445H26.6857H26.8905V16.2949H26.6857Z" fill="white"/>
<path opacity="0.7" d="M26.6332 16.2949H26.6035V35.6445H26.6332H26.6992V16.2949H26.6332Z" fill="white"/>
<g style="mix-blend-mode:multiply" opacity="0.5">
<path d="M28.2669 49C33.959 49 38.5734 48.3715 38.5734 47.5962C38.5734 46.8209 33.959 46.1924 28.2669 46.1924C22.5748 46.1924 17.9604 46.8209 17.9604 47.5962C17.9604 48.3715 22.5748 49 28.2669 49Z" fill="#B3B3B3"/>
</g>
<path d="M30.6891 32.7736C30.4066 32.6989 30.1188 32.6459 29.8281 32.6152L30.8144 34.2609C30.9194 33.9711 31.0041 33.6745 31.0679 33.3731C31.0832 33.309 31.0854 33.2426 31.0746 33.1777C31.0638 33.1128 31.0401 33.0506 31.0048 32.9949C30.9696 32.9391 30.9235 32.8908 30.8693 32.8528C30.8151 32.8149 30.7539 32.7879 30.6891 32.7736V32.7736Z" fill="#BB974F"/>
<path d="M30.7466 34.3244C30.5466 34.4487 30.1477 34.1765 29.855 33.7155C29.5623 33.2545 29.4858 32.7803 29.6857 32.6551C29.7282 32.6321 29.7752 32.6185 29.8234 32.6152C30.0387 32.6152 30.3314 32.8761 30.5772 33.264C30.8336 33.6662 30.9235 34.0788 30.8097 34.2609C30.7932 34.2861 30.7717 34.3077 30.7466 34.3244V34.3244Z" fill="#805E1B"/>
<path d="M30.5838 34.2467C30.5283 34.2818 30.4403 34.2467 30.3351 34.1698C30.0079 33.8838 29.7708 33.5104 29.6521 33.0942C29.6243 32.9662 29.6329 32.8732 29.6884 32.8381C29.7163 32.8247 29.7474 32.8192 29.7783 32.822C29.8417 32.837 29.9001 32.868 29.9476 32.9121C30.1088 33.0548 30.2469 33.2211 30.3571 33.4054C30.4766 33.5851 30.5655 33.7831 30.6201 33.9915C30.6418 34.0607 30.6418 34.1348 30.6201 34.204C30.6126 34.2215 30.6 34.2364 30.5838 34.2467V34.2467Z" fill="#553E12"/>
<path d="M30.6155 33.9913L27.9628 35.6786L27.2788 34.6011L29.9353 32.9118C29.9378 32.9109 29.9405 32.9109 29.943 32.9118C30.1041 33.0545 30.2422 33.2209 30.3524 33.4051C30.4719 33.5848 30.5608 33.7829 30.6155 33.9913Z" fill="#AA7D24"/>
<path d="M23.9336 33.9971L26.5891 35.6798L27.2702 34.6013L24.6118 32.9187C24.6094 32.9177 24.6066 32.9177 24.6042 32.9187C24.4434 33.0618 24.3056 33.2284 24.1957 33.4129C24.0763 33.5919 23.9877 33.7893 23.9336 33.9971V33.9971Z" fill="#AA7D24"/>
<path style="mix-blend-mode:multiply" opacity="0.3" d="M23.9336 33.9971L26.5891 35.6798L27.2702 34.6013L24.6118 32.9187C24.6094 32.9177 24.6066 32.9177 24.6042 32.9187C24.4434 33.0618 24.3056 33.2284 24.1957 33.4129C24.0763 33.5919 23.9877 33.7893 23.9336 33.9971V33.9971Z" fill="url(#paint0_linear_1_12923)"/>
<g style="mix-blend-mode:multiply" opacity="0.2">
<path d="M24.6118 32.9187C24.6094 32.9177 24.6066 32.9177 24.6042 32.9187C24.4433 33.0618 24.3056 33.2284 24.1957 33.4129C24.1679 33.4565 24.144 33.4992 24.1201 33.5419C24.5582 33.7856 24.8749 34.1404 25.2326 34.4904C25.4641 34.7161 25.7339 34.9561 25.8965 35.2492L26.5891 35.6874L27.2702 34.6013L24.6118 32.9187Z" fill="#330033"/>
</g>
<path d="M27.2806 48.3553C30.3754 48.3553 32.8844 45.7819 32.8844 42.6073C32.8844 39.4328 30.3754 36.8594 27.2806 36.8594C24.1857 36.8594 21.6768 39.4328 21.6768 42.6073C21.6768 45.7819 24.1857 48.3553 27.2806 48.3553Z" fill="#1A8856"/>
<path d="M28.9068 36.1808C28.8829 35.754 28.3568 35.9579 28.3252 35.6421C28.2936 35.3262 28.1339 35.3698 28.1339 35.3698L27.2729 35.3604L26.412 35.3698C26.412 35.3698 26.2522 35.3253 26.2207 35.6421C26.1891 35.9589 25.663 35.754 25.639 36.1808C25.6151 36.6076 25.639 37.7468 25.639 37.7468C26.136 38.0306 26.6994 38.18 27.2729 38.18C27.8464 38.18 28.4099 38.0306 28.9068 37.7468C28.9068 37.7468 28.9307 36.6076 28.9068 36.1808Z" fill="#0A3320"/>
<path opacity="0.1" d="M25.8103 36.5374C25.7937 36.4477 25.8111 36.3552 25.8591 36.2775C25.9235 36.2215 25.9978 36.1777 26.0782 36.1485C26.3403 36.0005 26.3594 35.2075 26.6942 35.7159C26.7358 35.7731 26.7573 35.8421 26.7556 35.9125C26.7539 35.9829 26.729 36.0507 26.6847 36.1058C26.6043 36.1874 26.4704 36.2082 26.4034 36.3012C26.358 36.3833 26.3431 36.4786 26.3613 36.5706C26.3945 36.9879 26.4283 37.4052 26.4627 37.8226C26.2446 37.8425 25.9902 37.7277 25.9136 37.5124C25.8122 37.2307 25.8314 36.8352 25.8103 36.5374Z" fill="white"/>
<path d="M27.2731 12.4062H23.8608C23.8608 12.4062 25.3598 15.5363 26.2208 15.726L27.2731 16.2951L28.3253 15.726C29.1863 15.5363 30.6862 12.4062 30.6862 12.4062H27.2731Z" fill="#03110B"/>
<path d="M28.7194 8.59863L27.273 8.61286L25.8267 8.59863C26.081 8.921 26.2408 9.3066 26.2887 9.71313C26.3547 10.3667 26.2887 11.7429 26.2887 11.7429H28.2574C28.2574 11.7429 28.1914 10.3667 28.2574 9.71313C28.3052 9.3066 28.4651 8.921 28.7194 8.59863V8.59863Z" fill="#0A3320"/>
<path d="M29.6644 7H24.8813C24.8813 7 24.8278 8.36775 25.5194 8.66179C26.211 8.95583 27.2729 8.89038 27.2729 8.89038C27.2729 8.89038 28.3337 8.95583 29.0263 8.66179C29.7189 8.36775 29.6644 7 29.6644 7Z" fill="#AA7D24"/>
<path d="M27.273 10.8887H22.1657C22.1635 10.999 22.1834 11.1086 22.2241 11.2113C22.2648 11.314 22.3256 11.4077 22.4029 11.487C22.4802 11.5663 22.5726 11.6297 22.6747 11.6735C22.7768 11.7173 22.8867 11.7407 22.9979 11.7423H31.5452C31.6564 11.7406 31.7662 11.7171 31.8683 11.6733C31.9703 11.6294 32.0627 11.566 32.14 11.4867C32.2173 11.4074 32.278 11.3138 32.3188 11.2112C32.3595 11.1085 32.3795 10.9989 32.3775 10.8887H27.273Z" fill="#03110B"/>
<path d="M27.2729 11.7422H23.0265C23.0244 11.8525 23.0442 11.9621 23.0849 12.0648C23.1256 12.1675 23.1864 12.2612 23.2637 12.3405C23.3411 12.4198 23.4334 12.4832 23.5356 12.527C23.6377 12.5709 23.7475 12.5942 23.8588 12.5958H30.6842C30.7954 12.5941 30.9052 12.5706 31.0072 12.5268C31.1093 12.4829 31.2016 12.4195 31.2789 12.3402C31.3562 12.2609 31.417 12.1673 31.4577 12.0647C31.4985 11.962 31.5184 11.8525 31.5164 11.7422H27.2729Z" fill="#0A3320"/>
<path d="M28.3254 15.7266C27.992 15.8643 27.6343 15.9353 27.2731 15.9353C26.9119 15.9353 26.5543 15.8643 26.2209 15.7266C26.2209 15.7266 26.041 15.718 26.041 16.0339C26.041 16.3498 26.2209 16.4285 26.2209 16.4285C26.4122 16.5233 26.8168 16.5802 27.2731 16.5802C27.7294 16.5802 28.1341 16.5205 28.3254 16.4285C28.3254 16.4285 28.5062 16.3498 28.5062 16.0339C28.5062 15.718 28.3254 15.7266 28.3254 15.7266Z" fill="#AA7D24"/>
<path d="M28.3253 16.4932V17.3032C28.3253 18.1293 25.6392 19.5682 25.6392 20.6903C25.6392 21.5762 26.2208 21.7896 26.2208 21.7896V20.9796C26.2208 20.2208 28.9232 18.4613 28.9232 17.5925C28.9232 16.7066 28.3253 16.4932 28.3253 16.4932Z" fill="#03110B"/>
<path d="M28.3253 19.5283V20.3383C28.3253 21.1645 25.6392 22.6034 25.6392 23.7255C25.6392 24.6114 26.2208 24.8248 26.2208 24.8248V24.0148C26.2208 23.256 28.9232 21.4965 28.9232 20.6276C28.9232 19.7417 28.3253 19.5283 28.3253 19.5283Z" fill="#03110B"/>
<path d="M28.3253 22.5635V23.3735C28.3253 24.1997 25.6392 25.6385 25.6392 26.7606C25.6392 27.6465 26.2208 27.86 26.2208 27.86V27.0499C26.2208 26.2911 28.9232 24.5316 28.9232 23.6628C28.9232 22.7769 28.3253 22.5635 28.3253 22.5635Z" fill="#03110B"/>
<path d="M28.3253 25.5986V26.4087C28.3253 27.2348 25.6392 28.6737 25.6392 29.7958C25.6392 30.6817 26.2208 30.8951 26.2208 30.8951V30.0851C26.2208 29.3263 28.9232 27.5668 28.9232 26.698C28.9232 25.812 28.3253 25.5986 28.3253 25.5986Z" fill="#03110B"/>
<path d="M28.3253 28.6338V29.4438C28.3253 30.27 25.6392 31.7089 25.6392 32.8309C25.6392 33.7168 26.2208 33.9303 26.2208 33.9303V33.1202C26.2208 32.3567 28.9232 30.6019 28.9232 29.7331C28.9232 28.8472 28.3253 28.6338 28.3253 28.6338Z" fill="#03110B"/>
<path d="M27.273 34.2493C26.522 34.2493 26.2207 33.9297 26.2207 33.9297V35.581C26.5116 35.8346 26.8857 35.9745 27.273 35.9745C27.6603 35.9745 28.0343 35.8346 28.3252 35.581V35.581V33.9297C28.3252 33.9297 28.0239 34.2493 27.273 34.2493Z" fill="#805E1B"/>
<path d="M32.0561 47.5487C32.0561 47.5487 31.8035 47.9461 32.0561 48.4972C32.0561 48.4972 32.2292 48.7059 33.4346 48.7059C34.6399 48.7059 34.8302 48.5238 34.8302 48.5238V47.5961C34.8302 47.5961 34.5375 47.3799 33.4154 47.3799C32.2933 47.3799 32.0561 47.5487 32.0561 47.5487Z" fill="#AA7D24"/>
<path d="M35.0616 47.5967H34.8301V48.5243H35.0616V47.5967Z" fill="#0D442B"/>
<path d="M36.4554 47.3799C35.9693 47.397 35.4872 47.4744 35.0205 47.6104V48.5238C35.0205 48.5238 35.3534 48.7344 36.4554 48.7344C37.5574 48.7344 37.8903 48.5238 37.8903 48.5238V47.5961C37.4224 47.4679 36.9407 47.3953 36.4554 47.3799Z" fill="#AA7D24"/>
<path d="M37.8916 47.5967C38.4635 47.7219 39.048 47.7818 39.6336 47.775C39.757 47.775 39.7579 48.1667 39.5896 48.143C39.3868 48.1146 38.9821 48.0833 38.8052 48.2512C38.5631 48.4797 37.8916 48.5215 37.8916 48.5215V47.5967Z" fill="#0D442B"/>
<g style="mix-blend-mode:multiply" opacity="0.1">
<path d="M34.8303 47.8152V48.5238C34.8303 48.5238 34.639 48.7059 33.4346 48.7059C32.2302 48.7059 32.0561 48.4972 32.0561 48.4972C31.9906 48.3654 31.9528 48.2218 31.9449 48.0751C31.937 47.9283 31.9592 47.7815 32.0102 47.6436C32.81 48.2847 33.9464 48.3151 34.8303 47.8152ZM38.8739 47.9518C38.363 47.8655 37.9173 48.0163 37.416 48.0913C37.3538 48.1007 37.2926 48.1083 37.2314 48.115C36.7737 48.222 36.2946 48.1967 35.851 48.0419C35.5649 47.9774 35.2868 47.882 35.0216 47.7574V48.5228C35.0216 48.5228 35.3545 48.7334 36.4565 48.7334C37.5585 48.7334 37.8914 48.5228 37.8914 48.5228C37.8914 48.5228 38.5611 48.4811 38.805 48.2525C38.982 48.0846 39.3866 48.1159 39.5894 48.1444C39.6602 48.1539 39.7004 48.0903 39.7147 48.0125C39.4364 48.0543 39.1561 48.0002 38.8739 47.9518Z" fill="#330033"/>
</g>
<g style="mix-blend-mode:multiply" opacity="0.1">
<path d="M33.3908 48.5548C32.8168 48.5614 32.4045 48.3745 31.9482 48.0947C31.9605 48.234 31.9971 48.3701 32.0563 48.4969C32.0563 48.4969 32.2295 48.7056 33.4348 48.7056C34.6401 48.7056 34.8305 48.5235 34.8305 48.5235V48.1991C34.4259 48.5358 33.9083 48.5443 33.3908 48.5548Z" fill="#330033"/>
</g>
<g style="mix-blend-mode:multiply" opacity="0.1">
<path d="M38.449 48.1656C37.9439 48.2661 37.457 48.4312 36.9414 48.4758C36.4994 48.5146 35.9245 48.5839 35.4931 48.4568C35.3147 48.4019 35.1527 48.3041 35.0215 48.1722V48.5289C35.0215 48.5289 35.3544 48.7394 36.4564 48.7394C37.5584 48.7394 37.8913 48.5289 37.8913 48.5289C37.8913 48.5289 38.5609 48.4871 38.8049 48.2586C38.9818 48.0907 39.3865 48.122 39.5893 48.1504C39.6012 48.1523 39.6135 48.1516 39.6252 48.1485C39.6368 48.1454 39.6478 48.1399 39.6572 48.1324C39.2535 48.1077 38.8527 48.0821 38.449 48.1656Z" fill="#330033"/>
</g>
<path d="M25.0957 12.621C25.0957 12.621 25.222 12.621 25.4095 12.621C25.305 12.6146 25.2002 12.6146 25.0957 12.621V12.621Z" fill="#D9B34A"/>
<path opacity="0.1" d="M25.1006 38.7755C24.6119 38.8448 24.1465 39.0268 23.7416 39.3068C23.3367 39.5869 23.0037 39.9572 22.7694 40.3879C22.1657 41.5262 22.3332 42.9081 22.689 44.1412C22.8727 44.7805 23.1836 45.4871 23.8235 45.6854C24.4147 45.8684 25.0337 45.5365 25.5454 45.1978C26.5193 44.5585 27.4778 43.813 28.0077 42.781C29.1011 40.664 27.4854 38.4596 25.1006 38.7755Z" fill="white"/>
<path opacity="0.1" d="M23.4344 40.1902C22.9628 40.562 22.7342 41.1738 22.6997 41.7694C22.6653 42.3651 22.8011 42.9579 22.9389 43.5393C22.9915 43.7603 23.0518 43.9937 23.2173 44.1502C23.5119 44.4281 24.0036 44.3399 24.3499 44.1265C24.8712 43.8087 25.2223 43.2851 25.5581 42.7786C25.8661 42.312 26.1818 41.8301 26.2842 41.28C26.6037 39.5594 24.501 39.3498 23.4344 40.1902Z" fill="white"/>
<path d="M23.5593 40.8007C22.9997 41.4116 22.7271 42.4018 23.2608 42.9339C23.3814 42.4549 23.8157 40.2487 24.6058 40.2781C24.228 40.2629 23.8539 40.482 23.5593 40.8007Z" fill="white"/>
<path d="M30.2204 47.5014C28.3483 47.4255 25.4297 47.2235 23.3328 46.6885C22.645 46.513 22.0462 46.3015 21.6033 46.0473C20.1798 45.2306 17.0843 42.94 18.3938 39.3129C18.809 38.1623 19.7015 36.3725 20.6467 34.4688C21.0513 33.656 21.4693 32.8175 21.8721 31.9819C22.4742 32.7005 23.1839 33.3234 23.9766 33.8286C24.0326 33.6817 24.1038 33.5409 24.189 33.4084C24.2729 33.2736 24.3689 33.1466 24.4759 33.029C23.7566 32.5737 22.931 31.8054 22.3236 31.0286C23.3902 28.7759 24.2703 26.6436 24.409 25.2598C24.6233 23.173 24.5754 20.3949 23.129 18.9996C22.4336 18.3271 21.5028 18.0577 20.3731 18.2C19.0434 18.3669 18.0055 19.1485 17.4506 20.3958C16.6012 22.3052 16.9781 25.0037 18.3671 26.9585C18.8798 27.6794 19.3457 28.3813 19.802 29.0671C20.2898 29.805 20.7519 30.5069 21.2206 31.1462C20.7567 32.1165 20.264 33.1039 19.7857 34.0553C18.8253 35.976 17.9117 37.7934 17.4784 38.9942C16.892 40.6152 16.9828 42.1774 17.7826 43.6371C18.4579 44.8702 19.5906 45.9866 21.1307 46.8687C22.1351 47.4454 23.7862 47.8172 25.5033 48.0581C26.3145 48.172 27.1391 48.2564 27.9188 48.318C30.1008 48.4935 31.925 48.4973 32.0609 48.4973V47.5488C32.0609 47.5488 31.3186 47.5469 30.2204 47.5014ZM20.5988 28.5435C20.1435 27.8549 19.6719 27.1416 19.1505 26.4084C17.9634 24.739 17.6199 22.3697 18.3259 20.7743C18.6196 20.1151 19.2337 19.2955 20.4936 19.1371C20.6433 19.1178 20.7941 19.108 20.9451 19.1077C21.5698 19.1077 22.0682 19.2974 22.4613 19.6768C23.3758 20.5618 23.7298 22.511 23.4581 25.1649C23.3376 26.3335 22.6067 28.1641 21.6855 30.1569C21.3306 29.6495 20.9719 29.1079 20.5988 28.5435Z" fill="#0D442B"/>
<path opacity="0.1" d="M25.0431 7.43775C25.0259 7.35523 25.024 7.24805 25.0976 7.20916C25.1325 7.19291 25.1711 7.18604 25.2095 7.18924L26.8128 7.22054C26.9352 7.21108 27.0576 7.23959 27.1629 7.30211C27.3074 7.41309 27.3131 7.6303 27.2586 7.80482C27.2132 7.95334 27.1365 8.0906 27.0336 8.20751C26.9307 8.32443 26.8039 8.41833 26.6617 8.48301C25.8581 8.84724 25.1981 8.18518 25.0431 7.43775Z" fill="white"/>
<path opacity="0.1" d="M25.4076 7.34584C25.3934 7.34602 25.3794 7.34906 25.3664 7.35477C25.3534 7.36047 25.3418 7.36873 25.3321 7.37903C25.3082 7.40844 25.3225 7.45207 25.3378 7.48716C25.4016 7.62691 25.4682 7.76444 25.5377 7.89977C25.585 8.01418 25.6669 8.11127 25.7721 8.17768C25.8394 8.20351 25.9111 8.21581 25.9832 8.21386C26.0553 8.2119 26.1263 8.19574 26.1921 8.1663C26.3315 8.12554 26.4575 8.04897 26.5575 7.94435C26.7431 7.72808 26.6608 7.3999 26.3662 7.34584C26.048 7.30529 25.7258 7.30529 25.4076 7.34584V7.34584Z" fill="white"/>
<path opacity="0.05" d="M26.3586 9.42507C26.3491 9.40286 26.3442 9.379 26.3442 9.35488C26.3442 9.33077 26.3491 9.3069 26.3586 9.28469C26.3734 9.26507 26.3938 9.25039 26.4172 9.24259C26.4407 9.2348 26.4659 9.23426 26.4896 9.24106C26.5371 9.25558 26.5806 9.28055 26.6169 9.3141C26.844 9.48029 27.0134 9.71229 27.1019 9.97805C27.1542 10.1612 27.133 10.3574 27.0426 10.5253C26.967 10.6581 26.7441 10.8659 26.5757 10.7568C26.4294 10.6619 26.4954 10.3129 26.4801 10.1621C26.4598 9.91354 26.4192 9.66706 26.3586 9.42507V9.42507Z" fill="white"/>
<path opacity="0.6" d="M23.5356 11.9327C23.4256 11.9264 23.3152 11.935 23.2075 11.9583C23.5423 12.0161 24.0512 12.0133 24.5037 12.0066C25.9597 11.9858 24.6415 12.0512 26.107 11.9716C25.9367 11.9146 25.2939 11.9403 25.0145 11.9393L23.5356 11.9327Z" fill="white"/>
<path opacity="0.6" d="M22.9753 11.079C22.829 11.0727 22.6825 11.0813 22.5381 11.1046C22.9829 11.1625 23.6611 11.1596 24.26 11.153C26.1971 11.1321 24.4427 11.1976 26.3932 11.1179C26.1703 11.0572 25.3142 11.079 24.9401 11.079H22.9753Z" fill="white"/>
<path opacity="0.03" d="M26.4513 13.8067C26.2507 13.5491 26.0027 13.3316 25.7205 13.1655C25.4641 13.0135 25.1822 12.9084 24.8882 12.8553C24.7566 12.8216 24.6191 12.8171 24.4855 12.842C24.4252 12.8582 24.1593 12.9976 24.2119 13.0962C24.6902 14.0021 25.5655 15.5007 26.1663 15.7103C26.2783 15.6885 26.3839 15.6418 26.475 15.5736C26.5662 15.5054 26.6405 15.4175 26.6924 15.3167C26.8254 15.0322 26.9344 14.8425 26.8273 14.5124C26.7439 14.2574 26.6167 14.0187 26.4513 13.8067Z" fill="white"/>
<path opacity="0.03" d="M24.8024 13.7944C24.7354 13.6246 24.6981 13.3998 24.8425 13.2879C24.987 13.176 25.1812 13.2566 25.3275 13.3495C25.8674 13.6936 26.2552 14.2283 26.4123 14.8453C26.4396 14.9344 26.4478 15.0281 26.4362 15.1204C26.4303 15.1663 26.4128 15.21 26.3854 15.2475C26.358 15.2849 26.3215 15.3149 26.2794 15.3348C26.0584 15.4192 25.5715 14.9032 25.4289 14.7552C25.1589 14.4786 24.946 14.1521 24.8024 13.7944V13.7944Z" fill="white"/>
<path opacity="0.34" d="M27.1507 36.2882C26.0028 36.6866 25.7607 36.0625 25.7607 36.0625C25.7607 36.0625 26.328 36.2219 26.4065 36.2351C26.5863 36.2655 26.9775 36.3603 27.1507 36.2882Z" fill="white"/>
<path opacity="0.34" d="M25.9713 32.3616C26.1769 32.0382 26.8571 31.3647 27.1507 31.1162C27.0168 31.4776 26.2534 32.1482 26.0774 32.4915C25.9014 32.8349 26.0947 33.6402 26.0947 33.6402C26.0947 33.6402 25.602 32.9421 25.9713 32.3616Z" fill="white"/>
<path opacity="0.34" d="M25.9713 29.3264C26.1769 29.003 26.8571 28.3296 27.1507 28.0811C27.0168 28.4424 26.2534 29.113 26.0774 29.4564C25.9014 29.7998 26.0947 30.605 26.0947 30.605C26.0947 30.605 25.602 29.9069 25.9713 29.3264Z" fill="white"/>
<path opacity="0.34" d="M25.9713 26.1956C26.1769 25.8721 26.8571 25.1987 27.1507 24.9502C27.0168 25.3116 26.2534 25.9822 26.0774 26.3255C25.9014 26.6689 26.0947 27.4742 26.0947 27.4742C26.0947 27.4742 25.602 26.7761 25.9713 26.1956Z" fill="white"/>
<path opacity="0.34" d="M25.9713 23.2552C26.1769 22.9317 26.8571 22.2583 27.1507 22.0098C27.0168 22.3711 26.2534 23.0417 26.0774 23.3851C25.9014 23.7285 26.0947 24.5337 26.0947 24.5337C26.0947 24.5337 25.602 23.8356 25.9713 23.2552Z" fill="white"/>
<path opacity="0.34" d="M25.8755 20.22C26.0812 19.8966 26.7614 19.2231 27.055 18.9746C26.9211 19.336 26.1577 20.0066 25.9817 20.3499C25.8057 20.6933 25.9989 21.4986 25.9989 21.4986C25.9989 21.4986 25.5063 20.8005 25.8755 20.22Z" fill="white"/>
<path opacity="0.34" d="M26.9057 15.909C26.7818 15.8925 26.6591 15.8681 26.5383 15.8359C26.474 16.0552 26.4593 16.2858 26.4953 16.5113C26.6283 16.537 26.7628 16.5551 26.898 16.5653C26.8369 16.3504 26.8395 16.1225 26.9057 15.909V15.909Z" fill="white"/>
<path opacity="0.15" d="M24.0616 12.5958H24.8182C24.7293 12.5598 24.5887 12.4697 24.5667 12.1273C24.5806 11.9905 24.6261 11.8588 24.6996 11.7422H23.9611C23.884 11.8765 23.8521 12.0318 23.8702 12.1853C23.8882 12.3389 23.9553 12.4827 24.0616 12.5958V12.5958Z" fill="white"/>
<path opacity="0.15" d="M25.1793 10.8887H23.9835C23.8463 10.9783 23.7471 11.1147 23.7047 11.2721C23.6624 11.4295 23.6799 11.5969 23.7539 11.7423H24.9114C24.9206 11.4389 25.0132 11.1437 25.1793 10.8887Z" fill="white"/>
<path opacity="0.6" d="M26.3164 9.20801C26.4969 9.3798 26.6316 9.59324 26.7086 9.82927C26.7855 10.0653 26.8023 10.3166 26.7574 10.5606C26.7364 10.6725 26.6617 10.7503 26.5795 10.6621C26.5393 10.6194 26.5508 10.2931 26.5403 10.2201C26.4892 9.87801 26.4144 9.53986 26.3164 9.20801V9.20801Z" fill="white"/>
<path opacity="0.6" d="M26.0775 15.2826C26.1133 15.3148 26.1579 15.3356 26.2057 15.3424C26.2174 15.3434 26.2291 15.3422 26.2402 15.3386C26.2514 15.3351 26.2617 15.3295 26.2706 15.322C26.2795 15.3145 26.2868 15.3053 26.2921 15.2949C26.2974 15.2846 26.3005 15.2733 26.3014 15.2618C26.2966 15.1868 25.9503 14.9402 25.8824 14.8662C25.7436 14.715 25.6157 14.5543 25.4997 14.3853C25.3955 14.2364 25.0444 13.4368 24.9258 13.4615C24.988 14.1577 25.5332 14.8729 26.0775 15.2826Z" fill="white"/>
<g style="mix-blend-mode:multiply" opacity="0.4">
<g style="mix-blend-mode:multiply" opacity="0.4">
<path style="mix-blend-mode:multiply" opacity="0.4" d="M21.6874 30.1547C21.6013 30.0314 21.2216 29.4698 21.1345 29.3418C21.0102 29.6937 20.7366 29.8749 20.5605 30.2068C20.6419 30.3226 21.1345 31.0311 21.2168 31.1421L21.6874 30.1547Z" fill="url(#paint1_linear_1_12923)"/>
</g>
<g style="mix-blend-mode:multiply" opacity="0.4">
<path style="mix-blend-mode:multiply" opacity="0.4" d="M21.8789 31.9835C22.139 32.2931 22.4196 32.5853 22.7188 32.858C22.8872 32.5669 23.037 32.2657 23.1675 31.956C22.8702 31.6651 22.5923 31.3556 22.3352 31.0293L21.8789 31.9835Z" fill="url(#paint2_linear_1_12923)"/>
</g>
</g>
<g style="mix-blend-mode:multiply" opacity="0.3">
<path d="M21.9441 46.2193C21.8235 46.1643 21.7107 46.1073 21.6064 46.0476C20.183 45.2309 17.0874 42.9403 18.397 39.3132C18.8121 38.1626 19.7047 36.3728 20.6498 34.4691C21.0544 33.6563 21.4725 32.8178 21.8752 31.9821C22.0649 32.1244 22.2626 32.2558 22.4673 32.3758C23.137 32.7732 23.5636 33.0397 24.0983 33.5775C24.128 33.5216 24.1596 33.4656 24.194 33.4087C24.2779 33.2739 24.374 33.1469 24.481 33.0293C23.7616 32.574 22.9361 31.8057 22.3286 31.0289C23.3905 28.7762 24.2705 26.6439 24.4092 25.2601C24.6235 23.1733 24.5757 20.3952 23.1293 18.9999C22.819 18.699 22.4438 18.4719 22.0321 18.3359C21.9925 18.3502 21.9508 18.3579 21.9087 18.3587C20.6354 18.372 19.3565 18.7817 18.4496 19.698C17.5265 20.6237 17.2443 21.8919 17.3638 23.162C17.6202 25.8718 19.5487 27.8599 20.9033 30.7064C20.9892 30.864 21.0943 31.0105 21.2161 31.1427L21.6877 30.1553L21.6437 30.0918L21.4782 29.8518C21.4782 29.8518 20.9042 28.9981 20.601 28.5438C20.1457 27.8552 19.674 27.1419 19.1527 26.4087C17.9655 24.7393 17.6221 22.3699 18.3281 20.7746C18.6218 20.1153 19.2359 19.2958 20.4958 19.1374C20.6455 19.1181 20.7963 19.1083 20.9473 19.108C21.0143 19.108 21.0793 19.108 21.1386 19.1156C21.1645 19.108 21.1911 19.1029 21.218 19.1004C23.1312 18.925 23.754 21.2014 23.9635 22.6649C24.1278 23.7938 24.0429 24.9446 23.7148 26.0378C23.3656 27.2263 23.0212 28.3418 22.387 29.3851L20.9597 32.4536V32.4431C20.5486 33.5442 20.0452 34.6093 19.455 35.6273C18.6505 36.9552 18.088 38.266 17.8048 39.7912C17.5217 41.3164 17.3983 43.0237 18.3874 44.3441C18.9719 45.1218 19.7592 45.7052 20.4087 46.4223C20.6383 46.5788 20.8765 46.7296 21.1281 46.8737C22.1325 47.4504 23.7827 47.8223 25.4998 48.0632C26.311 48.177 27.1346 48.2614 27.9143 48.3231C30.0963 48.4985 31.9205 48.5023 32.0564 48.5023V47.6885C28.7455 47.6174 24.6704 48.2386 21.9441 46.2193Z" fill="#330033"/>
</g>
<g style="mix-blend-mode:multiply" opacity="0.1">
<path d="M28.9165 37.1076C28.9165 36.7728 28.9165 36.3905 28.9069 36.1809C28.883 35.7541 28.3569 35.958 28.3253 35.6421V35.4524L30.2844 34.2061C30.4652 34.3446 30.6364 34.3958 30.7465 34.3285C30.7716 34.3117 30.7931 34.2901 30.8096 34.2649C30.8249 34.2392 30.8362 34.2114 30.8431 34.1824C30.9072 34.0069 30.9942 33.6645 31.0631 33.3771C31.0915 33.2564 31.0734 33.1296 31.0124 33.0214C30.9557 33.065 30.887 33.0905 30.8153 33.0944C30.6705 33.0875 30.5321 33.0328 30.4222 32.9389C30.2781 32.8215 30.1227 32.7186 29.9582 32.6316V32.6316C29.9144 32.6257 29.8704 32.6222 29.8262 32.6211C29.7779 32.6244 29.7309 32.638 29.6885 32.661C29.5928 32.7198 29.5631 32.8507 29.5842 33.0299C29.6794 33.0449 29.7682 33.0871 29.8396 33.1514C29.8767 33.2007 29.8988 33.2595 29.9032 33.3208C29.9076 33.3822 29.8942 33.4435 29.8645 33.4976C29.8029 33.6042 29.721 33.6979 29.6234 33.7736L29.1365 34.2042C29.0045 34.3209 28.8342 34.4451 28.6697 34.3854C28.5252 34.3332 28.465 34.1663 28.4372 34.0173C28.4296 33.9737 28.4238 33.9301 28.419 33.8864L28.3234 33.9443V30.7184C28.6706 30.339 28.9213 29.9966 28.9213 29.7329C28.9213 28.847 28.3234 28.6336 28.3234 28.6336V27.6851C28.6706 27.3057 28.9213 26.9633 28.9213 26.6996C28.9213 25.8137 28.3234 25.6003 28.3234 25.6003V24.6518C28.6706 24.2724 28.9213 23.9299 28.9213 23.6663C28.9213 22.7804 28.3234 22.5669 28.3234 22.5669V21.6184C28.6706 21.239 28.9213 20.8966 28.9213 20.6329C28.9213 19.747 28.3234 19.5336 28.3234 19.5336V18.5851C28.6706 18.2057 28.9213 17.8633 28.9213 17.5996C28.9213 16.7137 28.3234 16.5003 28.3234 16.5003V16.4282C28.3234 16.4282 28.5042 16.3495 28.5042 16.0336C28.5042 15.7178 28.3253 15.7263 28.3253 15.7263C29.058 15.565 30.2519 13.2753 30.5924 12.5962H30.6881C30.7993 12.5945 30.9091 12.571 31.0112 12.5271C31.1132 12.4833 31.2055 12.4199 31.2829 12.3406C31.3602 12.2613 31.4209 12.1677 31.4617 12.065C31.5024 11.9624 31.5224 11.8528 31.5204 11.7425H31.5491C31.6603 11.7408 31.7701 11.7174 31.8721 11.6735C31.9742 11.6296 32.0665 11.5662 32.1438 11.4869C32.2211 11.4076 32.2819 11.314 32.3226 11.2114C32.3634 11.1087 32.3833 10.9992 32.3813 10.8889H28.2315C28.2203 10.4967 28.2289 10.1041 28.2574 9.71274C28.2941 9.38969 28.4026 9.07872 28.575 8.80217C28.7282 8.77084 28.8781 8.72511 29.0227 8.66558C29.7229 8.36775 29.6645 7 29.6645 7H29.3709C29.2216 7.40419 28.9731 7.76509 28.6477 8.05C28.2456 8.372 27.7996 8.63579 27.3228 8.83347C27.6624 9.21287 27.7599 9.71748 27.8135 10.316C27.8219 10.4266 27.8061 10.5377 27.7671 10.6416C27.7281 10.7456 27.6669 10.84 27.5877 10.9183C27.5877 10.9183 28.0077 11.0596 28.0077 11.3043C28.024 11.6126 27.5724 11.7397 27.5724 11.7397C27.5724 11.7397 28.4123 12.2434 27.604 12.6218C28.178 12.8504 29.0389 13.2175 28.8285 13.9659C28.6046 14.7778 27.7905 15.8847 27.7905 15.8847C27.7905 15.8847 27.7657 15.8989 27.7255 15.9188C27.8526 16.2769 27.9173 16.6538 27.9168 17.0333C27.934 17.4327 27.9991 17.8614 27.8891 18.2522C27.7532 18.735 27.4002 19.1684 27.1075 19.5678C26.8339 19.9405 26.5546 20.3076 26.2992 20.6927C26.2992 20.7031 26.2992 20.7145 26.2925 20.7249C26.2858 20.7354 26.589 20.4148 26.8732 20.1397C26.9373 20.0667 27.0023 19.9946 27.0731 19.9272C27.3333 19.6797 27.8068 19.4862 28.0613 19.8495C28.2889 20.1729 28.0842 20.6841 27.9321 20.9991C27.9321 21.0057 27.9254 21.0114 27.9226 21.0171C27.8355 21.4999 27.6423 21.958 27.2692 22.2966C27.2276 22.3348 27.1779 22.3633 27.1238 22.3801C26.7584 22.8667 26.4054 23.2043 26.2227 23.9612C26.4836 23.632 26.7651 23.3194 27.0654 23.0251C27.1484 22.9038 27.2576 22.8024 27.3849 22.7282C27.5677 22.621 27.8881 22.7083 27.9235 22.9454C27.9586 23.1744 27.9372 23.4083 27.8613 23.6274C27.8613 24.0457 27.5744 24.5379 27.2338 24.7865C26.9468 25.4608 26.2179 26.2737 26.2179 27.0496C26.2179 27.0496 26.5757 26.6218 26.8741 26.3325C26.8832 26.3044 26.8954 26.2774 26.9105 26.2519C27.0635 26.0005 27.2223 25.8222 27.5036 25.715C27.7073 25.6373 27.8862 25.8023 27.9541 25.9683C28.1215 26.3638 27.9187 26.8457 27.7389 27.2014C27.5476 27.576 27.2931 27.9535 26.9459 28.2001C26.922 28.2176 26.8959 28.2319 26.8684 28.2428C26.4857 28.8394 26.2179 29.4171 26.2179 30.0858C26.3207 29.8901 26.4397 29.7032 26.5737 29.5271C26.5856 29.4483 26.6265 29.3766 26.6885 29.326C26.9086 29.1363 27.1075 28.902 27.3773 28.773C27.6901 28.6232 28.067 28.7436 28.1139 29.1164C28.1521 29.4266 27.9599 29.7595 27.8269 30.0298C27.6011 30.4832 27.3142 30.8949 26.8846 31.1775C26.8566 31.1954 26.8264 31.2097 26.7947 31.2202C26.2504 31.9098 26.2208 33.1172 26.2208 33.1172L26.326 33.0224C26.6627 32.5917 27.626 31.3786 28.0039 32.4267C28.1359 32.7938 28.0393 33.2566 27.8881 33.6028C27.7925 33.8238 27.6117 34.1264 27.4481 34.2564C27.6451 34.485 27.8059 34.6007 27.846 34.945C27.8814 35.2589 28.0527 35.6033 27.9149 35.8556C27.9302 35.8262 28.4123 36.3535 28.4401 36.4474C28.5654 36.8828 28.5128 37.3599 28.509 37.8076C29.4818 37.8076 30.4002 38.4108 30.9005 39.2408C31.4008 40.0707 31.5022 41.0961 31.3109 42.0427C31.1195 42.9893 30.6518 43.8629 30.0759 44.6407C29.3355 45.6413 28.3789 46.5234 27.2061 46.9654C26.3451 47.2898 25.4679 47.2889 24.5792 47.4397C24.4749 47.7982 25.3694 48.0088 25.6066 48.0866C26.1474 48.2601 26.7123 48.3485 27.2807 48.3484C30.3763 48.3484 32.8854 45.7751 32.8854 42.6004C32.8854 40.0157 31.2133 37.8266 28.9165 37.1076Z" fill="#330033"/>
</g>
<g style="mix-blend-mode:multiply" opacity="0.1">
<path d="M28.9166 37.1076C28.9166 36.7728 28.9166 36.3905 28.907 36.1809C28.8831 35.7541 28.357 35.958 28.3254 35.6421V35.4524L30.2846 34.2061C30.4654 34.3446 30.6366 34.3958 30.7466 34.3285C30.7718 34.3117 30.7932 34.2901 30.8097 34.2649C30.825 34.2392 30.8363 34.2114 30.8432 34.1824C30.9073 34.0069 30.9944 33.6645 31.0632 33.3771C31.0786 33.3134 31.0811 33.2473 31.0705 33.1826C31.06 33.1179 31.0367 33.056 31.0019 33.0002C30.9672 32.9445 30.9217 32.8962 30.868 32.858C30.8143 32.8198 30.7536 32.7925 30.6892 32.7776C30.4068 32.7029 30.1189 32.6499 29.8283 32.6192C29.78 32.6225 29.733 32.6361 29.6905 32.6591C29.5795 32.7293 29.5537 32.9076 29.6035 33.1333L28.3254 33.9377V30.7184C28.6727 30.339 28.9233 29.9966 28.9233 29.7329C28.9233 28.847 28.3254 28.6336 28.3254 28.6336V27.6851C28.6727 27.3057 28.9233 26.9633 28.9233 26.6996C28.9233 25.8137 28.3254 25.6003 28.3254 25.6003V24.6518C28.6727 24.2724 28.9233 23.9299 28.9233 23.6663C28.9233 22.7804 28.3254 22.5669 28.3254 22.5669V21.6184C28.6727 21.239 28.9233 20.8966 28.9233 20.6329C28.9233 19.747 28.3254 19.5336 28.3254 19.5336V18.5851C28.6727 18.2057 28.9233 17.8633 28.9233 17.5996C28.9233 16.7137 28.3254 16.5003 28.3254 16.5003V16.4282C28.3254 16.4282 28.5062 16.3495 28.5062 16.0336C28.5062 15.7178 28.3254 15.7263 28.3254 15.7263C29.0582 15.565 30.252 13.2753 30.5926 12.5962H30.6882C30.7995 12.5945 30.9093 12.571 31.0113 12.5271C31.1134 12.4833 31.2057 12.4199 31.283 12.3406C31.3603 12.2613 31.4211 12.1677 31.4618 12.065C31.5026 11.9624 31.5225 11.8528 31.5205 11.7425H31.5492C31.6604 11.7408 31.7702 11.7174 31.8723 11.6735C31.9743 11.6296 32.0666 11.5662 32.1439 11.4869C32.2213 11.4076 32.282 11.314 32.3228 11.2114C32.3635 11.1087 32.3835 10.9992 32.3814 10.8889H28.2317C28.2204 10.4967 28.2291 10.1041 28.2575 9.71274C28.2943 9.38969 28.4027 9.07872 28.5751 8.80217C28.7284 8.77084 28.8783 8.72511 29.0228 8.66558C29.723 8.36775 29.6647 7 29.6647 7H27.0866C27.353 7.02569 27.608 7.1202 27.8261 7.27412C28.6182 7.83184 27.4272 8.92737 26.2219 8.84295C26.2219 8.84295 27.3516 9.01748 27.5152 9.76206C27.6788 10.5066 27.2732 10.8889 27.2732 10.8889H24.2876C24.919 10.8889 27.0933 10.9297 27.0225 11.3157C26.9604 11.6591 25.7531 11.7274 25.1792 11.7425C25.7608 11.7425 26.9967 11.7966 27.0225 12.1722C27.0484 12.5478 25.9377 12.5839 25.3839 12.5962C25.9148 12.6209 26.9881 12.8201 27.2808 13.8056C27.6788 15.1411 27.2569 15.7747 26.6915 15.8733C26.6915 15.8733 27.3487 16.1076 27.0206 16.5733C27.2633 17.2264 27.3523 17.9259 27.2808 18.6183C27.2808 18.6183 26.4294 19.9661 26.2955 20.7249C26.2955 20.7249 27.0063 19.9794 27.2808 19.7764C27.5554 19.5734 27.6874 21.5682 27.2732 22.1762C26.859 22.7841 26.4323 23.1038 26.2209 23.9612C26.2209 23.9612 27.0818 22.8799 27.2732 22.8932C27.4645 22.9065 27.5161 24.0039 27.2655 24.6954C27.0149 25.3869 26.2132 26.2386 26.2132 27.0496C25.645 26.4179 26.6973 25.4874 27.2655 26.1182C27.4568 26.3325 27.6386 27.1207 27.122 27.8596C26.6055 28.5985 26.2132 29.2738 26.2132 30.0848C26.2132 30.0848 26.748 29.0415 27.0742 29.2425C27.4004 29.4436 27.012 30.9916 27.012 30.9916C26.2467 31.592 26.2113 33.1201 26.2113 33.1201C26.2113 33.1201 27.0991 32.3347 27.2636 32.2759C27.4281 32.2171 27.5994 34.1729 26.924 34.226C26.924 34.226 27.5094 34.2611 27.2713 35.9238C27.2775 35.9384 27.2855 35.9521 27.2952 35.9646C27.3526 36.0434 27.2952 36.2169 27.3621 36.3089C27.4444 36.4237 27.7314 36.2871 27.761 36.4209C27.8228 36.7272 27.8229 37.0426 27.7613 37.3489C27.6997 37.6552 27.5777 37.9465 27.4023 38.206C27.4492 38.1339 28.0719 38.2932 28.1485 38.3226C28.3681 38.4243 28.5682 38.5633 28.7396 38.7333C29.1142 39.0822 29.3964 39.5171 29.5614 39.9996C29.787 40.694 29.8317 41.4337 29.6915 42.1499C29.3251 44.2318 27.6759 46.0388 25.6221 46.6079C25.3418 46.6856 25.0481 46.7463 24.8185 46.9285C24.6511 47.0622 24.4875 47.3515 24.5822 47.5706C24.6769 47.7897 25.0749 47.9026 25.2987 47.9889C25.9307 48.232 26.6029 48.3562 27.2808 48.355C30.3764 48.355 32.8856 45.7817 32.8856 42.607C32.8856 40.0157 31.2134 37.8266 28.9166 37.1076Z" fill="#330033"/>
</g>
<path opacity="0.1" d="M26.4121 35.7516C26.5663 35.8235 26.7263 35.8825 26.8904 35.928V34.2226C26.7288 34.1862 26.5691 34.1416 26.4121 34.0889V35.7516Z" fill="white"/>
<path opacity="0.4" d="M26.5874 34.1377V35.8241L26.6993 35.8678V34.1737C26.662 34.1624 26.6257 34.151 26.5874 34.1377Z" fill="white"/>
<path opacity="0.1" d="M32.8647 47.4862C32.7977 47.4835 32.7314 47.4996 32.6733 47.5327C32.6452 47.5508 32.6253 47.5791 32.6182 47.6117C32.611 47.6442 32.6171 47.6782 32.6351 47.7063C32.6664 47.7339 32.7061 47.7506 32.748 47.7537C32.9335 47.7859 34.3139 48.0382 34.3101 47.7603C34.3024 47.3904 33.0579 47.4786 32.8647 47.4862Z" fill="white"/>
<path opacity="0.1" d="M35.7247 47.4961C35.6621 47.5031 35.6025 47.526 35.5515 47.5625C35.5266 47.5814 35.5089 47.6081 35.5013 47.6382C35.4936 47.6684 35.4965 47.7002 35.5094 47.7285C35.5403 47.768 35.5851 47.7944 35.6347 47.8025C35.8471 47.8632 37.5623 48.1411 37.5422 47.8139C37.5307 47.6242 37.0256 47.517 36.8955 47.4923C36.5085 47.4206 36.1112 47.4219 35.7247 47.4961V47.4961Z" fill="white"/>
<defs>
<linearGradient id="paint0_linear_1_12923" x1="23.9336" y1="34.2978" x2="27.2702" y2="34.2978" gradientUnits="userSpaceOnUse">
<stop stop-color="#330033"/>
<stop offset="0.23" stop-color="#330033"/>
<stop offset="1" stop-color="#330033"/>
</linearGradient>
<linearGradient id="paint1_linear_1_12923" x1="21.3947" y1="30.4705" x2="20.7832" y2="29.8279" gradientUnits="userSpaceOnUse">
<stop stop-color="#330033"/>
<stop offset="0.77" stop-color="#330033"/>
<stop offset="1" stop-color="#330033"/>
</linearGradient>
<linearGradient id="paint2_linear_1_12923" x1="22.2836" y1="31.7094" x2="23.0108" y2="32.4744" gradientUnits="userSpaceOnUse">
<stop stop-color="#330033"/>
<stop offset="0.77" stop-color="#330033"/>
<stop offset="1" stop-color="#330033"/>
</linearGradient>
</defs>
</svg>
