<svg width="56" height="56" viewBox="0 0 56 56" fill="none" xmlns="http://www.w3.org/2000/svg">
<circle cx="28" cy="28" r="28" fill="#FDAFB9"/>
<path d="M33.6345 11.87L31.1679 11.2091C30.9732 11.1569 30.8306 10.91 30.8828 10.7152L31.6481 7.85919C31.7003 7.66446 31.9472 7.5219 32.1419 7.57408L34.6085 8.235C34.8032 8.28718 34.9458 8.53409 34.8936 8.72882L34.1283 11.5849C34.0761 11.7796 33.8941 11.9395 33.6345 11.87Z" fill="#9EA5CA"/>
<path opacity="0.4" d="M31.1425 10.7848L31.9077 7.92876C31.9599 7.73403 32.1419 7.57408 32.4015 7.64365L32.1419 7.57408C31.9472 7.5219 31.7003 7.66446 31.6481 7.85919L30.8828 10.7152C30.8306 10.91 30.9732 11.1569 31.1679 11.2091L31.3626 11.2612C31.1679 11.2091 31.0903 10.9795 31.1425 10.7848Z" fill="white"/>
<path d="M23.8681 48.8377L21.2068 48.1246C20.0384 47.8115 19.3905 46.5944 19.6862 45.4909L28.0347 14.334L34.8502 16.1602L26.5018 47.3171C26.2061 48.4206 25.0365 49.1507 23.8681 48.8377Z" fill="#4D4F62"/>
<path opacity="0.2" d="M24.5534 47.8389C24.696 48.0858 25.0854 48.1902 25.3323 48.0476C25.8261 47.7625 26.2249 47.3128 26.3641 46.7935L34.3473 16.9997C34.3995 16.805 34.2569 16.5581 34.0622 16.5059L32.764 16.1581C32.5692 16.1059 32.3223 16.2484 32.2702 16.4432L24.3043 46.1721C24.1478 46.7562 24.2683 47.3451 24.5534 47.8389Z" fill="#818FDB"/>
<path opacity="0.4" d="M24.3572 48.8296L21.7608 48.1339C20.5924 47.8208 19.9272 46.6686 20.2403 45.5002L28.5539 14.4731L28.0347 14.334L19.6862 45.4909C19.3731 46.6593 20.0384 47.8115 21.2068 48.1246L23.8681 48.8377C24.1277 48.9073 24.4697 48.9293 24.6992 48.8517C24.6343 48.8343 24.4871 48.8644 24.3572 48.8296Z" fill="#ACB3DB"/>
<path opacity="0.4" d="M23.7696 47.9069C22.6013 47.5938 21.936 46.4416 22.2491 45.2732L30.3714 14.9601L28.0347 14.334L19.6862 45.4909C19.3731 46.6593 20.0384 47.8115 21.2068 48.1246L23.8681 48.8377C24.5172 49.0116 25.2532 48.861 25.7169 48.4287L23.7696 47.9069Z" fill="#4D4F62"/>
<path d="M35.101 12.8884L29.4538 11.3753C29.1293 11.2883 28.7827 11.5433 28.6957 11.8679L28.0348 14.3344L34.8504 16.1607L35.5113 13.6941C35.5982 13.3695 35.4256 12.9754 35.101 12.8884Z" fill="#9EA5CA"/>
<path opacity="0.2" d="M31.9204 12.0362L29.4538 11.3753C29.1293 11.2883 28.7827 11.5433 28.6957 11.8679L28.0348 14.3344L31.0856 15.1519L31.9204 12.0362Z" fill="#393E62"/>
<path opacity="0.3" d="M29.5187 11.3927C29.1293 11.2883 28.7827 11.5433 28.6957 11.8679L28.0348 14.3344L28.6839 14.5084L29.5187 11.3927Z" fill="#ACB3DB"/>
<path opacity="0.3" d="M34.5817 12.7489L32.8291 12.2793L31.9943 15.395L33.7468 15.8646L34.5817 12.7489Z" fill="white"/>
<path opacity="0.4" d="M28.8302 11.6258L35.5809 13.4346C35.5032 13.2051 35.3607 12.9582 35.101 12.8886L29.4539 11.3755C29.1942 11.3059 28.9473 11.4485 28.8302 11.6258Z" fill="white"/>
<path opacity="0.3" d="M34.9069 15.6887L28.1562 13.8799L28.0345 14.3343L34.7852 16.1431L34.9069 15.6887Z" fill="#35438D"/>
<path opacity="0.3" d="M33.0801 19.6515C32.6974 21.0795 31.1986 21.9998 29.7056 21.5997C28.2776 21.2171 27.3574 19.7182 27.7574 18.2253C28.1575 16.7324 29.6864 15.9594 31.1794 16.3594C32.6074 16.742 33.4627 18.2235 33.0801 19.6515Z" fill="black"/>
<path d="M32.8203 19.5822C32.4725 20.8804 31.1557 21.6407 29.8574 21.2928C28.5592 20.945 27.799 19.6281 28.1468 18.3299C28.4947 17.0317 29.8115 16.2714 31.1097 16.6193C32.343 16.9498 33.1682 18.284 32.8203 19.5822Z" fill="#9EA5CA"/>
<path opacity="0.4" d="M31.1314 20.1737C29.8982 19.8432 29.1205 18.5913 29.4683 17.2931C29.5205 17.0983 29.5727 16.9036 29.6724 16.7912C28.9838 17.0241 28.4031 17.6337 28.1943 18.4127C27.8639 19.646 28.5593 20.9454 29.8575 21.2933C30.896 21.5716 31.9961 21.101 32.4517 20.1796C32.0101 20.2699 31.5858 20.2954 31.1314 20.1737Z" fill="white"/>
<path opacity="0.2" d="M30.5115 17.2939C31.8097 17.6417 32.57 18.9586 32.2222 20.2568C32.17 20.4515 32.1178 20.6462 32.0007 20.8236C32.3647 20.5037 32.6163 20.0841 32.7554 19.5648C33.1033 18.2666 32.343 16.9498 31.0448 16.6019C29.9413 16.3062 28.8239 16.8417 28.286 17.8107C28.9143 17.2833 29.7326 17.0852 30.5115 17.2939Z" fill="#64687F"/>
<path opacity="0.3" d="M30.6808 16.9223C31.979 17.2701 32.7393 18.587 32.3914 19.8852C32.2697 20.3395 32.0181 20.7591 31.6541 21.079C32.1653 20.729 32.5641 20.2793 32.738 19.6302C33.0859 18.332 32.3256 17.0151 31.0274 16.6673C30.1836 16.4412 29.3478 16.7042 28.7844 17.249C29.3779 16.8514 30.0317 16.7483 30.6808 16.9223Z" fill="black"/>
<path opacity="0.4" d="M34.8502 16.1602L28.0347 14.334L27.8955 14.8533L34.7111 16.6795L34.8502 16.1602Z" fill="#4D4F62"/>
<path d="M34.3026 10.9356L33.5236 10.7269L31.836 10.2747L31.0571 10.066L29.4539 11.3757L31.4012 11.8975L33.0888 12.3497L35.101 12.8888L34.3026 10.9356Z" fill="#4D4F62"/>
<path opacity="0.2" d="M32.4848 10.4488L33.1805 7.85236L32.1419 7.57408C31.9472 7.5219 31.7003 7.66446 31.6481 7.85919L31.0567 10.0661L32.4848 10.4488Z" fill="#393E62"/>
<path opacity="0.4" d="M34.6085 8.23471L33.6997 7.99121L33.004 10.5876L33.9127 10.8311L34.6085 8.23471Z" fill="white"/>
<path opacity="0.3" d="M26.3976 43.8112L26.0731 43.7242C25.8134 43.6547 25.6234 43.3254 25.6929 43.0658L26.98 38.2624C27.0496 38.0028 27.3788 37.8127 27.6384 37.8823L27.963 37.9693C28.2226 38.0388 28.4127 38.368 28.3431 38.6277L27.0561 43.431C26.9691 43.7556 26.7222 43.8982 26.3976 43.8112Z" fill="#6878C5"/>
<path opacity="0.3" d="M25.6546 46.3259L25.4599 46.2738C25.1353 46.1868 24.9453 45.8576 25.0322 45.533L25.2409 44.7541C25.3279 44.4296 25.6571 44.2395 25.9817 44.3265L26.1764 44.3786C26.5009 44.4656 26.691 44.7948 26.604 45.1194L26.3953 45.8983C26.3084 46.2228 25.9792 46.4129 25.6546 46.3259Z" fill="#6878C5"/>
</svg>
