<svg width="56" height="56" viewBox="0 0 56 56" fill="none" xmlns="http://www.w3.org/2000/svg">
<circle cx="28" cy="28" r="28" fill="#C4AFFD"/>
<path d="M34.3063 27.3911L37.5674 27.6094L37.5306 28.1592L34.2695 27.9409L34.3063 27.3911Z" fill="#333333"/>
<path d="M29.2493 23.177L29.5045 23.3243C29.6101 23.3857 29.7279 23.4233 29.8496 23.4345C29.9713 23.4456 30.0939 23.43 30.2089 23.3888C30.324 23.3476 30.4286 23.2817 30.5155 23.1958C30.6024 23.1099 30.6695 23.0061 30.712 22.8915C30.7726 22.7236 30.8531 22.5635 30.9517 22.4146C31.2783 21.9292 31.78 21.589 32.3518 21.4653C32.9236 21.3416 33.521 21.444 34.019 21.7511C34.517 22.0581 34.8768 22.546 35.023 23.1124C35.1693 23.6789 35.0906 24.2799 34.8036 24.7897C34.7376 24.9051 34.6612 25.0142 34.5754 25.1158C34.4968 25.2099 34.4398 25.3201 34.4084 25.4387C34.3769 25.5572 34.3718 25.6812 34.3933 25.8019C34.4149 25.9226 34.4626 26.0372 34.5332 26.1375C34.6037 26.2378 34.6954 26.3215 34.8017 26.3826L35.0584 26.5308C35.6083 26.8481 36.0709 27.2969 36.4044 27.8372L35.6769 29.0973L26.6986 23.9137L27.4261 22.6536C28.0681 22.6726 28.695 22.8525 29.2493 23.177V23.177Z" fill="#1A1A1A"/>
<path d="M24.8442 45.2414L18.1515 41.3774C17.8495 41.203 17.6291 40.9158 17.5388 40.5789C17.4486 40.2421 17.4958 39.8831 17.6702 39.5811L27.439 22.6611C28.0736 22.6799 28.6936 22.8559 29.2433 23.1735L35.0587 26.531C35.6086 26.8483 36.0711 27.2971 36.4046 27.8374L26.6358 44.7574C26.4619 45.0586 26.1758 45.2787 25.84 45.3694C25.5042 45.4601 25.1462 45.4141 24.8442 45.2414Z" fill="#33333E"/>
<path d="M24.8463 44.7536L18.5742 41.1323C18.4325 41.0481 18.3089 40.9367 18.2104 40.8045C18.1119 40.6724 18.0405 40.5221 18.0003 40.3623C17.9601 40.2024 17.9518 40.0362 17.976 39.8732C18.0002 39.7102 18.0564 39.5535 18.1412 39.4123L27.5526 23.1113C28.1488 23.1219 28.7326 23.2834 29.2495 23.5806L34.701 26.728C35.2184 27.027 35.6513 27.4525 35.9591 27.9647L26.545 44.2705C26.3833 44.5593 26.1138 44.7723 25.7954 44.8628C25.4771 44.9533 25.1358 44.9141 24.8463 44.7536V44.7536Z" fill="#33333E"/>
<path d="M32.2555 24.6559C31.5953 24.2747 31.3691 23.4304 31.7503 22.7701C32.1315 22.1099 32.9758 21.8836 33.636 22.2648C34.2963 22.646 34.5225 23.4903 34.1413 24.1506C33.7601 24.8109 32.9158 25.0371 32.2555 24.6559Z" fill="#AAA3FC"/>
<g style="mix-blend-mode:multiply" opacity="0.7">
<g style="mix-blend-mode:multiply" opacity="0.7">
<path d="M33.636 22.2649C33.8722 22.4012 34.0627 22.6045 34.1835 22.849C34.3043 23.0935 34.3499 23.3683 34.3147 23.6388C34.2794 23.9092 34.1649 24.1631 33.9855 24.3685C33.8061 24.5739 33.5698 24.7216 33.3066 24.7929C33.0433 24.8641 32.7649 24.8558 32.5063 24.769C32.2478 24.6822 32.0208 24.5208 31.8539 24.3051C31.687 24.0894 31.5878 23.8291 31.5687 23.557C31.5496 23.285 31.6115 23.0133 31.7466 22.7764C31.8366 22.6183 31.957 22.4794 32.1008 22.368C32.2447 22.2566 32.4091 22.1747 32.5848 22.1271C32.7604 22.0796 32.9438 22.0673 33.1242 22.0909C33.3046 22.1145 33.4786 22.1737 33.636 22.2649V22.2649ZM32.332 24.5236C32.5425 24.6451 32.7844 24.7015 33.027 24.6854C33.2696 24.6693 33.5019 24.5815 33.6946 24.4332C33.8873 24.2849 34.0316 24.0828 34.1092 23.8524C34.1868 23.622 34.1943 23.3737 34.1307 23.1391C34.0671 22.9044 33.9352 22.694 33.7518 22.5343C33.5684 22.3747 33.3418 22.2731 33.1006 22.2425C32.8594 22.2118 32.6146 22.2535 32.3971 22.3621C32.1796 22.4708 31.9993 22.6416 31.879 22.8528C31.7189 23.1348 31.6768 23.4685 31.7616 23.7814C31.8464 24.0943 32.0514 24.3611 32.332 24.5236V24.5236Z" fill="#AAA3FC"/>
</g>
</g>
<g style="mix-blend-mode:multiply" opacity="0.7">
<g style="mix-blend-mode:multiply" opacity="0.7">
<path d="M31.8876 22.7513L32.4618 23.11C32.4727 23.117 32.4858 23.1199 32.4986 23.1181C32.5114 23.1163 32.5232 23.11 32.5318 23.1003C32.5405 23.0906 32.5453 23.0782 32.5456 23.0653C32.5459 23.0523 32.5416 23.0397 32.5334 23.0296L32.099 22.5016C32.0923 22.4927 32.0875 22.4826 32.0849 22.4719C32.0822 22.4611 32.0818 22.4499 32.0836 22.439C32.0854 22.428 32.0894 22.4175 32.0953 22.4082C32.1013 22.3989 32.1091 22.3908 32.1183 22.3846C32.1271 22.3779 32.1372 22.3731 32.148 22.3704C32.1588 22.3676 32.1699 22.3671 32.1809 22.3687C32.1919 22.3704 32.2024 22.3742 32.2119 22.3799C32.2214 22.3857 32.2296 22.3933 32.2362 22.4022L32.6346 22.9599C32.6425 22.9694 32.6534 22.976 32.6655 22.9785C32.6776 22.9811 32.6902 22.9794 32.7013 22.9738C32.7123 22.9682 32.7211 22.959 32.7263 22.9478C32.7314 22.9365 32.7326 22.9238 32.7295 22.9118L32.5351 22.2556C32.531 22.2443 32.5293 22.2322 32.5302 22.2202C32.5311 22.2081 32.5346 22.1964 32.5403 22.1859C32.546 22.1753 32.554 22.166 32.5635 22.1587C32.5731 22.1513 32.5841 22.1461 32.5959 22.1434C32.6076 22.1406 32.6198 22.1403 32.6316 22.1426C32.6434 22.1449 32.6547 22.1497 32.6645 22.1566C32.6744 22.1635 32.6827 22.1724 32.6889 22.1828C32.6951 22.1931 32.699 22.2046 32.7004 22.2166L32.856 22.8819C32.8594 22.8938 32.8667 22.9042 32.8768 22.9114C32.8869 22.9186 32.8991 22.9221 32.9115 22.9215C32.9238 22.9208 32.9356 22.9159 32.9448 22.9077C32.9541 22.8994 32.9602 22.8883 32.9623 22.8761L33.0285 22.1939C33.0302 22.1828 33.0341 22.1721 33.0399 22.1625C33.0458 22.1528 33.0535 22.1444 33.0626 22.1378C33.0717 22.1311 33.082 22.1263 33.093 22.1237C33.104 22.1211 33.1154 22.1206 33.1265 22.1224C33.1489 22.1265 33.1689 22.1392 33.1821 22.1578C33.1953 22.1764 33.2007 22.1995 33.1971 22.222L33.0858 22.8949C33.0838 22.9075 33.0863 22.9204 33.0929 22.9314C33.0995 22.9424 33.1097 22.9507 33.1217 22.9549C33.1338 22.9591 33.147 22.959 33.1589 22.9545C33.1709 22.95 33.1809 22.9414 33.1872 22.9303L33.5048 22.3219C33.5094 22.3105 33.5163 22.3002 33.5252 22.2917C33.534 22.2832 33.5446 22.2768 33.5562 22.2727C33.5678 22.2687 33.5801 22.2672 33.5924 22.2684C33.6046 22.2695 33.6164 22.2733 33.627 22.2794C33.6377 22.2856 33.6469 22.2939 33.654 22.3039C33.6611 22.3139 33.666 22.3254 33.6683 22.3374C33.6706 22.3495 33.6702 22.3619 33.6673 22.3738C33.6644 22.3857 33.6589 22.3969 33.6513 22.4065L33.2905 22.9879C33.284 22.9989 33.2816 23.0118 33.2837 23.0244C33.2858 23.037 33.2922 23.0485 33.3019 23.0568C33.3116 23.0652 33.3239 23.0699 33.3367 23.0701C33.3495 23.0703 33.3619 23.066 33.3718 23.0579L33.899 22.6251C33.9172 22.6154 33.9383 22.6126 33.9584 22.6173C33.9785 22.6219 33.9962 22.6337 34.0083 22.6504C34.0204 22.6671 34.0261 22.6877 34.0242 22.7082C34.0224 22.7288 34.0132 22.748 33.9983 22.7623L33.4422 23.1616C33.4327 23.1695 33.4261 23.1804 33.4236 23.1925C33.421 23.2046 33.4227 23.2172 33.4283 23.2283C33.4339 23.2393 33.4431 23.2481 33.4543 23.2533C33.4656 23.2584 33.4783 23.2595 33.4903 23.2565L34.1427 23.0577C34.1535 23.0547 34.1647 23.0538 34.1759 23.0552C34.187 23.0566 34.1977 23.0602 34.2074 23.0658C34.2171 23.0714 34.2255 23.0789 34.2323 23.0878C34.239 23.0967 34.2439 23.1069 34.2467 23.1178C34.2519 23.1395 34.2485 23.1624 34.2374 23.1817C34.2262 23.201 34.208 23.2154 34.1866 23.2217L33.5198 23.3765C33.5073 23.3796 33.4964 23.3869 33.4889 23.3973C33.4813 23.4077 33.4777 23.4204 33.4786 23.4332C33.4794 23.4459 33.4848 23.458 33.4937 23.4672C33.5026 23.4765 33.5144 23.4823 33.5272 23.4836L34.2077 23.5489C34.2298 23.5527 34.2495 23.565 34.2625 23.5832C34.2756 23.6014 34.2811 23.6239 34.2777 23.646C34.276 23.6572 34.2721 23.6679 34.2663 23.6775C34.2604 23.6872 34.2527 23.6955 34.2436 23.7022C34.2345 23.7088 34.2241 23.7136 34.2132 23.7163C34.2022 23.7189 34.1908 23.7193 34.1797 23.7176L33.5231 23.5926C33.5105 23.5906 33.4975 23.5931 33.4866 23.5997C33.4756 23.6062 33.4673 23.6164 33.4631 23.6285C33.4589 23.6406 33.459 23.6537 33.4635 23.6657C33.468 23.6776 33.4766 23.6876 33.4877 23.6939L34.0917 24.0154C34.1078 24.0281 34.1188 24.0462 34.1227 24.0664C34.1265 24.0865 34.123 24.1074 34.1127 24.1252C34.1025 24.1429 34.0862 24.1564 34.0668 24.1632C34.0474 24.1699 34.0262 24.1695 34.0072 24.1619L33.4258 23.8011C33.4148 23.7946 33.4019 23.7922 33.3893 23.7943C33.3767 23.7964 33.3652 23.8028 33.3568 23.8125C33.3485 23.8222 33.3438 23.8345 33.3436 23.8473C33.3434 23.86 33.3477 23.8725 33.3558 23.8824L33.7865 24.4167C33.797 24.4352 33.8002 24.4568 33.7956 24.4775C33.791 24.4981 33.7789 24.5164 33.7616 24.5286C33.7444 24.5409 33.7232 24.5463 33.7021 24.5438C33.6811 24.5413 33.6617 24.5311 33.6478 24.5152L33.2501 23.96C33.2425 23.9496 33.2316 23.9423 33.2191 23.9392C33.2067 23.9361 33.1935 23.9375 33.182 23.9431C33.1705 23.9488 33.1613 23.9583 33.1561 23.97C33.1509 23.9817 33.15 23.9948 33.1535 24.0072L33.3539 24.6605C33.3577 24.6719 33.3591 24.6839 33.358 24.6959C33.3569 24.7079 33.3532 24.7195 33.3473 24.7299C33.3414 24.7404 33.3334 24.7495 33.3237 24.7566C33.314 24.7638 33.303 24.7688 33.2913 24.7714C33.2795 24.7739 33.2674 24.774 33.2556 24.7716C33.2438 24.7692 33.2327 24.7643 33.223 24.7573C33.2132 24.7502 33.205 24.7412 33.199 24.7308C33.193 24.7205 33.1892 24.7089 33.1879 24.697L33.0338 24.0326C33.0307 24.0201 33.0234 24.0092 33.013 24.0017C33.0026 23.9941 32.9899 23.9905 32.9771 23.9914C32.9644 23.9923 32.9523 23.9976 32.9431 24.0065C32.9338 24.0154 32.928 24.0273 32.9267 24.04L32.8598 24.7196C32.8536 24.7393 32.8406 24.756 32.8231 24.7668C32.8056 24.7776 32.7848 24.7818 32.7645 24.7785C32.7442 24.7752 32.7258 24.7647 32.7126 24.7489C32.6994 24.7331 32.6924 24.7131 32.6927 24.6925L32.8049 24.018C32.8069 24.0054 32.8044 23.9925 32.7979 23.9815C32.7913 23.9705 32.7811 23.9622 32.769 23.958C32.757 23.9538 32.7438 23.9539 32.7318 23.9584C32.7199 23.9629 32.7099 23.9715 32.7036 23.9826L32.3805 24.5858C32.3748 24.5953 32.3671 24.6036 32.3581 24.6101C32.3491 24.6167 32.3389 24.6214 32.328 24.6239C32.3171 24.6264 32.3059 24.6268 32.2949 24.6249C32.2839 24.623 32.2734 24.619 32.264 24.613C32.2545 24.6072 32.2462 24.5996 32.2396 24.5906C32.2331 24.5816 32.2284 24.5713 32.2259 24.5605C32.2233 24.5496 32.223 24.5384 32.2249 24.5274C32.2267 24.5164 32.2308 24.5059 32.2368 24.4965L32.5992 23.916C32.6057 23.905 32.6081 23.8921 32.606 23.8795C32.6039 23.8669 32.5974 23.8554 32.5878 23.8471C32.5781 23.8387 32.5658 23.834 32.553 23.8338C32.5402 23.8336 32.5278 23.8379 32.5178 23.846L31.9854 24.2989C31.9672 24.3114 31.9449 24.3164 31.9231 24.3128C31.9012 24.3092 31.8817 24.2973 31.8684 24.2796C31.8555 24.2611 31.8502 24.2384 31.8537 24.2161C31.8572 24.1939 31.8691 24.1738 31.887 24.1601L32.4438 23.7633C32.4541 23.7557 32.4615 23.7448 32.4646 23.7323C32.4676 23.7199 32.4662 23.7068 32.4606 23.6953C32.455 23.6837 32.4455 23.6746 32.4338 23.6694C32.4221 23.6642 32.4089 23.6632 32.3966 23.6668L31.7426 23.8646C31.7209 23.8703 31.6978 23.8672 31.6783 23.8559C31.6589 23.8447 31.6446 23.8263 31.6386 23.8046C31.6356 23.7938 31.6347 23.7826 31.6361 23.7715C31.6375 23.7603 31.6411 23.7496 31.6467 23.7399C31.6523 23.7302 31.6598 23.7218 31.6687 23.715C31.6776 23.7083 31.6878 23.7034 31.6987 23.7006L32.3619 23.5522C32.3738 23.5488 32.3842 23.5415 32.3914 23.5314C32.3986 23.5213 32.4021 23.5091 32.4014 23.4967C32.4008 23.4844 32.3959 23.4726 32.3877 23.4634C32.3794 23.4542 32.3683 23.448 32.3561 23.4459L31.6764 23.3791C31.6642 23.3788 31.6521 23.376 31.641 23.3707C31.63 23.3654 31.6202 23.3578 31.6124 23.3484C31.6045 23.339 31.5988 23.328 31.5955 23.3162C31.5923 23.3044 31.5917 23.292 31.5936 23.2799C31.5956 23.2678 31.6001 23.2563 31.6069 23.2461C31.6137 23.2359 31.6227 23.2273 31.6331 23.2209C31.6435 23.2144 31.6552 23.2103 31.6674 23.2088C31.6795 23.2073 31.6919 23.2084 31.7035 23.212L32.378 23.3242C32.3851 23.3257 32.3923 23.3257 32.3993 23.3243C32.4064 23.323 32.4131 23.3202 32.4191 23.3163C32.4251 23.3123 32.4302 23.3072 32.4342 23.3013C32.4383 23.2953 32.4411 23.2887 32.4425 23.2816C32.444 23.2746 32.444 23.2674 32.4426 23.2603C32.4413 23.2533 32.4385 23.2466 32.4346 23.2406C32.4306 23.2346 32.4255 23.2294 32.4196 23.2254C32.4136 23.2214 32.407 23.2186 32.3999 23.2172L31.7968 22.8941C31.7872 22.8883 31.779 22.8807 31.7724 22.8717C31.7659 22.8627 31.7612 22.8524 31.7586 22.8416C31.7561 22.8307 31.7558 22.8195 31.7576 22.8085C31.7595 22.7975 31.7636 22.787 31.7695 22.7776C31.7756 22.7681 31.7834 22.7599 31.7926 22.7534C31.8018 22.747 31.8122 22.7424 31.8231 22.7399C31.8341 22.7375 31.8455 22.7372 31.8565 22.7392C31.8676 22.7411 31.8782 22.7452 31.8876 22.7513V22.7513Z" fill="#AAA3FC"/>
</g>
</g>
<g opacity="0.6">
<path opacity="0.6" d="M32.5643 23.2491C32.5211 23.3239 32.5011 23.4098 32.5067 23.4959C32.5124 23.5821 32.5434 23.6646 32.596 23.7331C32.6485 23.8016 32.7202 23.853 32.802 23.8807C32.8837 23.9085 32.9719 23.9114 33.0553 23.889C33.1387 23.8667 33.2136 23.8201 33.2705 23.7552C33.3274 23.6903 33.3638 23.61 33.3751 23.5244C33.3863 23.4388 33.372 23.3518 33.3338 23.2743C33.2956 23.1969 33.2353 23.1325 33.1605 23.0894C33.0603 23.0315 32.9411 23.0158 32.8293 23.0458C32.7175 23.0757 32.6221 23.1489 32.5643 23.2491V23.2491Z" fill="#F7DEFC"/>
</g>
<g style="mix-blend-mode:multiply" opacity="0.9">
<g style="mix-blend-mode:multiply" opacity="0.9">
<path d="M29.2498 23.5803L30.4958 24.2996L21.2199 40.3659C21.1348 40.507 21.0785 40.6635 21.0541 40.8264C21.0298 40.9893 21.0379 41.1555 21.078 41.3152C21.1181 41.475 21.1893 41.6253 21.2877 41.7574C21.3861 41.8895 21.5096 42.0009 21.6512 42.0851L26.1671 44.6923C25.9761 44.8306 25.7495 44.911 25.514 44.9241C25.2786 44.9371 25.0444 44.8822 24.8394 44.7658L18.5672 41.1446C18.4256 41.0604 18.3019 40.949 18.2035 40.8168C18.105 40.6847 18.0336 40.5343 17.9934 40.3745C17.9531 40.2147 17.9449 40.0485 17.9691 39.8855C17.9932 39.7224 18.0494 39.5658 18.1343 39.4245L27.553 23.1109C28.1491 23.1216 28.7329 23.283 29.2498 23.5803V23.5803Z" fill="#33333E"/>
</g>
</g>
<g opacity="0.1">
<path opacity="0.1" d="M30.7303 24.4348L33.8869 26.2572C34.1322 26.3989 34.2162 26.7125 34.0746 26.9579L24.5523 43.451C24.4106 43.6963 24.0969 43.7804 23.8516 43.6388L20.6951 41.8163C20.4498 41.6747 20.3657 41.361 20.5073 41.1157L30.0297 24.6225C30.1713 24.3772 30.485 24.2931 30.7303 24.4348Z" fill="white"/>
</g>
<g opacity="0.3">
<path opacity="0.3" d="M35.1346 26.9776L35.196 27.0131C35.2638 27.0522 35.2871 27.139 35.2479 27.2068L25.3545 44.3427C25.3154 44.4105 25.2286 44.4338 25.1608 44.3946L25.0993 44.3591C25.0315 44.32 25.0082 44.2332 25.0474 44.1653L34.9408 27.0295C34.9799 26.9617 35.0667 26.9384 35.1346 26.9776Z" fill="white"/>
</g>
<g opacity="0.23">
<path opacity="0.23" d="M33.9735 26.3078L34.5957 26.667C34.7227 26.7404 34.7662 26.9028 34.6929 27.0298L24.9232 43.9514C24.8499 44.0784 24.6875 44.1219 24.5605 44.0486L23.9383 43.6894C23.8113 43.616 23.7678 43.4536 23.8411 43.3266L33.6108 26.405C33.6841 26.278 33.8465 26.2345 33.9735 26.3078Z" fill="white"/>
</g>
<path d="M36.2075 19.8121C36.1604 19.1751 35.9545 18.5601 35.6083 18.0234L40.6004 17.6524C40.9485 17.6267 41.2926 17.7401 41.5572 17.9677C41.8219 18.1953 41.9855 18.5185 42.0122 18.8665L42.5895 26.5714C42.6025 26.7437 42.5814 26.9168 42.5275 27.0809C42.4735 27.2451 42.3877 27.3969 42.2751 27.5279C42.1624 27.6589 42.025 27.7663 41.8708 27.8442C41.7166 27.922 41.5485 27.9687 41.3763 27.9816L36.3905 28.3562C36.6488 27.7739 36.7585 27.1365 36.7096 26.5012L36.2075 19.8121Z" fill="#33333E"/>
<path d="M35.8467 18.1815C36.1705 18.7044 36.3633 19.2977 36.4086 19.911L36.7753 24.8523L36.796 25.1184L36.8067 25.2526L36.868 26.0777L36.8893 26.3756C36.8967 26.4681 36.9002 26.5604 36.902 26.6518C36.9039 26.7431 36.8988 26.8284 36.8918 26.9168C36.8623 27.3468 36.7606 27.7687 36.5912 28.165L41.2346 27.8196C41.3978 27.8042 41.5564 27.7569 41.7014 27.6802C41.8463 27.6036 41.9747 27.4991 42.0792 27.3728C42.1837 27.2465 42.2623 27.1008 42.3105 26.9441C42.3587 26.7874 42.3755 26.6227 42.3601 26.4595L42.3581 26.4374L42.3397 26.1747L42.2967 25.6017L42.2338 24.7758L42.224 24.6399L42.2031 24.3779L41.8008 19.0107C41.7826 18.6802 41.6339 18.3703 41.3875 18.1493C41.141 17.9283 40.8169 17.8141 40.4863 17.8318L35.8467 18.1815Z" fill="#33333E"/>
<g style="mix-blend-mode:multiply" opacity="0.9">
<g style="mix-blend-mode:multiply" opacity="0.9">
<path d="M36.6264 22.2701L37.0673 28.1342L36.5974 28.1695C36.8364 27.6037 36.9365 26.9888 36.8892 26.3764L36.5387 21.6944C36.5817 21.8839 36.611 22.0763 36.6264 22.2701V22.2701Z" fill="#33333E"/>
</g>
<g style="mix-blend-mode:multiply" opacity="0.9">
<path d="M40.4854 17.8338C40.6492 17.8247 40.8131 17.8481 40.9678 17.9025C41.1225 17.9569 41.265 18.0412 41.3871 18.1507C41.5092 18.2602 41.6085 18.3927 41.6793 18.5406C41.7502 18.6885 41.7911 18.8489 41.7999 19.0127L41.952 21.041C41.8667 20.7826 41.6982 20.5596 41.4728 20.4071C41.2474 20.2545 40.9778 20.181 40.7061 20.1979L36.4491 20.5144L36.4087 19.9114C36.3643 19.2994 36.1732 18.7071 35.8515 18.1847L40.4854 17.8338Z" fill="#33333E"/>
</g>
</g>
<g opacity="0.23">
<path opacity="0.23" d="M36.8063 25.2529L36.8676 26.078L42.2962 25.602L42.2334 24.776L36.8063 25.2529Z" fill="white"/>
</g>
<g opacity="0.23">
<path opacity="0.23" d="M36.7767 24.8539L36.7959 25.119L42.2238 24.6406L42.2029 24.3786L36.7767 24.8539Z" fill="white"/>
</g>
<g opacity="0.23">
<path opacity="0.23" d="M36.902 26.6524C36.9007 26.742 36.8988 26.8291 36.8918 26.9175L42.3582 26.438L42.3397 26.1754L36.902 26.6524Z" fill="white"/>
</g>
<path d="M15.3328 16.5392C16.2064 16.0349 16.5057 14.9179 16.0013 14.0444C15.497 13.1708 14.38 12.8716 13.5065 13.3759C12.6329 13.8802 12.3336 14.9972 12.838 15.8707C13.3423 16.7443 14.4593 17.0436 15.3328 16.5392Z" fill="#999999"/>
<g style="mix-blend-mode:multiply" opacity="0.7">
<g style="mix-blend-mode:multiply" opacity="0.7">
<path d="M13.5067 13.3756C13.1935 13.5559 12.9408 13.825 12.7806 14.1488C12.6205 14.4727 12.5599 14.8368 12.6067 15.1951C12.6535 15.5534 12.8056 15.8897 13.0436 16.1616C13.2816 16.4334 13.5949 16.6286 13.9438 16.7223C14.2928 16.8161 14.6617 16.8042 15.0039 16.6883C15.3461 16.5723 15.6462 16.3574 15.8663 16.0708C16.0863 15.7842 16.2164 15.4388 16.2401 15.0783C16.2638 14.7177 16.18 14.3583 15.9994 14.0454C15.7574 13.6262 15.359 13.3203 14.8916 13.1947C14.4242 13.0692 13.9261 13.1342 13.5067 13.3756V13.3756ZM15.1314 16.1899C14.8867 16.3295 14.6061 16.3934 14.325 16.3737C14.0439 16.3539 13.775 16.2513 13.5522 16.0788C13.3294 15.9063 13.1627 15.6717 13.0732 15.4045C12.9837 15.1374 12.9753 14.8497 13.0492 14.5778C13.123 14.3059 13.2758 14.0619 13.4882 13.8768C13.7006 13.6916 13.9631 13.5736 14.2425 13.5375C14.522 13.5015 14.8059 13.549 15.0583 13.6742C15.3107 13.7994 15.5204 13.9965 15.6609 14.2408C15.7548 14.4034 15.8155 14.5829 15.8397 14.7691C15.8639 14.9552 15.851 15.1443 15.8018 15.3255C15.7526 15.5067 15.668 15.6763 15.553 15.8247C15.4379 15.973 15.2947 16.0971 15.1314 16.1899V16.1899Z" fill="#999999"/>
</g>
</g>
<g style="mix-blend-mode:multiply" opacity="0.6">
<g style="mix-blend-mode:multiply" opacity="0.6">
<path d="M15.681 15.2591C15.4152 15.4116 15.1142 15.4922 14.8078 15.4929C14.5013 15.4936 14.2 15.4143 13.9335 15.263C13.667 15.1116 13.4446 14.8934 13.2882 14.6298C13.1318 14.3663 13.0468 14.0665 13.0416 13.7601C12.8429 13.9888 12.7042 14.2634 12.6382 14.5591C12.5722 14.8549 12.5809 15.1624 12.6636 15.4539C12.7462 15.7454 12.9002 16.0117 13.1115 16.2288C13.3229 16.4459 13.5851 16.6069 13.8743 16.6973C14.1635 16.7877 14.4707 16.8046 14.768 16.7465C15.0654 16.6884 15.3436 16.5571 15.5776 16.3646C15.8115 16.172 15.9938 15.9241 16.1079 15.6435C16.222 15.3628 16.2644 15.0581 16.2313 14.7569C16.0864 14.9621 15.8986 15.1335 15.681 15.2591V15.2591Z" fill="#999999"/>
</g>
</g>
<path d="M18.0822 15.136L15.9023 16.3945L16.5156 17.4568L18.6955 16.1982L18.0822 15.136Z" fill="#4F4F4E"/>
<path d="M18.5769 15.0638L16.0652 16.7013C16.0348 16.7221 15.9976 16.7303 15.9614 16.7242C15.9251 16.7182 15.8925 16.6984 15.8705 16.6689L15.6786 16.425C15.6666 16.4098 15.6579 16.3925 15.6527 16.3739C15.6476 16.3553 15.6462 16.3359 15.6486 16.3168C15.6511 16.2977 15.6573 16.2793 15.6669 16.2626C15.6766 16.2459 15.6894 16.2313 15.7048 16.2197L18.0802 14.3657C18.1038 14.3481 18.1307 14.3355 18.1594 14.3284C18.188 14.3214 18.2177 14.3201 18.2468 14.3248C18.2759 14.3294 18.3038 14.3397 18.3288 14.3553C18.3539 14.3708 18.3756 14.3912 18.3926 14.4152L18.6319 14.7511C18.6489 14.7752 18.661 14.8024 18.6675 14.8312C18.674 14.86 18.6746 14.8898 18.6695 14.9189C18.6644 14.948 18.6536 14.9758 18.6377 15.0006C18.6218 15.0255 18.6011 15.047 18.5769 15.0638Z" fill="#666666"/>
<path d="M16.7393 17.1857L11.4579 20.235L9.82694 17.4101C9.69436 17.174 9.66085 16.8949 9.73376 16.6341C9.80668 16.3733 9.98006 16.1521 10.2159 16.019L12.9407 14.4458C13.5218 14.1103 14.8384 15.0191 14.9426 15.1406L16.7393 17.1857Z" fill="#CCCCCC"/>
<path d="M14.7328 16.5025L14.2262 16.795C14.1404 16.8446 14.111 16.9543 14.1605 17.0402L14.3277 17.3297C14.3772 17.4155 14.487 17.4449 14.5728 17.3954L15.0794 17.1028C15.1653 17.0533 15.1947 16.9435 15.1451 16.8577L14.978 16.5682C14.9284 16.4824 14.8187 16.453 14.7328 16.5025Z" fill="#4F4F4E"/>
<g style="mix-blend-mode:multiply" opacity="0.5">
<g style="mix-blend-mode:multiply" opacity="0.5">
<path d="M13.2707 18.3658C12.8632 18.5988 12.38 18.6609 11.9268 18.5384C11.4737 18.416 11.0875 18.119 10.8528 17.7125L10.1154 16.4352C10.0706 16.3583 10.037 16.2754 10.0158 16.189C9.85386 16.3432 9.74753 16.5467 9.71339 16.7677C9.67924 16.9887 9.71919 17.2147 9.827 17.4106L11.4579 20.2355L16.7394 17.1863L16.2616 16.639L13.2707 18.3658Z" fill="#CCCCCC"/>
</g>
</g>
<g style="mix-blend-mode:multiply" opacity="0.6">
<g style="mix-blend-mode:multiply" opacity="0.6">
<path d="M11.0652 15.5286L10.2137 16.0202C9.97862 16.1537 9.80593 16.3748 9.73344 16.6353C9.66095 16.8958 9.69456 17.1744 9.82693 17.4101L11.4579 20.235L12.3094 19.7433L10.6784 16.9185C10.5461 16.6827 10.5125 16.4042 10.5849 16.1437C10.6574 15.8832 10.8301 15.6621 11.0652 15.5286V15.5286Z" fill="#CCCCCC"/>
</g>
</g>
<g style="mix-blend-mode:multiply" opacity="0.6">
<g style="mix-blend-mode:multiply" opacity="0.6">
<path d="M10.1286 16.3451L12.847 14.7756C13.4282 14.44 14.7435 15.3467 14.8511 15.4691L16.4924 17.3286L16.7393 17.1861L14.9448 15.1397C14.8406 15.0182 13.524 14.1094 12.9407 14.4462L10.2159 16.0193C10.072 16.1018 9.94994 16.2175 9.86001 16.3569C9.77007 16.4962 9.71486 16.6551 9.69899 16.8202C9.78877 16.6206 9.93907 16.4544 10.1286 16.3451V16.3451Z" fill="#CCCCCC"/>
</g>
</g>
<path d="M11.3145 19.9863L19.0461 15.5225L34.5713 42.413C34.7907 42.7929 34.8502 43.2445 34.7366 43.6683C34.6231 44.0921 34.3458 44.4534 33.9658 44.6728L29.0995 47.4823C28.7195 47.7017 28.268 47.7612 27.8442 47.6476C27.4204 47.534 27.0591 47.2568 26.8397 46.8768L11.3145 19.9863Z" fill="#707EFE"/>
<g style="mix-blend-mode:multiply" opacity="0.2">
<g style="mix-blend-mode:multiply" opacity="0.4">
<path d="M18.4458 15.869L33.7695 42.4104C33.9705 42.7599 34.0246 43.1748 33.9199 43.5641C33.8153 43.9534 33.5604 44.2852 33.2113 44.4868L29.3136 46.7372C28.9646 46.9386 28.55 46.9932 28.1608 46.8889C27.7717 46.7846 27.4399 46.53 27.2384 46.1811L11.9148 19.6397L11.3145 19.9863L26.8397 46.8768C27.0591 47.2568 27.4204 47.534 27.8442 47.6476C28.268 47.7612 28.7195 47.7017 29.0995 47.4823L33.9658 44.6728C34.3458 44.4534 34.6231 44.0921 34.7366 43.6683C34.8502 43.2445 34.7907 42.7929 34.5713 42.413L19.0461 15.5225L18.4458 15.869Z" fill="#0071BC"/>
</g>
</g>
<g style="mix-blend-mode:multiply" opacity="0.28">
<g style="mix-blend-mode:multiply" opacity="0.4">
<path d="M15.542 17.5449L31.8944 45.8681L33.9657 44.6722C34.3456 44.4529 34.6229 44.0915 34.7364 43.6677C34.85 43.2439 34.7905 42.7924 34.5712 42.4124L19.0459 15.5219L15.542 17.5449Z" fill="#707EFE"/>
</g>
</g>
<g opacity="0.2">
<path opacity="0.4" d="M25.6811 41.5418C26.1427 42.0956 26.1523 42.2547 26.6522 42.0144C27.152 41.774 27.0562 40.9296 26.8657 40.2505C25.9732 37.0333 24.2649 34.0006 22.5833 31.029C20.6822 27.6675 18.7585 24.2765 16.3373 21.3119C15.7168 20.5518 13.9606 19.1617 13.8761 20.746C13.8058 21.922 15.0071 24.0667 15.6366 25.1225C17.7814 28.7292 19.553 32.0633 21.6639 35.454C22.8409 37.3403 24.2656 39.8472 25.6811 41.5418Z" fill="white"/>
</g>
</svg>
