<svg width="16" height="16" viewBox="0 0 16 16" fill="none" xmlns="http://www.w3.org/2000/svg">
<path d="M0.204594 0.422662L0.305628 0.305628C0.676086 -0.0648301 1.25579 -0.0985079 1.66429 0.204594L1.78133 0.305628L8 6.52383L14.2187 0.305628C14.6262 -0.101876 15.2869 -0.101876 15.6944 0.305628C16.1019 0.713131 16.1019 1.37383 15.6944 1.78133L9.47617 8L15.6944 14.2187C16.0648 14.5891 16.0985 15.1688 15.7954 15.5773L15.6944 15.6944C15.3239 16.0648 14.7442 16.0985 14.3357 15.7954L14.2187 15.6944L8 9.47617L1.78133 15.6944C1.37383 16.1019 0.713131 16.1019 0.305628 15.6944C-0.101876 15.2869 -0.101876 14.6262 0.305628 14.2187L6.52383 8L0.305628 1.78133C-0.0648301 1.41087 -0.0985079 0.831165 0.204594 0.422662Z" fill="#F5F5F5"/>
</svg>
