<svg width="18" height="18" viewBox="0 0 18 18" fill="none" xmlns="http://www.w3.org/2000/svg">
<path d="M3 6H6V2.67C6.00263 1.96268 6.28478 1.28509 6.78493 0.784935C7.28509 0.284783 7.96268 0.00263436 8.67 0H15.33C16.0373 0.00263436 16.7149 0.284783 17.2151 0.784935C17.7152 1.28509 17.9974 1.96268 18 2.67V9.33C17.9974 10.0373 17.7152 10.7149 17.2151 11.2151C16.7149 11.7152 16.0373 11.9974 15.33 12H12V15C12 15.7956 11.6839 16.5587 11.1213 17.1213C10.5587 17.6839 9.79565 18 9 18H3C2.20435 18 1.44129 17.6839 0.878679 17.1213C0.316071 16.5587 0 15.7956 0 15V9C0 8.20435 0.316071 7.44129 0.878679 6.87868C1.44129 6.31607 2.20435 6 3 6ZM12 9V10H15.33C15.5077 10 15.6781 9.92941 15.8038 9.80376C15.9294 9.67811 16 9.5077 16 9.33V2.67C16 2.49231 15.9294 2.32189 15.8038 2.19624C15.6781 2.07059 15.5077 2 15.33 2H8.67C8.4923 2 8.32189 2.07059 8.19624 2.19624C8.07059 2.32189 8 2.49231 8 2.67V6H9C9.79565 6 10.5587 6.31607 11.1213 6.87868C11.6839 7.44129 12 8.20435 12 9Z" fill="#F5F5F5"/>
</svg>
