<svg width="20" height="20" viewBox="0 0 20 20" fill="none" xmlns="http://www.w3.org/2000/svg">
<path d="M18.2512 8.78928C18.0864 7.49863 17.6016 6.32443 16.8598 5.25213C16.2054 4.31083 15.3958 3.5345 14.4262 2.91828C13.51 2.34574 12.521 1.96243 11.4594 1.76834C10.7855 1.64704 10.102 1.6616 9.42328 1.67616C8.72034 1.69071 8.04649 1.83627 7.38719 2.05462C5.91345 2.53982 4.6724 3.37438 3.65436 4.55343C2.62662 5.74219 1.9964 7.11532 1.72977 8.66313C1.69099 8.88147 1.70068 9.10467 1.66675 9.32301C1.66675 9.37638 1.66675 9.42975 1.66675 9.48798C1.66675 9.50739 1.66675 9.53165 1.66675 9.55106C1.66675 9.59472 1.66675 9.63839 1.66675 9.68206C1.66675 9.88585 1.66675 10.0945 1.66675 10.2983C1.66675 10.3322 1.66675 10.3614 1.66675 10.3953C1.66675 10.4147 1.66675 10.439 1.66675 10.4584C1.66675 10.4778 1.66675 10.5021 1.66675 10.5215C1.66675 10.5748 1.66675 10.6282 1.66675 10.6864C1.70553 10.9048 1.69584 11.128 1.73462 11.3463C2.07881 13.3357 3.00475 14.9999 4.52697 16.3294C5.70499 17.358 7.07208 17.9936 8.61369 18.2605C8.84154 18.2993 9.07423 18.2945 9.30208 18.3333C9.34571 18.3333 9.38934 18.3333 9.43297 18.3333C9.45236 18.3333 9.4766 18.3333 9.49599 18.3333C9.51539 18.3333 9.53963 18.3333 9.55902 18.3333C9.60265 18.3333 9.64628 18.3333 9.68991 18.3333C9.88382 18.3333 10.0777 18.3333 10.2765 18.3333C10.3201 18.3333 10.3638 18.3333 10.4074 18.3333C10.4268 18.3333 10.451 18.3333 10.4704 18.3333C10.4898 18.3333 10.514 18.3333 10.5334 18.3333C10.5528 18.3333 10.5771 18.3333 10.5965 18.3333C10.6158 18.3187 10.6352 18.3187 10.6546 18.3187C11.629 18.2993 12.5453 18.0276 13.4227 17.6297C14.5474 17.1203 15.5122 16.3876 16.3169 15.4512C17.0101 14.6457 17.524 13.7384 17.8779 12.734C18.3481 11.4482 18.416 10.1236 18.2512 8.78928ZM16.5157 12.8602C16.0406 13.9325 15.3473 14.8398 14.4311 15.5773C13.7572 16.1159 13.0107 16.5235 12.1914 16.7903C12.1526 16.8049 12.109 16.8146 12.0508 16.834C12.235 16.407 12.4774 16.0431 12.8313 15.7617C12.9525 15.6695 13.064 15.5676 13.1803 15.4706C13.2385 15.4221 13.2918 15.3638 13.3355 15.3056C13.5391 15.029 13.4712 14.7476 13.161 14.5924C12.8216 14.4177 12.4483 14.3789 12.0799 14.34C11.6727 14.2964 11.2558 14.3109 10.8485 14.243C10.4025 14.1702 10.1941 13.9519 10.1117 13.5055C10.0535 13.1755 10.0632 12.8359 10.005 12.506C9.91291 11.9868 9.60265 11.686 9.11302 11.5453C8.84154 11.4676 8.56036 11.4385 8.27919 11.4337C7.70715 11.4288 7.14964 11.3124 6.59214 11.2056C6.02495 11.0989 5.6759 11.259 5.38019 11.7587C5.05538 12.3216 4.81299 12.9232 4.47364 13.4764C4.36214 13.6559 4.25064 13.8354 4.09066 13.9858C3.72223 13.4473 3.44105 12.8747 3.23745 12.2585C3.05808 11.7151 2.94173 11.1619 2.8981 10.5942C2.89325 10.5215 2.89325 10.4778 2.97566 10.4487C3.10655 10.405 3.21805 10.3274 3.31986 10.24C3.57679 10.0169 3.87251 9.96833 4.20216 10.0169C4.4591 10.0557 4.71603 10.0799 4.97782 10.0751C5.52562 10.0605 5.87467 9.73543 5.93284 9.18715C5.95223 8.99307 5.95223 8.79899 5.94738 8.6049C5.93284 8.03721 6.1413 7.81887 6.71334 7.79946C7.17388 7.7849 7.63443 7.78005 8.09012 7.70242C8.30828 7.6636 8.52158 7.60053 8.7058 7.46952C9.16149 7.15414 9.16634 6.55733 8.71065 6.2468C8.30343 5.97023 7.83319 5.86834 7.35325 5.81011C6.90241 5.75674 6.44671 5.74704 6.00071 5.65485C5.59349 5.57236 5.26384 5.35402 4.97297 5.0726C4.8954 4.99982 4.96327 4.97556 4.99721 4.93674C5.54501 4.37876 6.18493 3.92751 6.89756 3.58302C8.10467 3.00077 9.37965 2.78243 10.7128 2.91828C10.8631 2.93284 11.0085 2.9571 11.1588 2.98136C10.897 3.05899 10.6449 3.12692 10.4219 3.26278C9.90321 3.56361 9.6996 4.04396 9.72384 4.62621C9.74808 5.17935 9.94684 5.6694 10.2765 6.10609C10.7564 6.74171 11.3576 7.23662 12.0653 7.60538C12.2205 7.68301 12.3659 7.78005 12.5259 7.84798C12.9913 8.04692 13.2046 8.42538 13.3015 8.89603C13.384 9.2939 13.4033 9.70147 13.5245 10.0896C13.7039 10.6622 14.1596 11.2347 14.9837 11.2784C15.4297 11.2978 15.7206 11.5113 15.8563 11.9431C15.9097 12.1227 15.9775 12.3022 16.089 12.4574C16.1812 12.5933 16.2975 12.7 16.4575 12.7292C16.569 12.7486 16.5447 12.7922 16.5157 12.8602Z" fill="#FFFFFF"/>
</svg>
