<svg width="48" height="48" viewBox="0 0 48 48" fill="none" xmlns="http://www.w3.org/2000/svg">
<rect opacity="0.2" width="48" height="48" rx="24" fill="#F683BA"/>
<path d="M13.8317 15.2651H34.1685C34.9674 15.2651 35.6211 14.6114 35.6211 13.8125C35.6211 13.0135 34.9674 12.3599 34.1685 12.3599H13.8317C13.0328 12.3599 12.3791 13.0135 12.3791 13.8125C12.3791 14.6114 13.0328 15.2651 13.8317 15.2651ZM35.8535 17.8798C35.7228 17.2116 35.1272 16.7177 34.4299 16.7177H13.5702C12.873 16.7177 12.2774 17.2116 12.1467 17.8798L10.694 25.143C10.5197 26.0436 11.2025 26.8861 12.1176 26.8861H12.3791V34.1492C12.3791 34.9482 13.0328 35.6019 13.8317 35.6019H25.4527C26.2516 35.6019 26.9053 34.9482 26.9053 34.1492V26.8861H32.7158V34.1492C32.7158 34.9482 33.3695 35.6019 34.1685 35.6019C34.9674 35.6019 35.6211 34.9482 35.6211 34.1492V26.8861H35.8826C36.7977 26.8861 37.4804 26.0436 37.3061 25.143L35.8535 17.8798ZM24.0001 32.6966H15.2843V26.8861H24.0001V32.6966Z" fill="#F683BA"/>
</svg>
