<svg width="30" height="28" viewBox="0 0 30 28" fill="none" xmlns="http://www.w3.org/2000/svg">
<path d="M23.7028 19.5867C23.7234 19.4201 23.7772 19.2593 23.8612 19.1139C23.9451 18.9686 24.0574 18.8415 24.1914 18.7404L27.9243 15.9333C28.4187 15.563 28.8143 15.0764 29.076 14.5168C29.3376 13.9571 29.4573 13.3416 29.4244 12.7247C29.3915 12.1078 29.207 11.5085 28.8873 10.9799C28.5676 10.4512 28.1226 10.0096 27.5915 9.69389L12.4009 0.923605C11.862 0.621529 11.257 0.456941 10.6393 0.444405C10.0217 0.43187 9.41045 0.571772 8.85974 0.851735C8.30903 1.1317 7.83581 1.54309 7.48197 2.0495C7.12813 2.55592 6.90457 3.14174 6.83107 3.75514L6.26651 8.39145C6.24591 8.55806 6.19205 8.71883 6.10811 8.86422C6.02417 9.00961 5.91187 9.13664 5.77787 9.23778L2.04499 12.0449C1.55052 12.4152 1.15497 12.9017 0.89332 13.4614C0.631673 14.021 0.512007 14.6365 0.544908 15.2534C0.577808 15.8704 0.762263 16.4696 1.08195 16.9983C1.40163 17.5269 1.84669 17.9686 2.37775 18.2843L17.5683 27.0546C18.1069 27.3636 18.7137 27.5343 19.3344 27.5516C19.955 27.5688 20.5703 27.432 21.1253 27.1534C21.6802 26.8748 22.1574 26.4631 22.5144 25.955C22.8713 25.4469 23.0968 24.8583 23.1708 24.2418L23.7028 19.5867ZM14.2353 7.76957C14.4499 7.89347 14.6229 8.07822 14.7325 8.30047C14.8421 8.52271 14.8834 8.77247 14.851 9.01815C14.8187 9.26383 14.7142 9.4944 14.5508 9.6807C14.3875 9.86701 14.1725 10.0007 13.9331 10.0648C13.6938 10.129 13.4408 10.1207 13.2061 10.041C12.9715 9.96137 12.7657 9.81392 12.6149 9.61733C12.464 9.42073 12.3748 9.18382 12.3586 8.93656C12.3424 8.68929 12.3999 8.44276 12.5238 8.22816C12.69 7.94039 12.9636 7.73041 13.2846 7.6444C13.6056 7.5584 13.9475 7.60342 14.2353 7.76957ZM15.734 20.2086C15.5194 20.0847 15.3463 19.8999 15.2367 19.6777C15.1271 19.4555 15.0859 19.2057 15.1182 18.96C15.1506 18.7143 15.255 18.4838 15.4184 18.2975C15.5818 18.1112 15.7968 17.9775 16.0361 17.9134C16.2755 17.8492 16.5285 17.8575 16.7631 17.9372C16.9978 18.0168 17.2036 18.1642 17.3544 18.3608C17.5053 18.5574 17.5944 18.7943 17.6106 19.0416C17.6268 19.2889 17.5694 19.5354 17.4455 19.75C17.2793 20.0378 17.0057 20.2478 16.6847 20.3338C16.3637 20.4198 16.0217 20.3747 15.734 20.2086ZM20.4447 13.8285L10.1758 16.58C10.0162 16.6235 9.84957 16.6349 9.68554 16.6137C9.52151 16.5924 9.36332 16.5389 9.22008 16.4562C9.07684 16.3735 8.9514 16.2633 8.85098 16.1318C8.75056 16.0004 8.67716 15.8504 8.635 15.6905C8.59154 15.5309 8.58011 15.3643 8.60136 15.2002C8.62261 15.0362 8.67613 14.878 8.75883 14.7348C8.84153 14.5915 8.95177 14.4661 9.08319 14.3657C9.21462 14.2653 9.36463 14.1919 9.52456 14.1497L19.7935 11.3981C20.1158 11.3118 20.4592 11.357 20.7481 11.5238C21.0371 11.6906 21.2479 11.9654 21.3343 12.2877C21.4206 12.61 21.3754 12.9534 21.2086 13.2423C21.0418 13.5313 20.767 13.7421 20.4447 13.8285Z" fill="#1C3102"/>
</svg>
