<svg width="32" height="32" viewBox="0 0 32 32" fill="none" xmlns="http://www.w3.org/2000/svg">
<path fill-rule="evenodd" clip-rule="evenodd" d="M28.9903 8.49996C33.1325 15.6744 30.6744 24.8482 23.5 28.9903C16.3255 33.1325 7.15173 30.6744 3.00958 23.5C-1.13257 16.3255 1.32555 7.15173 8.49996 3.00958C15.6744 -1.13257 24.8482 1.32555 28.9903 8.49996ZM12.6339 12.1698C11.6773 12.7221 11.3496 13.9453 11.9019 14.9019C12.4542 15.8585 13.6773 16.1862 14.6339 15.6339L12.6339 12.1698ZM13.366 9.43779L12.866 8.57176L11.1339 9.57176L11.6339 10.4378C9.7208 11.5423 9.06529 13.9888 10.1698 15.9019C11.2744 17.815 13.7208 18.4705 15.6339 17.366L17.6339 20.8301C16.8811 21.2647 15.9609 21.1551 15.3336 20.6188C14.9138 20.2597 14.2826 20.309 13.9237 20.7288C13.5647 21.1486 13.614 21.7798 14.0338 22.1387C15.2851 23.2087 17.1243 23.4337 18.6339 22.5621L19.1339 23.4282L20.866 22.4282L20.366 21.5621C22.2791 20.4576 22.9346 18.0112 21.8301 16.098C20.7255 14.1849 18.2791 13.5294 16.366 14.6339L14.366 11.1698C15.1188 10.7352 16.0391 10.8449 16.6663 11.3812C17.0861 11.7402 17.7173 11.6909 18.0762 11.2711C18.4352 10.8514 18.3859 10.2201 17.9661 9.86125C16.7149 8.79122 14.8756 8.56619 13.366 9.43779ZM17.366 16.366L19.366 19.8301C20.3226 19.2778 20.6503 18.0547 20.098 17.098C19.5457 16.1414 18.3226 15.8137 17.366 16.366Z" fill="#1C3102"/>
</svg>
