<svg width="17" height="20" viewBox="0 0 17 20" fill="none" xmlns="http://www.w3.org/2000/svg">
<path d="M16.0001 17.9715H2.00005C1.73484 17.9715 1.48048 18.0769 1.29295 18.2644C1.10541 18.452 1.00005 18.7063 1.00005 18.9715C1.00005 19.2368 1.10541 19.4911 1.29295 19.6786C1.48048 19.8662 1.73484 19.9715 2.00005 19.9715H16.0001C16.2653 19.9715 16.5196 19.8662 16.7072 19.6786C16.8947 19.4911 17.0001 19.2368 17.0001 18.9715C17.0001 18.7063 16.8947 18.452 16.7072 18.2644C16.5196 18.0769 16.2653 17.9715 16.0001 17.9715ZM2.00005 15.9715H2.09005L6.26005 15.5915C6.71685 15.546 7.14409 15.3448 7.47005 15.0215L16.4701 6.02154C16.8194 5.6525 17.0082 5.16005 16.995 4.65207C16.9819 4.1441 16.768 3.66205 16.4001 3.31154L13.6601 0.571538C13.3024 0.235634 12.8338 0.0428964 12.3434 0.0299896C11.8529 0.0170828 11.3748 0.184907 11.0001 0.501538L2.00005 9.50154C1.67682 9.8275 1.47556 10.2547 1.43005 10.7115L1.00005 14.8815C0.986582 15.028 1.00559 15.1756 1.05571 15.3139C1.10584 15.4522 1.18585 15.5777 1.29005 15.6815C1.38349 15.7742 1.49431 15.8475 1.61615 15.8973C1.73798 15.9471 1.86845 15.9723 2.00005 15.9715ZM12.2701 1.97154L15.0001 4.70154L13.0001 6.65154L10.3201 3.97154L12.2701 1.97154Z" fill="#F5F5F5"/>
</svg>
