<svg width="14" height="12" viewBox="0 0 14 12" fill="none" xmlns="http://www.w3.org/2000/svg">
<path d="M12.3334 0.666992H1.66671C0.933374 0.666992 0.333374 1.26699 0.333374 2.00033V10.0003C0.333374 10.7337 0.933374 11.3337 1.66671 11.3337H12.3334C13.0667 11.3337 13.6667 10.7337 13.6667 10.0003V2.00033C13.6667 1.26699 13.0667 0.666992 12.3334 0.666992ZM12.0667 3.50033L7.70671 6.22699C7.27337 6.50033 6.72671 6.50033 6.29337 6.22699L1.93337 3.50033C1.76671 3.39366 1.66671 3.21366 1.66671 3.02033C1.66671 2.57366 2.15337 2.30699 2.53337 2.54033L7.00004 5.33366L11.4667 2.54033C11.8467 2.30699 12.3334 2.57366 12.3334 3.02033C12.3334 3.21366 12.2334 3.39366 12.0667 3.50033Z" fill="#F5F5F5"/>
</svg>
