<svg width="18" height="14" viewBox="0 0 18 14" fill="none" xmlns="http://www.w3.org/2000/svg">
<path d="M15.6665 0.333496H2.33317C1.4165 0.333496 0.666504 1.0835 0.666504 2.00016V12.0002C0.666504 12.9168 1.4165 13.6668 2.33317 13.6668H15.6665C16.5832 13.6668 17.3332 12.9168 17.3332 12.0002V2.00016C17.3332 1.0835 16.5832 0.333496 15.6665 0.333496ZM15.3332 3.87516L9.88317 7.2835C9.3415 7.62516 8.65817 7.62516 8.1165 7.2835L2.6665 3.87516C2.45817 3.74183 2.33317 3.51683 2.33317 3.27516C2.33317 2.71683 2.9415 2.3835 3.4165 2.67516L8.99984 6.16683L14.5832 2.67516C15.0582 2.3835 15.6665 2.71683 15.6665 3.27516C15.6665 3.51683 15.5415 3.74183 15.3332 3.87516Z" fill="#F5F5F5"/>
</svg>
