<svg width="18" height="14" viewBox="0 0 18 14" fill="none" xmlns="http://www.w3.org/2000/svg">
<path d="M15.6666 0.333252H2.33329C1.41663 0.333252 0.666626 1.08325 0.666626 1.99992V11.9999C0.666626 12.9166 1.41663 13.6666 2.33329 13.6666H15.6666C16.5833 13.6666 17.3333 12.9166 17.3333 11.9999V1.99992C17.3333 1.08325 16.5833 0.333252 15.6666 0.333252ZM15.3333 3.87492L9.88329 7.28325C9.34163 7.62492 8.65829 7.62492 8.11663 7.28325L2.66663 3.87492C2.45829 3.74159 2.33329 3.51659 2.33329 3.27492C2.33329 2.71659 2.94163 2.38325 3.41663 2.67492L8.99996 6.16659L14.5833 2.67492C15.0583 2.38325 15.6666 2.71659 15.6666 3.27492C15.6666 3.51659 15.5416 3.74159 15.3333 3.87492Z" fill="#616161"/>
</svg>
