<svg width="20" height="20" viewBox="0 0 20 20" fill="none" xmlns="http://www.w3.org/2000/svg">
<path d="M3.92538 2.74494C3.84778 2.66729 3.75565 2.60569 3.65427 2.56366C3.55288 2.52163 3.44421 2.5 3.33447 2.5C3.22473 2.5 3.11607 2.52163 3.01468 2.56366C2.91329 2.60569 2.82117 2.66729 2.74357 2.74494C2.58685 2.90178 2.49881 3.11449 2.49881 3.33628C2.49881 3.55808 2.58685 3.77079 2.74357 3.92763L7.42918 8.61672C7.13273 9.1686 7.02186 9.80137 7.11299 10.4213C7.20413 11.0412 7.49242 11.6152 7.93514 12.0582C8.37786 12.5013 8.95144 12.7898 9.57087 12.881C10.1903 12.9722 10.8226 12.8612 11.3741 12.5645L16.0597 17.2536C16.1371 17.3317 16.2291 17.3937 16.3305 17.4359C16.4319 17.4782 16.5407 17.5 16.6506 17.5C16.7605 17.5 16.8692 17.4782 16.9707 17.4359C17.0721 17.3937 17.1641 17.3317 17.2415 17.2536C17.3195 17.1762 17.3814 17.0841 17.4237 16.9826C17.4659 16.8811 17.4877 16.7722 17.4877 16.6623C17.4877 16.5523 17.4659 16.4435 17.4237 16.342C17.3814 16.2405 17.3195 16.1484 17.2415 16.071L3.92538 2.74494ZM9.99253 11.2486C9.66144 11.2486 9.34391 11.117 9.10979 10.8827C8.87567 10.6484 8.74414 10.3306 8.74414 9.99929V9.94099L10.0425 11.2403L9.99253 11.2486Z" fill="#F5F5F5"/>
<path d="M10.1756 14.1637C6.59693 14.247 4.24996 11.1736 3.51757 9.99929C4.03896 9.16699 4.66556 8.40555 5.38183 7.73387L4.16674 6.55951C3.22739 7.44525 2.42266 8.46383 1.77816 9.58285C1.70511 9.70946 1.66666 9.85309 1.66666 9.99929C1.66666 10.1455 1.70511 10.2891 1.77816 10.4157C2.30248 11.3236 5.10719 15.8294 10.0092 15.8294H10.2172C11.139 15.8021 12.0488 15.6132 12.9054 15.2714L11.5905 13.9554C11.128 14.0772 10.6535 14.147 10.1756 14.1637ZM18.2069 9.58285C17.6743 8.65836 14.7364 4.01924 9.76783 4.16916C8.84606 4.19652 7.93623 4.38539 7.07964 4.72718L8.3946 6.04313C8.85703 5.92139 9.33157 5.85155 9.80944 5.83491C13.3798 5.74329 15.7268 8.82493 16.4675 9.99929C15.9332 10.8341 15.2926 11.5956 14.5616 12.2647L15.8183 13.4391C16.7695 12.5557 17.5855 11.537 18.2402 10.4157C18.3083 10.2862 18.341 10.141 18.3352 9.99482C18.3293 9.84861 18.2851 9.70651 18.2069 9.58285V9.58285Z" fill="#F5F5F5"/>
</svg>
