<svg width="20" height="20" viewBox="0 0 20 20" fill="none" xmlns="http://www.w3.org/2000/svg">
<path d="M18.225 9.58333C17.6918 8.65833 14.759 4.01667 9.77669 4.16667C5.16927 4.28333 2.50314 8.33333 1.77828 9.58333C1.70515 9.71002 1.66666 9.85372 1.66666 10C1.66666 10.1463 1.70515 10.29 1.77828 10.4167C2.30318 11.325 5.11095 15.8333 10.0183 15.8333H10.2266C14.834 15.7167 17.5085 11.6667 18.225 10.4167C18.2981 10.29 18.3366 10.1463 18.3366 10C18.3366 9.85372 18.2981 9.71002 18.225 9.58333V9.58333ZM10.1849 14.1667C6.59399 14.25 4.25279 11.175 3.5196 10C4.35277 8.65833 6.52734 5.91667 9.86001 5.83333C13.4343 5.74167 15.7838 8.825 16.5253 10C15.6672 11.3417 13.5176 14.0833 10.1849 14.1667V14.1667Z" fill="#F5F5F5"/>
<path d="M10.0017 7.08333C9.42491 7.08333 8.86112 7.25439 8.38157 7.57488C7.90202 7.89537 7.52826 8.35089 7.30755 8.88384C7.08683 9.41679 7.02909 10.0032 7.1416 10.569C7.25412 11.1348 7.53185 11.6545 7.93968 12.0624C8.3475 12.4703 8.86709 12.7481 9.43276 12.8606C9.99842 12.9732 10.5848 12.9154 11.1176 12.6946C11.6504 12.4739 12.1059 12.1001 12.4263 11.6204C12.7467 11.1408 12.9177 10.5769 12.9177 10C12.9177 9.22645 12.6105 8.48459 12.0636 7.93761C11.5168 7.39062 10.7751 7.08333 10.0017 7.08333V7.08333ZM10.0017 11.25C9.75448 11.25 9.51286 11.1767 9.30734 11.0393C9.10182 10.902 8.94163 10.7068 8.84704 10.4784C8.75245 10.2499 8.7277 9.99861 8.77592 9.75614C8.82414 9.51366 8.94317 9.29093 9.11795 9.11612C9.29273 8.9413 9.51542 8.82225 9.75785 8.77402C10.0003 8.72579 10.2516 8.75054 10.4799 8.84515C10.7083 8.93976 10.9035 9.09998 11.0408 9.30554C11.1781 9.5111 11.2514 9.75277 11.2514 10C11.2514 10.3315 11.1197 10.6495 10.8854 10.8839C10.651 11.1183 10.3331 11.25 10.0017 11.25Z" fill="#F5F5F5"/>
</svg>
