<svg width="20" height="20" viewBox="0 0 20 20" fill="none" xmlns="http://www.w3.org/2000/svg">
<path d="M19.2177 2.5138H7.30224C6.97465 1.54084 6.05437 0.837891 4.97236 0.837891C3.89035 0.837891 2.97007 1.54084 2.64248 2.5138H0.782573C0.350519 2.5138 0.000244141 2.86407 0.000244141 3.29612C0.000244141 3.72818 0.350519 4.07845 0.782573 4.07845H2.64253C2.97012 5.05141 3.8904 5.75436 4.97241 5.75436C6.05442 5.75436 6.9747 5.05141 7.30229 4.07845H19.2177C19.6498 4.07845 20.0001 3.72818 20.0001 3.29612C20.0001 2.86407 19.6498 2.5138 19.2177 2.5138ZM4.97236 4.1897C4.47965 4.1897 4.07878 3.78883 4.07878 3.29612C4.07878 2.80341 4.47965 2.40255 4.97236 2.40255C5.46507 2.40255 5.86594 2.80341 5.86594 3.29612C5.86594 3.78883 5.46507 4.1897 4.97236 4.1897Z" fill="#F5F5F5"/>
<path d="M19.2174 9.21692H17.3575C17.0299 8.24396 16.1096 7.54102 15.0276 7.54102C13.9456 7.54102 13.0254 8.24396 12.6978 9.21692H0.782329C0.350275 9.21692 0 9.56719 0 9.99925C0 10.4313 0.350275 10.7816 0.782329 10.7816H12.6978C13.0254 11.7545 13.9457 12.4575 15.0276 12.4575C16.1096 12.4575 17.0299 11.7545 17.3575 10.7816H19.2175C19.6495 10.7816 19.9998 10.4313 19.9998 9.99925C19.9998 9.56719 19.6495 9.21692 19.2174 9.21692ZM15.0276 10.8928C14.5349 10.8928 14.1341 10.492 14.1341 9.99925C14.1341 9.50654 14.5349 9.10567 15.0276 9.10567C15.5204 9.10567 15.9212 9.50654 15.9212 9.99925C15.9212 10.492 15.5204 10.8928 15.0276 10.8928Z" fill="#F5F5F5"/>
<path d="M19.2174 15.921H10.6539C10.3263 14.9481 9.40599 14.2451 8.32398 14.2451C7.24196 14.2451 6.32168 14.9481 5.9941 15.921H0.782329C0.350275 15.921 0 16.2713 0 16.7033C0 17.1354 0.350275 17.4857 0.782329 17.4857H5.9941C6.32168 18.4586 7.24196 19.1616 8.32398 19.1616C9.40599 19.1616 10.3263 18.4586 10.6539 17.4857H19.2175C19.6495 17.4857 19.9998 17.1354 19.9998 16.7033C19.9998 16.2713 19.6495 15.921 19.2174 15.921ZM8.32398 17.597C7.83127 17.597 7.4304 17.1961 7.4304 16.7034C7.4304 16.2107 7.83127 15.8098 8.32398 15.8098C8.81669 15.8098 9.21755 16.2106 9.21755 16.7033C9.21755 17.1961 8.81669 17.597 8.32398 17.597Z" fill="#F5F5F5"/>
</svg>
