<svg width="35" height="38" viewBox="0 0 35 38" fill="none" xmlns="http://www.w3.org/2000/svg">
<path d="M3.59662 25.3055L6.12011 34.7233C6.58401 36.4546 8.36923 37.4852 10.1005 37.0213L19.5183 34.4979L16.1537 21.9408L3.59662 25.3055ZM19.2929 21.0997L22.6576 33.6567L32.0753 31.1332C33.8066 30.6693 34.8373 28.8841 34.3734 27.1528L31.8499 17.735L19.2929 21.0997ZM27.7568 8.73782L22.869 10.0475C23.4855 9.49893 24.0148 8.8596 24.4387 8.15153C25.0831 7.03095 25.2571 5.70061 24.9226 4.45197C24.588 3.20334 23.7721 2.13823 22.6537 1.49002C20.3981 0.191707 17.3008 1.01994 15.9958 3.27569C14.1163 6.53325 15.0653 11.4622 15.1794 12.0137C15.1842 12.0444 15.2071 12.0669 15.2155 12.0983L15.1841 12.1067C15.1761 12.0769 15.1842 12.0444 15.1743 12.0134C14.9973 11.4787 13.3546 6.73566 10.0963 4.8531C7.84061 3.55479 4.74059 4.38543 3.43673 6.63919C2.79229 7.75947 2.61825 9.08955 2.95275 10.3379C3.28726 11.5863 4.10301 12.6512 5.22126 13.2991C5.93134 13.7078 6.72385 13.9782 7.53017 14.1559L2.64234 15.4655C0.911042 15.9294 -0.119654 17.7147 0.344246 19.446L1.60599 24.1549L15.7327 20.3696L14.0503 14.0911L17.1896 13.2499L18.8719 19.5285L32.9986 15.7432L31.7368 11.0343C31.5126 10.2026 30.9677 9.49377 30.2216 9.06325C29.4755 8.63274 28.5891 8.5157 27.7568 8.73782ZM6.84758 10.4846C6.57068 10.3229 6.34768 10.083 6.20657 9.79505C6.06545 9.50712 6.01249 9.18392 6.05434 8.86601C6.09618 8.54809 6.23096 8.2496 6.44178 8.00799C6.6526 7.76637 6.93006 7.59238 7.23938 7.50784C7.66004 7.39513 8.09776 7.4528 8.47349 7.6684C9.64771 8.34634 10.6326 9.86233 11.2928 11.1709C9.83259 11.2526 8.01385 11.1579 6.84758 10.4846ZM18.1184 9.34538C18.0358 7.88201 18.1304 6.07509 18.8083 4.90087C19.0255 4.52472 19.3773 4.25549 19.7964 4.1432C20.2155 4.0309 20.6548 4.08816 21.027 4.30303C21.8036 4.75273 22.0722 5.74902 21.6225 6.52562C20.945 7.70142 19.4274 8.68676 18.1184 9.34538Z" fill="#223C02"/>
</svg>
