<svg width="10" height="16" viewBox="0 0 10 16" fill="none" xmlns="http://www.w3.org/2000/svg">
<path fill-rule="evenodd" clip-rule="evenodd" d="M9.10671 15.766C8.78272 16.078 8.25875 16.078 7.93556 15.766L1.08551 9.15502C0.932173 9.0093 0.810071 8.8342 0.72664 8.63981C0.643209 8.44543 0.600206 8.23575 0.600206 8.02422C0.600206 7.81269 0.643209 7.6034 0.72664 7.40902C0.810071 7.21463 0.932173 7.03953 1.08551 6.89381L7.98516 0.233993C8.14175 0.0851581 8.34911 0.00150586 8.56514 2.00892e-05C8.78118 -0.00146569 8.98968 0.0795139 9.1483 0.22618C9.22688 0.298609 9.28975 0.386267 9.33302 0.48398C9.3763 0.581693 9.39905 0.687257 9.39988 0.79412C9.4007 0.900984 9.37958 1.00667 9.33782 1.10504C9.29606 1.20341 9.23456 1.29233 9.15711 1.36597L2.84223 7.4594C2.7655 7.53227 2.7044 7.61997 2.66265 7.7172C2.6209 7.81443 2.59935 7.91879 2.59935 8.02461C2.59935 8.13043 2.6209 8.23518 2.66265 8.33241C2.7044 8.42964 2.7655 8.51734 2.84223 8.59021L9.10671 14.6356C9.18341 14.7084 9.24449 14.7962 9.28624 14.8934C9.32798 14.9906 9.34952 15.0951 9.34952 15.2008C9.34952 15.3066 9.32798 15.411 9.28624 15.5082C9.24449 15.6054 9.18341 15.6932 9.10671 15.766" fill="#F5F5F5"/>
</svg>
