<svg width="16" height="18" viewBox="0 0 16 18" fill="none" xmlns="http://www.w3.org/2000/svg">
<path d="M7.69306 0.110369C9.70195 0.119276 11.622 0.919276 13.0264 2.32372C14.4397 3.73705 15.2308 5.64817 15.222 7.63039V7.67483C15.1686 10.3682 13.6575 12.8482 11.7731 14.7859C10.7064 15.8793 9.52417 16.8482 8.23529 17.6659C7.88862 17.9593 7.38195 17.9593 7.03528 17.6659C5.12417 16.4215 3.43528 14.8571 2.0664 13.0348C0.866395 11.4526 0.181951 9.55039 0.11084 7.56817C0.128618 3.43483 3.52417 0.101498 7.69306 0.110369ZM7.69306 5.3815C6.36862 5.3815 5.30195 6.43928 5.30195 7.75483C5.30195 9.0535 6.35084 10.1015 7.6664 10.1193H7.69306C8.32417 10.1193 8.92862 9.87928 9.37306 9.44372C9.83529 8.99039 10.094 8.38683 10.094 7.75483C10.094 6.43928 9.01751 5.3815 7.69306 5.3815Z" fill="#DEDEDE"/>
</svg>
