<svg width="12" height="14" viewBox="0 0 12 14" fill="none" xmlns="http://www.w3.org/2000/svg">
<path d="M6.01992 0.333021C7.52659 0.339701 8.96659 0.939701 10.0199 1.99303C11.0799 3.05303 11.6733 4.48637 11.6666 5.97303V6.00637C11.6266 8.02637 10.4933 9.88637 9.07992 11.3397C8.27992 12.1597 7.39325 12.8864 6.42659 13.4997C6.16659 13.7197 5.78659 13.7197 5.52659 13.4997C4.09325 12.5664 2.82659 11.393 1.79992 10.0264C0.899918 8.8397 0.386585 7.41303 0.333252 5.92637C0.346585 2.82637 2.89325 0.326368 6.01992 0.333021ZM6.01992 4.28637C5.02659 4.28637 4.22659 5.0797 4.22659 6.06637C4.22659 7.04037 5.01325 7.82637 5.99992 7.8397H6.01992C6.49325 7.8397 6.94659 7.6597 7.27992 7.33303C7.62659 6.99303 7.82059 6.54037 7.82059 6.06637C7.82059 5.0797 7.01325 4.28637 6.01992 4.28637Z" fill="#DEDEDE"/>
</svg>
