<svg width="20" height="20" viewBox="0 0 20 20" fill="none" xmlns="http://www.w3.org/2000/svg">
<path d="M17.8655 0.671875C15.2473 0.671875 12.6292 0.671875 10.0111 0.671875C7.35963 0.671875 4.70817 0.671875 2.05114 0.671875C0.872706 0.677434 0.00555864 1.54458 0 2.72301C0 6.24163 0 9.7658 0 13.2844C0 14.4684 0.872706 15.33 2.05114 15.3356C2.63479 15.3411 3.21845 15.3411 3.80211 15.33C3.96331 15.3244 4.00778 15.3689 4.00222 15.5301C3.99666 16.564 3.99666 17.5979 3.99666 18.6318C3.99666 18.9153 4.11339 19.1265 4.36909 19.2544C4.62479 19.3822 4.86381 19.3378 5.09171 19.171C5.15841 19.121 5.22512 19.0654 5.28626 19.0154C6.76486 17.8314 8.24902 16.6474 9.72205 15.4634C9.8499 15.3634 9.97219 15.3244 10.1334 15.3244C12.7126 15.33 15.2863 15.33 17.8655 15.33C18.0822 15.33 18.2935 15.3189 18.5047 15.2633C19.4219 15.0132 20 14.2405 20 13.2566C20 9.77136 20 6.2861 20 2.79527C20.0055 1.51679 19.1606 0.671875 17.8655 0.671875ZM10.1612 9.98259C10.0834 10.0048 9.99443 10.0048 9.91661 10.0048C9.05502 10.0048 8.19343 10.0048 7.3374 10.0048C6.44802 10.0048 5.5642 10.0104 4.67481 10.0048C4.32462 10.0048 4.04113 9.74357 4.00778 9.41005C3.97442 9.08209 4.18565 8.77637 4.51361 8.69299C4.57476 8.67631 4.6359 8.67075 4.69705 8.67075C6.45914 8.67075 8.22122 8.67075 9.98331 8.67075C10.3502 8.67075 10.6337 8.92089 10.6726 9.26553C10.7004 9.59905 10.4891 9.90477 10.1612 9.98259ZM15.9644 6.89755C15.8643 7.16436 15.6698 7.30889 15.3863 7.33668C15.3252 7.34224 15.264 7.33668 15.1973 7.33668C11.7343 7.33668 8.27125 7.33668 4.80822 7.33668C4.71372 7.33668 4.61367 7.34224 4.51917 7.32C4.18565 7.24218 3.96331 6.91978 4.00778 6.58626C4.05225 6.25275 4.33018 6.00817 4.68593 6.00817C6.02556 6.00261 7.36519 6.00817 8.70483 6.00817C9.14396 6.00817 9.57753 6.00817 10.0167 6.00817C11.7732 6.00817 13.5297 6.00817 15.2863 6.00817C15.7976 6.00817 16.1312 6.4473 15.9644 6.89755Z" fill="#71C705"/>
</svg>
