<svg width="177" height="137" viewBox="0 0 177 137" fill="none" xmlns="http://www.w3.org/2000/svg">
<path d="M88.5 137C137.377 137 177 133.418 177 129C177 124.582 137.377 121 88.5 121C39.6228 121 0 124.582 0 129C0 133.418 39.6228 137 88.5 137Z" fill="#191919"/>
<path d="M61 122.953C61 122.953 60.4012 121.583 58.733 121.725C57.0649 121.914 57.4926 120.261 55.6534 119.977C53.7714 119.694 53.4292 120.308 51.1622 118.23C48.8953 116.152 47.0133 119.883 45.3024 118.324C43.5914 116.766 42.3938 114.263 39.528 115.207C36.6622 116.199 37.8599 118.655 36.1917 119.6C34.4808 120.544 32.7271 120.827 32 123L61 122.953Z" fill="#5B9F04"/>
<path d="M92.5664 92.9785V129.147" stroke="#272727" stroke-width="4" stroke-miterlimit="10" stroke-linecap="round" stroke-linejoin="round"/>
<path d="M98.6502 132.475C94.9629 132.475 91.9517 130.441 91.9517 127.977C91.9517 125.512 94.9629 123.479 98.6502 123.479C102.337 123.479 105.349 125.512 105.349 127.977C105.349 130.441 102.337 132.475 98.6502 132.475Z" fill="#ADADAD" stroke="#272727" stroke-width="4" stroke-miterlimit="10" stroke-linecap="round" stroke-linejoin="round"/>
<path d="M85.8677 92.9785V129.147" stroke="#272727" stroke-width="4" stroke-miterlimit="10" stroke-linecap="round" stroke-linejoin="round"/>
<path d="M79.7835 132.475C83.4708 132.475 86.482 130.441 86.482 127.977C86.482 125.512 83.4708 123.479 79.7835 123.479C76.0962 123.479 73.085 125.512 73.085 127.977C73.085 130.441 76.0962 132.475 79.7835 132.475Z" fill="#ADADAD" stroke="#272727" stroke-width="4" stroke-miterlimit="10" stroke-linecap="round" stroke-linejoin="round"/>
<path d="M139.517 79.7934C139.517 64.6358 130.606 52.3125 119.544 52.3125" stroke="#272727" stroke-width="4" stroke-miterlimit="10" stroke-linecap="round" stroke-linejoin="round"/>
<path d="M144.433 85.2767C144.433 88.9737 142.405 91.9929 139.947 91.9929C137.489 91.9929 135.461 88.9737 135.461 85.2767C135.461 81.5797 137.489 78.5605 139.947 78.5605C142.467 78.5605 144.433 81.5797 144.433 85.2767Z" fill="#ADADAD" stroke="#272727" stroke-width="4" stroke-miterlimit="10" stroke-linecap="round" stroke-linejoin="round"/>
<path d="M38.855 79.7934C38.855 64.6358 47.7659 52.3125 58.8277 52.3125" stroke="#272727" stroke-width="4" stroke-miterlimit="10" stroke-linecap="round" stroke-linejoin="round"/>
<path d="M34 85.2767C34 88.9737 36.028 91.9929 38.4862 91.9929C40.9444 91.9929 42.9724 88.9737 42.9724 85.2767C42.9724 81.5797 40.9444 78.5605 38.4862 78.5605C35.9665 78.5605 34 81.5797 34 85.2767Z" fill="#ADADAD" stroke="#272727" stroke-width="4" stroke-miterlimit="10" stroke-linecap="round" stroke-linejoin="round"/>
<path d="M59.8107 98.0322C55.0787 98.0322 51.207 94.1504 51.207 89.4059V9.61263C51.207 4.86816 55.0787 0.986328 59.8107 0.986328H118.684C123.416 0.986328 127.288 4.86816 127.288 9.61263V89.4675C127.288 94.212 123.416 98.0938 118.684 98.0938H59.8107V98.0322Z" fill="#616161"/>
<path d="M118.623 2.03334C122.802 2.03334 126.182 5.42225 126.182 9.61216V89.4671C126.182 93.657 122.802 97.0459 118.623 97.0459H59.811C55.6321 97.0459 52.2521 93.657 52.2521 89.4671V9.61216C52.2521 5.42225 55.6321 2.03334 59.811 2.03334H118.623ZM118.623 0H59.811C54.5259 0 50.2241 4.31315 50.2241 9.61216V89.4671C50.2241 94.7661 54.5259 99.0792 59.811 99.0792H118.684C123.969 99.0792 128.271 94.7661 128.271 89.4671V9.61216C128.271 4.31315 123.908 0 118.623 0Z" fill="#272727"/>
<path d="M77.6939 62.5405C77.6939 65.9294 74.9899 68.6405 71.6099 68.6405C68.2299 68.6405 65.5259 65.8678 65.5259 62.5405C65.5259 59.1516 68.2913 56.4405 71.6099 56.4405C74.9284 56.3788 77.6939 59.1516 77.6939 62.5405Z" fill="#272727"/>
<path d="M72.5931 60.6919C72.5931 62.2939 71.3026 63.5878 69.7048 63.5878C68.107 63.5878 66.8164 62.2939 66.8164 60.6919C66.8164 59.0898 68.107 57.7959 69.7048 57.7959C71.3026 57.7959 72.5931 59.0898 72.5931 60.6919Z" fill="white"/>
<path d="M73.8835 63.8954C73.8835 64.4499 73.4534 64.8812 72.9003 64.8812C72.3472 64.8812 71.917 64.4499 71.917 63.8954C71.917 63.3408 72.3472 62.9095 72.9003 62.9095C73.4534 62.8479 73.8835 63.3408 73.8835 63.8954Z" fill="white"/>
<path d="M112.969 62.5405C112.969 65.9294 110.265 68.6405 106.885 68.6405C103.505 68.6405 100.801 65.8678 100.801 62.5405C100.801 59.1516 103.505 56.4405 106.885 56.4405C110.203 56.3788 112.969 59.1516 112.969 62.5405Z" fill="#272727"/>
<path d="M107.807 60.6919C107.807 62.2939 106.516 63.5878 104.918 63.5878C103.32 63.5878 102.03 62.2939 102.03 60.6919C102.03 59.0898 103.32 57.7959 104.918 57.7959C106.516 57.7959 107.807 59.0898 107.807 60.6919Z" fill="white"/>
<path d="M109.158 63.8954C109.158 64.4499 108.728 64.8812 108.175 64.8812C107.622 64.8812 107.192 64.4499 107.192 63.8954C107.192 63.3408 107.622 62.9095 108.175 62.9095C108.667 62.8479 109.158 63.3408 109.158 63.8954Z" fill="white"/>
<path d="M102.952 83.1822C102.952 83.1822 97.6667 77.0205 87.8954 77.0205C79.3532 77.0205 73.8838 83.1822 73.8838 83.1822" stroke="#272727" stroke-width="4" stroke-miterlimit="10" stroke-linecap="round" stroke-linejoin="round"/>
<path d="M142 132.959C142 132.959 141.401 131.76 139.733 131.884C138.065 132.05 138.493 130.603 136.653 130.355C134.771 130.107 134.429 130.644 132.162 128.826C129.895 127.008 128.013 130.273 126.302 128.909C124.591 127.545 123.394 125.355 120.528 126.181C117.662 127.049 118.86 129.198 117.192 130.025C115.481 130.851 113.727 131.099 113 133L142 132.959Z" fill="#5B9F04"/>
</svg>
