<svg width="18" height="20" viewBox="0 0 18 20" fill="none" xmlns="http://www.w3.org/2000/svg">
<path d="M10.1639 17.085C10.6612 17.0997 11.1495 17.221 11.5953 17.4406H11.6221C11.9946 17.7445 12.0578 18.2868 11.7653 18.6673C11.2325 19.4297 10.3801 19.9104 9.44815 19.974C8.49069 20.0882 7.52649 19.8231 6.76425 19.2362C6.37223 18.9674 6.11748 18.5423 6.06643 18.0717C6.06643 17.5739 6.53164 17.3428 6.96107 17.245C7.46404 17.1391 7.97674 17.0855 8.49089 17.085H10.1639ZM9.03662 0C12.1321 0 15.3259 2.24008 15.6569 5.48463C15.7106 6.15132 15.6569 6.84468 15.7106 7.52026C15.8862 8.39147 16.2906 9.20107 16.8826 9.86701C17.2506 10.4143 17.4638 11.0498 17.4999 11.7071V11.9115C17.5054 12.7984 17.1876 13.6573 16.6052 14.3294C15.8671 15.1186 14.8657 15.6145 13.7871 15.725C10.6005 16.1339 7.37428 16.1339 4.1877 15.725C3.09645 15.6229 2.0809 15.1263 1.33382 14.3294C0.769727 13.6508 0.473927 12.7912 0.501805 11.9115V11.7071C0.536718 11.0523 0.743355 10.4179 1.10121 9.86701C1.69585 9.20046 2.10588 8.39176 2.29107 7.52026C2.34475 6.84468 2.29107 6.16021 2.34475 5.48463C2.68471 2.24008 5.81593 0 8.94715 0H9.03662Z" fill="#F5F5F5"/>
</svg>
