<svg width="14" height="18" viewBox="0 0 14 18" fill="none" xmlns="http://www.w3.org/2000/svg">
<path d="M11.1667 6.50008V4.83341C11.1667 2.50008 9.33337 0.666748 7.00004 0.666748C4.66671 0.666748 2.83337 2.50008 2.83337 4.83341V6.50008C1.41671 6.50008 0.333374 7.58342 0.333374 9.00008V14.8334C0.333374 16.2501 1.41671 17.3334 2.83337 17.3334H11.1667C12.5834 17.3334 13.6667 16.2501 13.6667 14.8334V9.00008C13.6667 7.58342 12.5834 6.50008 11.1667 6.50008ZM4.50004 4.83341C4.50004 3.41675 5.58337 2.33341 7.00004 2.33341C8.41671 2.33341 9.50004 3.41675 9.50004 4.83341V6.50008H4.50004V4.83341ZM7.91671 11.9167L7.83337 12.0001V13.1667C7.83337 13.6667 7.50004 14.0001 7.00004 14.0001C6.50004 14.0001 6.16671 13.6667 6.16671 13.1667V12.0001C5.66671 11.5001 5.58337 10.7501 6.08337 10.2501C6.58337 9.75008 7.33337 9.66675 7.83337 10.1667C8.33337 10.5834 8.41671 11.4167 7.91671 11.9167Z" fill="#616161"/>
</svg>
