<svg width="126" height="126" viewBox="0 0 126 126" fill="none" xmlns="http://www.w3.org/2000/svg">
<g clip-path="url(#clip0_15_2676)">
<circle opacity="0.2" cx="123.2" cy="63.0005" r="20.0455" stroke="#8BF406"/>
<circle opacity="0.15" cx="123.2" cy="63.0004" r="34.3636" stroke="#8BF406"/>
<circle opacity="0.1" cx="123.199" cy="63.0002" r="48.6818" stroke="#8BF406"/>
<circle opacity="0.05" cx="123.199" cy="63" r="63" stroke="#8BF406"/>
<path fill-rule="evenodd" clip-rule="evenodd" d="M81.2308 77.4461C84.0093 79.0767 84.9399 82.651 83.3093 85.4295C81.6788 88.2081 78.1045 89.1387 75.3259 87.5081C72.5474 85.8775 71.6168 82.3032 73.2473 79.5247C74.8779 76.7461 78.4522 75.8155 81.2308 77.4461ZM76.4045 81.8283C76.1871 82.1988 76.3112 82.6754 76.6817 82.8928C77.0521 83.1102 77.5287 82.9861 77.7461 82.6157L76.4045 81.8283ZM76.1274 80.7639L75.792 80.5671L75.3983 81.2379L75.7337 81.4347C75.2989 82.1756 75.5471 83.1288 76.288 83.5636C77.0289 83.9984 77.9821 83.7502 78.4169 83.0093L79.7585 83.7966C79.5874 84.0882 79.2552 84.2278 78.94 84.1669C78.7292 84.1262 78.5252 84.2641 78.4844 84.4749C78.4436 84.6858 78.5815 84.8898 78.7924 84.9305C79.421 85.0521 80.0862 84.775 80.4293 84.1903L80.7647 84.3871L81.1584 83.7163L80.823 83.5195C81.2578 82.7785 81.0096 81.8254 80.2687 81.3906C79.5278 80.9558 78.5746 81.2039 78.1398 81.9449L76.7982 81.1575C76.9693 80.866 77.3015 80.7263 77.6166 80.7872C77.8275 80.828 78.0315 80.6901 78.0723 80.4792C78.1131 80.2683 77.9752 80.0644 77.7643 80.0236C77.1357 79.9021 76.4705 80.1792 76.1274 80.7639ZM78.8106 82.3385L80.1522 83.1258C80.3696 82.7553 80.2455 82.2788 79.875 82.0614C79.5045 81.844 79.028 81.968 78.8106 82.3385Z" fill="#1C3102"/>
<path d="M94.1051 41.1591L95.0109 44.5398C95.1774 45.1613 95.8183 45.5313 96.4398 45.3648L99.8205 44.4589L98.6127 39.9513L94.1051 41.1591V41.1591ZM99.7396 39.6493L100.947 44.157L104.328 43.2511C104.95 43.0846 105.32 42.4437 105.153 41.8222L104.247 38.4415L99.7396 39.6493V39.6493ZM102.778 35.2117L101.023 35.6819C101.245 35.485 101.435 35.2555 101.587 35.0013C101.818 34.599 101.881 34.1215 101.761 33.6732C101.64 33.225 101.348 32.8427 100.946 32.61C100.136 32.1439 99.0245 32.4412 98.556 33.251C97.8814 34.4204 98.222 36.1897 98.263 36.3877C98.2647 36.3987 98.2729 36.4068 98.2759 36.418L98.2647 36.4211C98.2618 36.4104 98.2647 36.3987 98.2611 36.3876C98.1976 36.1957 97.6079 34.493 96.4383 33.8172C95.6285 33.3512 94.5157 33.6493 94.0477 34.4584C93.8163 34.8605 93.7538 35.338 93.8739 35.7861C93.994 36.2343 94.2868 36.6165 94.6883 36.8491C94.9432 36.9958 95.2276 37.0929 95.5171 37.1567L93.7625 37.6268C93.141 37.7933 92.771 38.4342 92.9375 39.0557L93.3905 40.7461L98.4616 39.3873L97.8577 37.1334L98.9846 36.8315L99.5885 39.0853L104.66 37.7265L104.207 36.0361C104.126 35.7376 103.931 35.4831 103.663 35.3286C103.395 35.174 103.077 35.132 102.778 35.2117V35.2117ZM95.2721 35.8388C95.1727 35.7807 95.0926 35.6946 95.042 35.5913C94.9913 35.4879 94.9723 35.3719 94.9873 35.2578C95.0023 35.1436 95.0507 35.0365 95.1264 34.9497C95.2021 34.863 95.3017 34.8006 95.4127 34.7702C95.5637 34.7297 95.7208 34.7504 95.8557 34.8278C96.2772 35.0712 96.6308 35.6154 96.8678 36.0852C96.3436 36.1145 95.6907 36.0805 95.2721 35.8388V35.8388ZM99.318 35.4298C99.2884 34.9045 99.3223 34.2559 99.5657 33.8344C99.6436 33.6993 99.7699 33.6027 99.9204 33.5624C100.071 33.5221 100.229 33.5426 100.362 33.6198C100.641 33.7812 100.737 34.1388 100.576 34.4176C100.333 34.8397 99.7879 35.1934 99.318 35.4298V35.4298Z" fill="#223C02"/>
</g>
<defs>
<clipPath id="clip0_15_2676">
<rect width="126" height="126" fill="white"/>
</clipPath>
</defs>
</svg>
