<svg width="48" height="48" viewBox="0 0 48 48" fill="none" xmlns="http://www.w3.org/2000/svg">
<rect opacity="0.2" width="48" height="48" rx="24" fill="#F5E17B"/>
<path fill-rule="evenodd" clip-rule="evenodd" d="M24.0001 12.2351C17.5134 12.2351 12.2354 17.5131 12.2354 23.9998C12.2354 30.4866 17.5134 35.7645 24.0001 35.7645C30.4868 35.7645 35.7648 30.4866 35.7648 23.9998C35.7648 17.5131 30.4868 12.2351 24.0001 12.2351ZM10.6667 23.9998C10.6667 16.6468 16.647 10.6665 24.0001 10.6665C31.3531 10.6665 37.3334 16.6468 37.3334 23.9998C37.3334 31.3529 31.3531 37.3332 24.0001 37.3332C16.647 37.3332 10.6667 31.3529 10.6667 23.9998Z" fill="#F5E17B"/>
<path d="M19.9096 25.9189L19.3897 29.1184C19.3097 29.625 19.523 30.1316 19.9363 30.4249C20.3629 30.7182 20.9095 30.7448 21.3494 30.5049L24.0024 29.0384L26.6553 30.5049C26.8553 30.6115 27.0819 30.6648 27.2952 30.6648C27.5618 30.6648 27.8418 30.5848 28.0684 30.4249C28.4817 30.1316 28.695 29.625 28.615 29.1184L28.0951 25.9189L30.2948 23.6659C30.6414 23.3193 30.7614 22.786 30.6014 22.3194C30.4414 21.8395 30.0281 21.4929 29.5349 21.4262L26.5486 20.973L25.2155 18.1067C24.9889 17.6268 24.5223 17.3335 24.0024 17.3335C23.4824 17.3335 23.0158 17.6268 22.7892 18.1067L21.4561 20.973L18.4699 21.4262C17.9766 21.4929 17.5633 21.8395 17.4034 22.3194C17.2434 22.786 17.3634 23.3193 17.71 23.6659L19.9096 25.9189Z" fill="#F5E17B"/>
</svg>
