<svg width="48" height="48" viewBox="0 0 48 48" fill="none" xmlns="http://www.w3.org/2000/svg">
<rect opacity="0.2" width="48" height="48" rx="24" fill="#7BD0F5"/>
<path d="M17.7181 16.3804H16.9519C15.6898 16.3804 14.6667 17.4034 14.6667 18.6655V20.1889C14.6667 22.0961 16.0715 23.6739 17.8989 23.9535C18.5002 26.3646 20.5376 28.2073 23.0501 28.5207V30.0912H20.7649C19.0822 30.0912 17.7181 31.4553 17.7181 33.1381V33.9051C17.7181 34.3257 18.0591 34.6668 18.4798 34.6668H29.1438C29.5644 34.6668 29.9055 34.3257 29.9055 33.9051V33.1381C29.9055 31.4553 28.5414 30.0912 26.8586 30.0912H24.5735V28.5207C27.0859 28.2073 29.1235 26.3645 29.7247 23.9533C31.5517 23.6731 32.9524 22.0947 32.9524 20.1889V18.6655C32.9524 17.4034 31.9292 16.3804 30.6672 16.3804H29.9055C29.9055 14.6976 28.5414 13.3335 26.8586 13.3335L20.7649 13.3335C19.0822 13.3335 17.7181 14.6976 17.7181 16.3804ZM29.9055 17.9038H30.6672C31.0878 17.9038 31.4289 18.2448 31.4289 18.6655V20.1889C31.4289 21.1832 30.7931 22.0296 29.9055 22.3437V17.9038ZM17.7181 17.9038V22.3443C16.8284 22.0305 16.1902 21.1831 16.1902 20.1889V18.6655C16.1902 18.2448 16.5312 17.9038 16.9519 17.9038H17.7181Z" fill="#7BD0F5"/>
</svg>
