<svg width="20" height="20" viewBox="0 0 20 20" fill="none" xmlns="http://www.w3.org/2000/svg">
<path d="M9.47837 12.1515C10.2191 11.6609 10.7817 10.9455 11.083 10.1112C11.3842 9.27686 11.4082 8.368 11.1512 7.51908C10.8942 6.67016 10.37 5.9263 9.65616 5.39758C8.94229 4.86886 8.07671 4.58337 7.1875 4.58337C6.29829 4.58337 5.4327 4.86886 4.71884 5.39758C4.00498 5.9263 3.48078 6.67016 3.22381 7.51908C2.96684 8.368 2.99077 9.27686 3.29204 10.1112C3.59332 10.9455 4.15593 11.6609 4.89663 12.1515C3.63396 12.616 2.54267 13.4522 1.76739 14.5493C1.70918 14.6317 1.6748 14.7285 1.668 14.8291C1.6612 14.9297 1.68223 15.0303 1.72881 15.1198C1.77538 15.2093 1.84571 15.2843 1.93213 15.3367C2.01854 15.389 2.11771 15.4167 2.21882 15.4167L12.1559 15.4163C12.2571 15.4163 12.3562 15.3886 12.4426 15.3363C12.529 15.2839 12.5994 15.2089 12.6459 15.1194C12.6925 15.0299 12.7135 14.9293 12.7067 14.8287C12.6999 14.7281 12.6655 14.6313 12.6073 14.5489C11.832 13.452 10.7409 12.616 9.47837 12.1515V12.1515Z" fill="#616161"/>
<path d="M18.2328 14.5488C17.4575 13.4519 16.3664 12.6159 15.1039 12.1515C15.9247 11.6066 16.5236 10.7874 16.7927 9.84139C17.0619 8.89537 16.9836 7.88463 16.5721 6.99103C16.1605 6.09743 15.4426 5.37965 14.5476 4.96686C13.6526 4.55407 12.6393 4.47337 11.6899 4.73928C11.6038 4.76345 11.5248 4.80816 11.4598 4.86956C11.3948 4.93096 11.3457 5.0072 11.3168 5.09171C11.288 5.17622 11.2801 5.26647 11.294 5.35467C11.3079 5.44286 11.3431 5.52637 11.3966 5.59798C12.0206 6.43394 12.3794 7.43709 12.4266 8.4782C12.4739 9.5193 12.2074 10.5507 11.6616 11.4394C11.5896 11.5566 11.5641 11.6965 11.5902 11.8315C11.6163 11.9665 11.6921 12.0869 11.8027 12.1689C12.0121 12.3243 12.2134 12.49 12.4061 12.6654C12.4161 12.6762 12.4261 12.6869 12.4371 12.6971C13.1739 13.3763 13.7711 14.1922 14.1953 15.0991C14.2397 15.194 14.3104 15.2743 14.399 15.3305C14.4876 15.3868 14.5905 15.4167 14.6955 15.4167L17.7815 15.4163C17.8826 15.4163 17.9818 15.3886 18.0682 15.3362C18.1546 15.2838 18.2249 15.2088 18.2715 15.1193C18.318 15.0298 18.339 14.9292 18.3322 14.8286C18.3254 14.728 18.291 14.6312 18.2328 14.5488L18.2328 14.5488Z" fill="#616161"/>
</svg>
