<svg width="291" height="230" viewBox="0 0 291 230" fill="none" xmlns="http://www.w3.org/2000/svg">
<path d="M176.687 38.1353C176.721 38.0202 177.675 36.3975 178.904 34.6251C184.601 26.3965 193.055 18.467 202.968 18.7663L202.979 18.7087C198.499 18.2139 194.112 19.4108 190.252 21.5398C183.889 24.9694 177.698 31.5178 174.309 36.5471L176.687 38.1353Z" fill="#F7CC7F"/>
<path d="M200.762 23.3242L201.429 18.6978L198.006 15.5214C197.615 15.1646 197.81 14.5086 198.327 14.4166L202.922 13.6225L204.874 9.37579C205.093 8.89243 205.782 8.86941 206.023 9.34127L208.194 13.4844L212.823 14.0368C213.351 14.0943 213.581 14.7388 213.202 15.1186L209.94 18.4676L210.847 23.0595C210.951 23.5774 210.411 23.9917 209.94 23.7616L205.759 21.69L201.681 23.9687C201.245 24.2334 200.693 23.8536 200.762 23.3242Z" fill="#F7CC7F"/>
<path d="M103.18 14.3209L102.464 16.9905L104.628 18.8063L103.6 21.7333L106.494 22.9665L105.493 26.3271L108.009 27.7907L107.576 31.192L106.291 31.0294L106.616 28.4818L103.951 26.9505L104.925 23.7118L101.99 22.4651L103.113 19.2264L101.003 17.4512L101.666 14.9849L100.043 14.1041L100.665 12.9658L103.18 14.3209Z" fill="#9BC1F9"/>
<path d="M44.0451 189.819C47.1558 193.301 46.8717 198.641 43.3959 201.771C39.92 204.888 34.5778 204.589 31.4671 201.12C28.3564 197.638 28.6404 192.299 32.1163 189.168C35.5921 186.038 40.9344 186.336 44.0451 189.819Z" fill="#F7CC7F"/>
<path d="M35.2812 199.48C36.9448 201.337 39.7985 201.5 41.6514 199.833C43.5043 198.166 43.6666 195.307 42.003 193.45L35.2812 199.48Z" fill="#EFEFEF"/>
<path d="M256.023 228.075H53.6663C53.1388 228.075 52.7061 228.509 52.7061 229.037C52.7061 229.566 53.1388 229.999 53.6663 229.999H256.023C256.551 229.999 256.983 229.566 256.983 229.037C256.983 228.509 256.551 228.075 256.023 228.075Z" fill="#1A1A1A"/>
<path d="M31.1898 155.406L28.9853 154.146C28.3767 155.121 27.6328 155.988 26.916 156.652C26.3209 157.208 25.3877 157.195 24.8062 156.625L24.7385 156.558C24.0894 155.934 24.1029 154.891 24.7791 154.295C25.4689 153.685 26.1316 152.926 26.6455 152.018C27.4029 150.69 27.4029 149.498 26.4697 148.969C25.5906 148.468 24.6033 148.901 23.048 150.283C20.8029 152.303 18.6795 153.332 16.4208 152.059C14.3786 150.893 13.5942 148.549 14.5139 145.771L12.3093 144.524L13.5942 142.248L15.6364 143.413C16.1503 142.587 16.6643 141.963 17.1377 141.462C17.7327 140.852 18.693 140.852 19.3016 141.435C19.9237 142.044 19.9373 143.047 19.3016 143.657C18.8282 144.118 18.3143 144.714 17.8545 145.541C17.0024 147.058 17.3676 147.912 18.0168 148.278C18.7877 148.712 19.7344 148.17 21.6008 146.625C24.1435 144.416 26.0504 144.023 28.1468 145.202C30.2161 146.381 31.1493 148.847 30.0943 151.788L32.4612 153.129L31.1898 155.406Z" fill="#FAE0B2"/>
<path d="M250.18 65.6387L248.72 69.2839L242.607 67.5765L239.82 72.6446L235.033 72.1296L234.762 74.5553L241.159 75.2599L243.81 70.4493L250.167 72.2245L252.371 66.7363L250.18 65.6387Z" fill="#466EB6"/>
<path d="M240.486 186.305L241.77 183.121C240.364 182.47 239.066 181.63 238.051 180.79C237.213 180.085 237.064 178.839 237.713 177.944L237.794 177.836C238.511 176.86 239.918 176.684 240.824 177.484C241.757 178.297 242.893 179.042 244.205 179.57C246.112 180.343 247.721 180.126 248.249 178.785C248.763 177.511 248.019 176.278 245.868 174.435C242.771 171.779 241 169.123 242.311 165.87C243.502 162.916 246.504 161.439 250.372 162.184L251.657 159L254.944 160.328L253.753 163.282C254.944 163.824 255.877 164.393 256.634 164.962C257.54 165.654 257.73 166.941 257.053 167.862C256.35 168.811 255.011 169.001 254.078 168.269C253.388 167.713 252.482 167.144 251.305 166.67C249.128 165.789 248.046 166.453 247.667 167.388C247.221 168.499 248.114 169.678 250.521 171.901C253.943 174.922 254.808 177.416 253.591 180.424C252.387 183.405 249.263 185.113 245.138 184.218L243.759 187.633L240.486 186.305Z" fill="#96D9C9"/>
<path d="M44.2811 97.9736L41.6965 98.2294L40.8131 94.0799L36.9785 94.0041L35.8131 91.001L34.3093 91.5978L35.8695 95.6052L39.4973 95.681L40.4183 100.001L44.3093 99.6031L44.2811 97.9736Z" fill="#50BFA5"/>
<path d="M215.906 68.8444L218.246 69.6168C218.246 69.6168 221.952 68.4108 222.317 67.6519C222.682 66.8931 222.79 65.0637 223.318 65.0095C223.845 64.9553 224.859 65.1314 225.103 66.3917C225.279 67.2996 223.94 69.9421 224.156 70.2266C224.291 70.4028 225.617 70.8906 226.59 71.2158C227.24 71.4327 227.7 72.0018 227.794 72.6929C227.862 73.1536 227.605 73.6008 227.172 73.777L226.496 74.0345L226.712 74.7256C226.875 75.2405 226.591 75.7961 226.077 75.9723L225.563 76.1484L225.725 76.5685C225.941 77.1106 225.644 77.7339 225.076 77.8965L224.616 78.032L224.629 78.154C224.711 78.6554 224.386 79.1432 223.899 79.2787L223.453 79.4007L217.231 77.3409C216.65 77.1512 216.109 76.8395 215.649 76.4194L213.58 75.3218C213.363 75.1999 213.255 74.9424 213.336 74.6985L215.257 69.1696C215.351 68.8986 215.635 68.7631 215.906 68.8444Z" fill="#FAE0B2"/>
<path d="M84.3316 77.4374C84.3013 77.354 83.6049 76.1557 82.7041 74.8587C78.5104 68.8062 72.2956 62.9737 64.9983 63.1937L64.9907 63.1481C68.2912 62.7841 71.5159 63.6639 74.3546 65.2339C79.0327 67.7596 83.5898 72.5757 86.0878 76.277L84.3316 77.4374Z" fill="#F7CC7F"/>
<path d="M66.6183 66.539L66.1262 63.1335L68.647 60.7974C68.9346 60.532 68.7908 60.0542 68.4048 59.9859L65.021 59.4019L63.5828 56.2771C63.4162 55.9206 62.9166 55.9054 62.735 56.2543L61.1302 59.3033L57.7237 59.7129C57.3377 59.7584 57.1711 60.2286 57.4437 60.5092L59.8433 62.9742L59.1771 66.3493C59.1014 66.7362 59.4951 67.0395 59.8509 66.8651L62.9318 65.3406L65.9294 67.0168C66.2625 67.2064 66.6713 66.9258 66.6183 66.539Z" fill="#F7CC7F"/>
<path d="M32.3629 73.8789L33.783 71.4668L32.6063 68.9328C32.4711 68.6482 32.728 68.323 33.0391 68.3908L35.7576 69.0006L37.7998 67.1034C38.0297 66.8866 38.4084 67.0357 38.4355 67.3473L38.6924 70.1253L41.1269 71.4939C41.4109 71.643 41.3838 72.0495 41.0863 72.1851L38.5301 73.2962L37.9891 76.0335C37.9215 76.3452 37.5293 76.4536 37.3264 76.2097L35.5141 74.1229L32.7415 74.4616C32.4305 74.5023 32.2006 74.15 32.3629 73.8789Z" fill="#466EB6"/>
<path d="M277.906 111.293L274.484 111.021L274.025 114.179L270.657 114.057L269.832 117.025L267.303 117.336L267.465 118.624L270.86 118.204L271.631 115.385L275.134 115.52L275.593 112.404L278.691 112.661L277.906 111.293Z" fill="#F48C7F"/>
<path d="M95.3763 34.5789L95.1734 31.1505L91.9816 31.1369L91.6299 27.7763L88.5869 27.3833L87.9106 24.917L86.6528 25.2558L87.559 28.5622L90.4398 28.9417L90.8184 32.4378L93.9562 32.4514L94.132 35.5546L95.3763 34.5789Z" fill="#F48C7F"/>
<path d="M151.977 31.001L151.801 33.0743L148.434 33.1827L147.811 36.191L145.309 36.6789L145.553 37.9527L148.907 37.3022L149.488 34.4429L153.005 34.3345L153.248 31.2042L151.977 31.001Z" fill="#50BFA5"/>
<path d="M245.366 27.0998C249.261 30.8399 249.383 37.0327 245.65 40.9219C241.917 44.8246 235.736 44.9465 231.855 41.2064C227.959 37.4664 227.838 31.2735 231.571 27.3844C235.29 23.4817 241.471 23.3597 245.366 27.0998Z" fill="#FFF3D9"/>
<path d="M245.203 35.2703L241.051 36.5441L239.753 40.6907C239.645 41.0295 239.198 41.0972 239.009 40.8126L236.507 37.2487L232.166 37.2894C231.814 37.2894 231.611 36.8964 231.827 36.6118L234.438 33.1292L233.058 28.9961C232.95 28.6574 233.261 28.3457 233.599 28.4541L237.711 29.8634L241.2 27.2752C241.484 27.0719 241.876 27.2752 241.876 27.6275L241.809 31.9774L245.352 34.4979C245.609 34.7282 245.528 35.1619 245.203 35.2703Z" fill="#FED333"/>
<path d="M273.024 77.4956L275.309 77.3601C275.553 77.3466 275.688 77.0213 275.526 76.8181L274.065 74.9074L274.687 72.4682C274.755 72.2107 274.525 71.9803 274.295 72.0752L272.158 73.0373L270.251 71.6687C270.048 71.5196 269.764 71.6958 269.791 71.9668L269.927 74.4737L268.128 76.0592C267.938 76.2354 267.993 76.5742 268.236 76.6284L270.454 77.2111L271.238 79.5554C271.32 79.8129 271.644 79.8399 271.766 79.6096L273.024 77.4956Z" fill="#F47458"/>
<path d="M98.7036 119.883C98.7036 119.883 102.802 111.969 103.437 109.069C104.073 106.169 106.21 91.5479 106.088 90.5993C105.858 88.797 103.505 87.6316 103.938 86.8321C104.37 86.0326 106.602 85.7887 107.359 85.8565C108.117 85.9242 109.645 86.3714 110.308 86.9134C110.957 87.4555 109.577 104.977 109.158 108.744C108.739 112.511 103.64 124.138 103.64 124.138L98.7036 119.883Z" fill="#F7A491"/>
<path d="M111.038 86.5889C110.943 86.6431 110.605 86.7515 110.524 86.8192L109.888 87.0225C109.888 87.0225 111.511 86.9818 112.472 88.0117C112.472 87.9982 112.025 87.1851 111.038 86.5889Z" fill="#F47257"/>
<path d="M188.603 89.7592C189.238 89.2714 189.563 88.0518 189.698 87.2658L190.023 86.2359C189.779 86.1275 184.951 85.2061 183.49 85.0977C183.328 85.5584 183.233 85.9378 183.274 86.1953C183.436 87.4013 184.613 95.2609 184.613 95.2609L188.792 95.532C188.778 95.532 188.075 90.884 188.603 89.7592Z" fill="#F7A491"/>
<path d="M188.697 86.4665C188.697 86.4665 187.831 86.8595 186.871 88.0113C186.871 88.0113 184.572 86.3852 184.68 85.9109C184.815 85.274 187.182 86.5749 187.182 86.5749L188.697 86.4665Z" fill="#F47458"/>
<path d="M209.079 201.366C209.079 201.366 214.705 205.432 215.584 206.638C216.856 208.386 206.063 211.651 207.24 209.605C207.51 209.131 208.294 207.559 208.322 207.396C208.497 206.57 206.212 204.32 206.212 204.32L209.079 201.366Z" fill="#F7A491"/>
<path d="M204.318 213.019L208.132 207.612C208.132 207.612 210.513 207.057 212.96 204.306C212.96 204.306 215.165 205.146 216.517 206.975C216.517 206.975 213.961 209.74 210.026 212.843C210.026 212.843 207.686 214.916 204.467 216C201.235 217.084 204.318 213.019 204.318 213.019Z" fill="#F7CC7F"/>
<path d="M254.982 101.17C254.982 101.17 253.535 103.569 253.372 103.42C253.251 103.311 254.116 102.038 254.738 100.506C254.901 100.113 255.049 99.7203 255.198 99.368C255.563 98.4194 255.117 97.9316 254.576 98.8666C254.387 99.1918 254.089 99.7474 253.927 100.167C253.751 100.628 253.453 100.994 253.251 101.346C252.845 102.065 252.561 102.593 252.547 102.566C252.52 102.525 252.344 102.607 252.507 102.187C252.696 101.672 253.318 100.682 253.548 99.91C253.67 99.4764 253.981 98.582 253.981 98.582C253.981 98.582 254.211 97.1456 254.13 97.105C253.71 96.8881 253.291 97.8367 253.197 98.4465C252.94 98.8124 252.642 99.761 252.642 99.761C252.642 99.761 251.614 101.55 251.357 101.414C251.249 101.36 251.763 100.181 252.087 98.9479C252.385 97.8096 252.507 96.6036 252.304 96.5223C251.952 96.3732 251.479 97.6064 251.479 97.6064C251.479 97.6064 251.195 98.4872 251.087 98.7717C250.951 99.1105 250.478 100.086 250.478 100.086C250.478 100.086 248.612 103.379 248.395 103.216C248.179 103.067 247.814 102.444 247.854 102.2C247.895 101.956 248.206 101.55 248.246 101.306C248.287 101.062 248.152 100.71 247.854 100.642C247.57 100.574 246.921 101.672 246.921 101.672C246.921 101.672 246.394 102.566 246.38 103.298C246.326 105.791 246.732 105.696 246.718 106.008C246.705 106.387 243.824 110.548 243.824 110.548C243.824 110.548 243.81 110.575 243.77 110.615L247.192 113.109C248.328 111.252 249.22 109.789 249.477 109.342C249.477 109.342 251.195 107.878 252.236 106.916C253.278 105.954 253.873 104.572 254.13 104.26C254.17 104.219 254.955 103.108 255.59 101.495C256.118 100.1 254.982 101.17 254.982 101.17Z" fill="#F8A492"/>
<path d="M217.681 159.63L216.788 164.034L194.432 184.401L210.431 200.622L206.117 205.039C206.117 205.039 182.489 187.653 181.637 185.377C180.325 181.867 198.584 158.627 198.584 158.627L217.681 159.63Z" fill="#B75742"/>
<path d="M234.14 213.549C234.14 213.549 239.766 217.614 240.646 218.82C241.917 220.568 231.124 223.834 232.301 221.788C232.571 221.314 233.356 219.742 233.383 219.579C233.559 218.752 231.273 216.503 231.273 216.503L234.14 213.549Z" fill="#F7A491"/>
<path d="M229.366 225.217L233.18 219.81C233.18 219.81 235.723 219.349 238.157 216.599C238.157 216.599 240.199 217.344 241.552 219.16C241.552 219.16 238.996 221.924 235.06 225.027C235.06 225.027 232.72 227.101 229.501 228.185C226.296 229.282 229.366 225.217 229.366 225.217Z" fill="#F7CC7F"/>
<path d="M216.91 161.661L217.261 190.62L235.019 212.938L230.84 217.586C230.84 217.586 208.849 199.265 206.442 194.008C204.954 190.742 199.503 159.913 199.503 159.913L216.91 161.661Z" fill="#F47458"/>
<path d="M198.881 159.384C200.693 155.278 200.491 125.805 207.564 118.894C210.053 119.314 211.824 119.558 212.244 119.666C212.609 122.701 213.015 133.84 213.271 144.058C213.434 150.86 213.271 157.988 214.096 161.756C214.624 164.086 197.218 163.138 198.881 159.384Z" fill="#F5CD87"/>
<path d="M168.924 135.807C164.786 136.051 163.041 136.701 161.77 136.457C160.498 136.213 157.104 135.007 157.171 133.72C161.715 132.812 169.641 134.221 169.641 134.221C169.1 136.877 168.924 135.807 168.924 135.807Z" fill="#F7A491"/>
<path d="M204.548 119.83C204.548 119.83 202.709 128.868 200.572 130.413C198.435 131.971 187.588 137.433 186.926 137.392C183.653 137.202 167.964 136.565 167.964 136.565L168.451 131.524L186.128 130.088C186.128 130.088 198.922 121.686 200.653 120.358C201.857 119.599 204.548 119.83 204.548 119.83Z" fill="#7E46B6"/>
<path d="M198.164 161.35C196.568 161.35 195.987 161.134 194.932 160.808C194.932 160.808 194.242 148.978 197.623 131.443C198.895 124.83 198.935 120.819 201.546 119.803C203.899 118.881 206.78 118.759 207.564 118.895C200.639 138.544 200.612 153.667 199.625 158.057C199.138 160.253 198.705 161.364 198.164 161.35Z" fill="#7E46B6"/>
<path d="M208.294 115.927L207.564 118.895C207.564 118.895 207.402 121.483 208.592 121.713C210.039 121.998 212.176 119.83 212.176 119.83L213.42 111.455L208.294 115.927Z" fill="#F7A491"/>
<path d="M208.294 115.927L207.564 118.895C207.564 118.895 207.402 121.483 208.592 121.713C210.039 121.998 212.176 119.83 212.176 119.83L213.42 111.455L208.294 115.927Z" fill="#F7A491"/>
<path d="M213.42 111.496L208.294 115.927L207.753 118.15C209.715 117.675 212.501 115.507 213.42 111.496Z" fill="#F47458"/>
<path d="M208.281 103.785C207.037 103.785 205.928 104.639 205.495 105.886C205.13 106.915 204.67 108.433 204.372 110.181C203.831 113.406 205.657 116.347 207.253 116.577C208.849 116.808 212.636 115.751 213.475 111.198C213.84 109.246 214.313 106.685 212.704 105.33C211.446 104.287 209.701 103.799 208.281 103.785Z" fill="#F7A491"/>
<path d="M212.96 114.681C212.96 114.681 218.573 109.667 218.817 105.751C219.06 101.834 215.449 99.734 212.365 99.6256C210.972 99.5714 210.025 99.6392 208.592 99.8154C205.495 100.208 203.493 101.577 204.196 104.111C205.143 107.512 211.554 104.64 212.866 105.697C213.948 106.564 212.189 108.664 213.244 109.464C214.232 110.223 213.731 109.965 213.407 111.388C213.082 112.851 212.96 114.681 212.96 114.681Z" fill="#13375B"/>
<path d="M215.124 110.141C214.989 111.076 214.407 111.767 213.839 111.686C213.271 111.605 212.92 110.778 213.068 109.83C213.204 108.895 213.785 108.204 214.353 108.285C214.908 108.38 215.259 109.206 215.124 110.141Z" fill="#F7A491"/>
<path d="M189.563 84.8807C189.062 83.9999 188.305 84.9078 188.792 86.0461C188.819 86.1003 188.792 86.1952 188.792 86.1816C188.67 86.4797 187.493 87.4148 187.493 87.4148C187.493 87.4148 188.427 90.0301 188.954 89.3526C189.482 88.6615 189.874 86.4256 189.874 86.4256L189.563 84.8807Z" fill="#F7A491"/>
<path d="M248.72 111.7L244.892 107.905C244.892 107.905 237.629 118.353 233.951 120.155C230.367 121.917 218.451 121.28 218.032 121.185C216.598 120.86 212.203 119.654 212.203 119.654C212.203 119.654 208.524 151.336 213.312 162.353C214.881 165.944 224.619 163.559 224.619 163.559C224.619 163.559 221.616 150.361 221.454 148.64C221.305 146.986 220.466 133.896 220.602 133.774C220.953 133.422 234.248 130.522 237.886 127.744C241.754 124.817 248.72 111.7 248.72 111.7Z" fill="#7E46B6"/>
<path d="M63.133 140.457C69.6925 147.301 75.4405 141.243 75.1565 141.338C75.3864 141.243 76.8201 141.243 77.7533 141.216C81.6619 141.067 85.2189 138.262 86.7607 134.549C92.6034 133.777 96.4309 128.37 94.7133 123.695C97.2965 120.47 96.4985 115.334 94.0505 112.041C93.4825 106.648 86.4497 105.726 81.5943 107.623C79.1328 108.585 77.05 110.659 75.968 113.166C71.302 113.057 67.3122 116.499 66.2708 121.283C59.035 123.288 56.4518 133.465 63.133 140.457Z" fill="#853BFF"/>
<path d="M105.249 206.776C104.573 210.476 103.396 213.728 103.247 214.107C103.166 214.297 102.436 214.961 102.355 215.151C102.747 219.663 105.614 222.333 108.306 224.244C107.724 221.967 106.426 219.365 106.588 218.864C106.858 218.064 107.9 214.392 110.118 209.771C107.873 209.514 107.075 208.145 105.249 206.776Z" fill="#F7A491"/>
<path d="M97.0534 153.153L81.5 163.791C81.5 163.791 89.0738 168.723 91.6706 171.203C94.2673 173.683 108.171 184.931 108.387 185.5C108.549 185.92 107.102 191.259 103.762 208.333C105.236 209.851 108.495 211.328 110.416 211.816C114.46 202.709 119.018 183.752 118.504 181.665C117.719 178.426 97.0534 153.153 97.0534 153.153Z" fill="#355389"/>
<path d="M57.6693 174.565C58.1292 175.013 61.1587 180.934 62.3218 184.105C64.0124 183.035 65.0403 181.775 66.9202 181.056C65.4325 178.902 62.5247 173.698 62.2812 172.465C61.7132 169.524 61.0505 169.091 61.0505 169.091C61.0505 169.091 51.2315 172.424 50.5688 173.359C49.9332 174.281 55.8435 172.777 57.6693 174.565Z" fill="#F7A491"/>
<path d="M62.4029 173.103C63.1603 173.103 62.3353 169.648 62.1595 168.862C61.9566 167.967 61.4427 167.696 61.3209 167.669C60.9693 167.588 50.0548 171.287 48.2155 172.615C48.0938 172.71 47.8638 172.995 47.8368 173.049C46.8224 174.933 55.8299 175.299 57.1148 174.472C58.2644 173.74 58.9812 173.103 62.4029 173.103Z" fill="#3C8F7C"/>
<path d="M99.88 156.475C99.88 156.475 86.7069 151.271 86.5311 151.827C85.1651 156.231 80.9183 154.808 78.4027 162.559C77.3478 165.811 76.5228 174.376 75.806 180.731C75.3191 185.094 74.6293 188.604 74.6293 188.604C74.6293 188.604 71.5727 184.078 65.8382 177.601C65.3919 177.099 60.7529 181.517 60.7529 181.517C69.8956 199.689 76.5633 202.25 78.024 201.762C84.6376 199.526 93.3881 169.064 93.3746 169.077C94.4565 166.99 99.88 156.475 99.88 156.475Z" fill="#466EB6"/>
<path d="M79.5522 125.7C79.5522 125.7 63.8229 125.687 60.4553 125.483C57.4122 125.307 45.3211 125.619 44.8477 125.565C44.3744 125.51 41.2502 120.212 40.7362 120.781C40.2223 121.35 42.4809 123.41 41.7776 123.938C41.0744 124.467 33.5817 123.274 33.6763 123.83C33.8657 124.873 38.2342 124.738 38.2342 125.239C38.2342 125.741 33.6493 124.955 33.3382 125.795C33.0271 126.635 37.7473 126.134 37.9231 126.513C38.1124 126.879 33.5546 127.57 34.0144 128.343C34.2714 128.763 38.0583 127.638 38.0313 128.207C38.0178 128.776 35.2452 130.091 35.5833 130.538C35.9214 130.999 37.7473 129.128 39.3567 129.115C40.9662 129.088 42.1022 128.248 44.6719 128.952C45.9297 129.305 55.5864 130.484 63.7283 131.175C72.0865 131.893 78.9301 132.123 78.9301 132.123L79.5522 125.7Z" fill="#F7A491"/>
<path d="M102.869 139.712C103.072 137.178 102.585 132.368 102.463 131.528C103.22 128.899 104.857 123.289 105.438 122.191C105.438 122.191 102.706 116.92 99.8932 116.96C99.8932 116.96 97.026 123.424 94.8214 124.589C94.7944 124.576 94.037 124.928 93.7124 124.928C91.5755 124.915 84.1098 124.684 82.7168 124.657L83.5012 135.268C86.4496 143.087 85.9086 150.011 85.3947 152.423C85.1107 153.765 98.0809 157.789 100.069 156.502C100.137 156.434 102.449 144.821 102.869 139.712Z" fill="#50BFA5"/>
<path d="M86.504 125.038C85.1245 124.374 75.1568 124.712 75.1568 124.712C75.1568 124.712 73.7637 131.664 74.8863 133.344C74.8863 133.344 83.7991 134.672 83.5421 135.404L86.504 125.038Z" fill="#50BFA5"/>
<path d="M88.2485 120.17C88.2485 120.17 89.2899 123.829 89.4793 125.401C89.6686 126.987 92.0625 131.892 95.3355 131.201C98.6085 130.496 95.2002 125.903 94.5511 124.453C93.9154 123.003 92.1842 117.162 92.1842 117.162L88.2485 120.17Z" fill="#F7A491"/>
<path d="M92.9011 119.561C92.4954 118.233 92.1708 117.162 92.1708 117.162L88.2351 120.17C88.2351 120.17 88.4245 120.848 88.6544 121.729C90.7372 122.013 92.1708 121.024 92.9011 119.561Z" fill="#F47257"/>
<path d="M85.3951 109.236C85.3951 109.236 83.6774 110.225 83.0824 112.312C82.4873 114.399 83.2717 119.765 87.7619 120.984C92.2386 122.218 94.1185 117.935 93.1448 114.629C92.171 111.309 90.1152 107.135 85.3951 109.236Z" fill="#F7A491"/>
<path d="M93.6857 113.329C93.6181 114.224 93.1312 114.915 92.6037 114.874C92.0898 114.834 91.7246 114.075 91.7922 113.18C91.8599 112.286 92.3468 111.595 92.8742 111.635C93.3882 111.676 93.7533 112.435 93.6857 113.329Z" fill="#F7A491"/>
<path d="M103.207 214.229C102.923 213.525 100.083 215.774 99.4068 216.235C98.6494 216.75 98.5953 217.332 98.6088 217.468C98.6629 217.82 105.899 226.75 108.022 227.984C108.225 228.106 108.644 228.106 108.766 228.051C109.943 227.591 108.022 220.287 106.48 218.837C105.493 217.902 104.479 217.414 103.207 214.229Z" fill="#3C8F7C"/>
<path d="M85.9086 108.95C85.9086 108.95 85.1918 114.953 83.2713 116.064C81.3508 117.176 82.2028 119.818 82.2028 119.818C82.2028 119.818 80.3635 113.68 81.8647 111.674C83.366 109.668 85.9086 108.95 85.9086 108.95Z" fill="#853BFF"/>
<path d="M84.4346 116.906C84.9756 117.678 84.9756 118.6 84.4617 118.965C83.9342 119.331 83.0822 118.992 82.5547 118.22C82.0137 117.448 82.0137 116.526 82.5276 116.16C83.0416 115.794 83.8936 116.133 84.4346 116.906Z" fill="#F7A491"/>
<path d="M165.624 60.258C163.176 60.7458 153.411 73.8497 153.411 73.8497L153.073 74.7576C153.073 74.7576 170.75 72.7927 171.386 72.0338C173.103 69.9876 167.626 59.8515 165.624 60.258ZM153.533 74.1343C156.752 70.0012 164.109 63.971 165.692 62.6972C167.112 64.1471 169.249 68.4293 169.533 70.3535C167.504 70.76 158.686 73.4974 153.533 74.1343Z" fill="#8BF406"/>
<path d="M141.942 62.4942C137.141 59.3504 135.815 59.3775 134.409 60.177C133.002 60.9765 127.836 68.4025 130.149 70.7197C132.461 73.0369 150.774 74.6902 150.774 74.6902L151.193 73.5654C151.193 73.5519 146.757 65.6381 141.942 62.4942ZM133.34 69.8931C132.272 68.8226 134.936 64.3778 136.14 63.4292C136.451 63.2531 148.772 71.1127 150.49 73.7958C143.619 73.0505 134.341 70.7739 133.34 69.8931Z" fill="#8BF406"/>
<path d="M150.936 78.1596H151.964C152.992 78.1596 153.817 77.3329 153.817 76.3031V73.2676C153.817 72.2377 152.992 71.4111 151.964 71.4111H150.936C149.909 71.4111 149.083 72.2377 149.083 73.2676V76.3031C149.083 77.3194 149.909 78.1596 150.936 78.1596Z" fill="#8BF406"/>
<path d="M189.996 74.8122L106.21 74.5547C103.978 74.5547 102.274 76.5331 102.599 78.742L103.897 87.3062L108.09 87.2927L110.619 130.399C110.754 132.702 112.661 134.504 114.96 134.504H181.827L184.613 87.1301L188.562 87.1165L189.996 74.8122Z" fill="#B32323"/>
<path d="M106.724 88.3232L106.737 87.2933C105.939 86.9816 104.993 87.0765 104.519 86.9545L103.397 86.1279C103.167 86.0195 102.829 86.277 102.829 86.548C102.829 86.7919 103.153 87.2933 103.302 87.4153C103.302 87.4153 105.317 89.0685 106.02 89.5834C106.372 89.8274 107.468 90.5049 107.468 90.5049L108.103 89.2989L106.724 88.3232Z" fill="#F7A491"/>
<path d="M183.287 134.532H131.961L129.216 75.707H190.199L187.642 130.44C187.534 132.73 185.614 134.532 183.287 134.532Z" fill="#FF3B3B"/>
<path d="M192.714 87.171L126.51 87.3471L124.996 74.582L189.847 74.8259C191.97 74.8395 193.647 76.6689 193.458 78.7964L192.714 87.171Z" fill="#FF3B3B"/>
<path d="M126.51 87.3471L189.657 87.1709L128.512 90.518L126.51 87.3471Z" fill="#B32323"/>
<path d="M153.114 74.6895H151.356V87.2919H153.114V74.6895Z" fill="#8BF406"/>
<path d="M158.632 87.2256H156.441V134.614H158.632V87.2256Z" fill="#8BF406"/>
</svg>
