<svg width="10" height="16" viewBox="0 0 10 16" fill="none" xmlns="http://www.w3.org/2000/svg">
<path fill-rule="evenodd" clip-rule="evenodd" d="M0.893294 15.766C1.21728 16.078 1.74125 16.078 2.06444 15.766L8.91449 9.15502C9.06783 9.0093 9.18993 8.8342 9.27336 8.63981C9.35679 8.44543 9.39979 8.23575 9.39979 8.02422C9.39979 7.81269 9.35679 7.6034 9.27336 7.40902C9.18993 7.21463 9.06783 7.03953 8.91449 6.89381L2.01484 0.233993C1.85825 0.0851581 1.65089 0.00150586 1.43486 2.00892e-05C1.21882 -0.00146569 1.01032 0.0795139 0.851695 0.22618C0.773116 0.298609 0.71025 0.386267 0.666975 0.48398C0.623701 0.581693 0.600946 0.687257 0.600121 0.79412C0.599296 0.900984 0.620418 1.00667 0.662178 1.10504C0.703939 1.20341 0.765443 1.29233 0.842894 1.36597L7.15777 7.4594C7.2345 7.53227 7.2956 7.61997 7.33735 7.7172C7.3791 7.81443 7.40065 7.91879 7.40065 8.02461C7.40065 8.13043 7.3791 8.23518 7.33735 8.33241C7.2956 8.42964 7.2345 8.51734 7.15777 8.59021L0.893294 14.6356C0.816586 14.7084 0.755506 14.7962 0.713763 14.8934C0.672019 14.9906 0.650485 15.0951 0.650485 15.2008C0.650485 15.3066 0.672019 15.411 0.713763 15.5082C0.755506 15.6054 0.816586 15.6932 0.893294 15.766" fill="#F5F5F5"/>
</svg>
