<svg width="14" height="14" viewBox="0 0 14 14" fill="none" xmlns="http://www.w3.org/2000/svg">
<path d="M13.4477 12.3963L10.93 9.88597C11.7423 8.85109 12.183 7.57313 12.1814 6.25751C12.1814 5.08586 11.834 3.94051 11.183 2.96631C10.5321 1.99211 9.60689 1.23281 8.52442 0.784438C7.44194 0.336063 6.25082 0.218748 5.10167 0.447327C3.95253 0.675907 2.89697 1.24011 2.06848 2.0686C1.23999 2.89709 0.675784 3.95265 0.447205 5.1018C0.218626 6.25094 0.335941 7.44207 0.784316 8.52454C1.23269 9.60701 1.99199 10.5322 2.96619 11.1832C3.94039 11.8341 5.08573 12.1815 6.25739 12.1815C7.57301 12.1832 8.85097 11.7424 9.88585 10.9301L12.3962 13.4478C12.465 13.5172 12.5469 13.5723 12.6371 13.6099C12.7274 13.6475 12.8242 13.6668 12.9219 13.6668C13.0197 13.6668 13.1165 13.6475 13.2067 13.6099C13.2969 13.5723 13.3788 13.5172 13.4477 13.4478C13.5171 13.3789 13.5722 13.297 13.6098 13.2068C13.6474 13.1166 13.6667 13.0198 13.6667 12.922C13.6667 12.8243 13.6474 12.7275 13.6098 12.6373C13.5722 12.547 13.5171 12.4651 13.4477 12.3963V12.3963ZM1.81438 6.25751C1.81438 5.37877 2.07496 4.51976 2.56316 3.78911C3.05137 3.05846 3.74527 2.48899 4.55713 2.15271C5.36898 1.81643 6.26232 1.72844 7.12418 1.89987C7.98604 2.07131 8.77771 2.49446 9.39908 3.11583C10.0204 3.7372 10.4436 4.52887 10.615 5.39073C10.7865 6.25259 10.6985 7.14593 10.3622 7.95778C10.0259 8.76964 9.45645 9.46354 8.7258 9.95174C7.99515 10.4399 7.13614 10.7005 6.25739 10.7005C5.07903 10.7005 3.94894 10.2324 3.11571 9.3992C2.28248 8.56597 1.81438 7.43587 1.81438 6.25751Z" fill="#DEDEDE"/>
</svg>
