<svg width="20" height="20" viewBox="0 0 20 20" fill="none" xmlns="http://www.w3.org/2000/svg">
<path d="M16.0241 14.1365C15.2611 14.1365 14.5783 14.4378 14.0562 14.9096L6.8976 10.743C6.9478 10.512 6.98796 10.2811 6.98796 10.0402C6.98796 9.7992 6.9478 9.56827 6.8976 9.33735L13.9759 5.21084C14.5181 5.71285 15.2309 6.0241 16.0241 6.0241C17.6908 6.0241 19.0362 4.67871 19.0362 3.01205C19.0362 1.34538 17.6908 0 16.0241 0C14.3574 0 13.0121 1.34538 13.0121 3.01205C13.0121 3.25301 13.0522 3.48394 13.1024 3.71486L6.02411 7.84137C5.48194 7.33936 4.76909 7.02811 3.97592 7.02811C2.30925 7.02811 0.963867 8.37349 0.963867 10.0402C0.963867 11.7068 2.30925 13.0522 3.97592 13.0522C4.76909 13.0522 5.48194 12.741 6.02411 12.239L13.1727 16.4157C13.1225 16.6265 13.0924 16.8474 13.0924 17.0683C13.0924 18.6847 14.4076 20 16.0241 20C17.6406 20 18.9558 18.6847 18.9558 17.0683C18.9558 15.4518 17.6406 14.1365 16.0241 14.1365Z" fill="#F5F5F5"/>
</svg>
