<svg width="14" height="12" viewBox="0 0 14 12" fill="none" xmlns="http://www.w3.org/2000/svg">
<path d="M1.91597 1.63231H12.0844C12.4838 1.63231 12.8107 1.30547 12.8107 0.906C12.8107 0.506528 12.4838 0.179688 12.0844 0.179688H1.91597C1.5165 0.179688 1.18966 0.506528 1.18966 0.906C1.18966 1.30547 1.5165 1.63231 1.91597 1.63231ZM12.9269 2.93968C12.8615 2.60557 12.5637 2.35863 12.2151 2.35863H1.78524C1.43661 2.35863 1.13882 2.60557 1.07345 2.93968L0.34714 6.57124C0.259982 7.02155 0.601349 7.44281 1.05893 7.44281H1.18966V11.0744C1.18966 11.4738 1.5165 11.8007 1.91597 11.8007H7.72648C8.12595 11.8007 8.45279 11.4738 8.45279 11.0744V7.44281H11.358V11.0744C11.358 11.4738 11.6849 11.8007 12.0844 11.8007C12.4838 11.8007 12.8107 11.4738 12.8107 11.0744V7.44281H12.9414C13.399 7.44281 13.7403 7.02155 13.6532 6.57124L12.9269 2.93968V2.93968ZM7.00016 10.3481H2.64229V7.44281H7.00016V10.3481Z" fill="#DEDEDE"/>
</svg>
