<svg width="18" height="20" viewBox="0 0 18 20" fill="none" xmlns="http://www.w3.org/2000/svg">
<path d="M17.3741 17.8873L16.0692 6.63755C16.0055 5.60735 15.2708 4.80939 14.3855 4.80939H12.917V4.1649C12.917 3.05755 12.5129 2.0151 11.7794 1.2298C11.0386 0.436735 10.0517 0 8.99981 0C6.84022 0 5.08308 1.86857 5.08308 4.1649V4.80939H3.6141C2.7292 4.80939 1.99451 5.60735 1.93083 6.63755L0.625936 17.8873C0.555324 19.0286 1.3292 20 2.3092 20H15.6904C16.6708 20 17.4447 19.0286 17.3741 17.8873ZM5.89941 4.1649C5.89941 2.31837 7.29002 0.816326 8.99981 0.816326C9.82308 0.816326 10.5982 1.16082 11.1827 1.78694C11.7745 2.42041 12.1006 3.26531 12.1006 4.1649V4.80939H5.89941V4.1649ZM5.49124 7.62694C5.05614 7.62694 4.70349 7.27429 4.70349 6.83918C4.70349 6.40408 5.05614 6.05143 5.49124 6.05143C5.92634 6.05143 6.279 6.40408 6.279 6.83918C6.27904 7.27429 5.92634 7.62694 5.49124 7.62694ZM12.5088 7.62735C12.0737 7.62735 11.721 7.27429 11.721 6.83918C11.721 6.4049 12.0725 6.05265 12.5068 6.05143H12.5108C12.9451 6.05265 13.2965 6.4049 13.2965 6.83918C13.2965 7.27429 12.9439 7.62735 12.5088 7.62735Z" fill="#71C705"/>
</svg>
