<svg width="20" height="18" viewBox="0 0 20 18" fill="none" xmlns="http://www.w3.org/2000/svg">
<path d="M2.37372 2.44847H17.6263C18.2255 2.44847 18.7158 1.95821 18.7158 1.359C18.7158 0.759792 18.2255 0.269531 17.6263 0.269531H2.37372C1.77451 0.269531 1.28425 0.759792 1.28425 1.359C1.28425 1.95821 1.77451 2.44847 2.37372 2.44847ZM18.8901 4.40951C18.792 3.90836 18.3453 3.53794 17.8224 3.53794H2.17761C1.65467 3.53794 1.20799 3.90836 1.10993 4.40951L0.0204651 9.85686C-0.110271 10.5323 0.401779 11.1642 1.08814 11.1642H1.28425V16.6116C1.28425 17.2108 1.77451 17.701 2.37372 17.701H11.0895C11.6887 17.701 12.1789 17.2108 12.1789 16.6116V11.1642H16.5368V16.6116C16.5368 17.2108 17.0271 17.701 17.6263 17.701C18.2255 17.701 18.7158 17.2108 18.7158 16.6116V11.1642H18.9119C19.5982 11.1642 20.1103 10.5323 19.9795 9.85686L18.8901 4.40951ZM10 15.5221H3.46319V11.1642H10V15.5221Z" fill="#71C705"/>
</svg>
