<svg width="36" height="48" viewBox="0 0 36 48" fill="none" xmlns="http://www.w3.org/2000/svg">
<path fill-rule="evenodd" clip-rule="evenodd" d="M34.8448 11.0143L24.9027 1.0723C24.6998 0.869402 24.3955 0.666504 24.0911 0.666504L4.81578 0.666504C2.5839 0.666504 0.757812 2.49259 0.757812 4.72447L0.757812 43.2752C0.757812 45.5071 2.5839 47.3332 4.81578 47.3332H31.1926C33.4245 47.3332 35.2506 45.5071 35.2506 43.2752V11.8259C35.2506 11.5216 35.0477 11.2172 34.8448 11.0143ZM33.2216 43.2752C33.2216 44.3911 32.3085 45.3042 31.1926 45.3042H4.81578C3.69984 45.3042 2.7868 44.3911 2.7868 43.2752L2.7868 4.72447C2.7868 3.60853 3.69984 2.69549 4.81578 2.69549L23.0767 2.69549V11.8259C23.0767 12.4346 23.4825 12.8404 24.0911 12.8404H33.2216V43.2752Z" fill="#5B9F04"/>
<path fill-rule="evenodd" clip-rule="evenodd" d="M4.81662 45.7098C3.49778 45.7098 2.38184 44.5939 2.38184 43.2751L2.38184 4.72433C2.38184 3.40549 3.49778 2.28955 4.81662 2.28955L23.4833 2.28955V11.8258C23.4833 12.1301 23.7876 12.4345 24.092 12.4345H33.6282V43.2751C33.6282 44.5939 32.5123 45.7098 31.1934 45.7098H4.81662Z" fill="#2D5002"/>
<path d="M18.0038 40.2319C18.6125 40.2319 19.0183 39.8261 19.0183 39.2174V27.0435L23.3806 31.4058C23.7864 31.8116 24.3951 31.8116 24.8009 31.4058C25.2067 31 25.2067 30.3913 24.8009 29.9855L18.7139 23.8986C18.511 23.6957 18.3081 23.5942 18.0038 23.5942C17.9023 23.5942 17.6994 23.5942 17.598 23.6957C17.4965 23.6957 17.3951 23.7971 17.2936 23.8986L11.2067 29.9855C10.8009 30.3913 10.8009 31 11.2067 31.4058C11.6125 31.8116 12.2212 31.8116 12.627 31.4058L16.9893 27.0435V39.2174C16.9893 39.8261 17.3951 40.2319 18.0038 40.2319Z" fill="#5B9F04"/>
</svg>
