<svg width="20" height="20" viewBox="0 0 20 20" fill="none" xmlns="http://www.w3.org/2000/svg">
<path d="M10 0C7.34875 0.00298133 4.80694 1.05751 2.93222 2.93222C1.05751 4.80694 0.00298133 7.34875 0 10C0.00450753 12.6508 1.05952 15.1917 2.93391 17.0661C4.8083 18.9405 7.34922 19.9955 10 20C12.6522 20 15.1957 18.9464 17.0711 17.0711C18.9464 15.1957 20 12.6522 20 10C20 7.34784 18.9464 4.8043 17.0711 2.92893C15.1957 1.05357 12.6522 0 10 0ZM16.0825 15.7703C15.5208 14.6375 14.6538 13.6843 13.5792 13.0181C12.5046 12.352 11.2653 11.9993 10.0009 12C8.73661 12.0007 7.49763 12.3547 6.42378 13.022C5.34993 13.6894 4.48393 14.6435 3.92349 15.7769C2.42807 14.2261 1.59478 12.1543 1.6 10C1.6 7.77218 2.485 5.63561 4.0603 4.0603C5.63561 2.485 7.77218 1.6 10 1.6C12.2278 1.6 14.3644 2.485 15.9397 4.0603C17.515 5.63561 18.4 7.77218 18.4 10C18.405 12.1512 17.574 14.2201 16.0825 15.7703ZM10 4C9.28799 4 8.59196 4.21114 7.99995 4.60671C7.40793 5.00228 6.94651 5.56453 6.67403 6.22234C6.40156 6.88015 6.33027 7.60399 6.46917 8.30233C6.60808 9.00066 6.95095 9.64212 7.45442 10.1456C7.95789 10.6491 8.59934 10.9919 9.29768 11.1308C9.99601 11.2697 10.7198 11.1984 11.3777 10.926C12.0355 10.6535 12.5977 10.1921 12.9933 9.60005C13.3889 9.00804 13.6 8.31201 13.6 7.6C13.6 7.12724 13.5069 6.65911 13.326 6.22234C13.145 5.78557 12.8799 5.38871 12.5456 5.05442C12.2113 4.72013 11.8144 4.45495 11.3777 4.27403C10.9409 4.09312 10.4728 4 10 4Z" fill="#8BF406"/>
</svg>
